<?xml version="1.0" standalone="no"?>
<!DOCTYPE svg PUBLIC "-//W3C//DTD SVG 1.1//EN" "http://www.w3.org/Graphics/SVG/1.1/DTD/svg11.dtd" >
<svg xmlns="http://www.w3.org/2000/svg">
<metadata></metadata>
<defs>
<font id="quattrocento_sansregular" horiz-adv-x="1314" >
<font-face units-per-em="2048" ascent="1638" descent="-410" />
<missing-glyph horiz-adv-x="501" />
<glyph unicode="&#xfb01;" horiz-adv-x="1071" d="M51 846v76l158 18q0 352 98 485q74 101 209 101q160 0 322 -103l-70 -123q-104 64 -164.5 91.5t-114.5 27.5q-85 0 -111 -76.5t-26 -277.5v-123h221v-96h-221v-846h-143v846h-158zM772 0v942h143v-942h-143z" />
<glyph unicode="&#xfb02;" horiz-adv-x="1099" d="M51 846v76l158 18q0 340 125 485q88 101 205 101q179 0 317 -53l72 43v-1516h-144v1362q-111 57 -284 57q-148 0 -148 -354v-123h221v-96h-221v-846h-143v846h-158z" />
<glyph horiz-adv-x="0" />
<glyph horiz-adv-x="682" />
<glyph horiz-adv-x="0" />
<glyph horiz-adv-x="0" />
<glyph unicode="&#xd;" horiz-adv-x="501" />
<glyph unicode=" "  horiz-adv-x="501" />
<glyph unicode="&#x09;" horiz-adv-x="501" />
<glyph unicode="&#xa0;" horiz-adv-x="501" />
<glyph unicode="!" horiz-adv-x="528" d="M166 1397h199l-54 -1090h-96zM170 72q0 39 28.5 68.5t67.5 29.5q37 0 66.5 -30t29.5 -68t-29.5 -66.5t-66.5 -28.5q-40 0 -68 28.5t-28 66.5z" />
<glyph unicode="&#x22;" horiz-adv-x="684" d="M121 1499h166l-49 -442h-74zM401 1499h166l-49 -442h-74z" />
<glyph unicode="#" horiz-adv-x="1257" d="M78 455l20 108h240l53 244h-252l21 106h254l90 426h131l-90 -426h258l90 426h131l-90 -426h248l-21 -106h-250l-53 -244h262l-20 -108h-264l-97 -455h-131l97 455h-259l-96 -455h-131l96 455h-237zM469 563h258l53 244h-258z" />
<glyph unicode="$" horiz-adv-x="1083" d="M88 88l43 150q87 -60 166 -91.5t195 -35.5v530q-74 25 -126.5 48.5t-101.5 56.5t-78.5 70.5t-47 89t-17.5 114.5q0 158 100.5 241.5t270.5 96.5v178h122v-176q175 -12 310 -76l-43 -158q-95 82 -267 97v-449q69 -23 116 -43t102.5 -55.5t89 -76t56.5 -102t23 -137.5 q0 -91 -30.5 -161.5t-85 -115t-122.5 -70t-149 -33.5v-177h-122v174q-224 8 -404 111zM270 1026q0 -79 49.5 -122t172.5 -87v406q-222 -19 -222 -197zM614 117q118 17 174 73t56 142q0 51 -18.5 93.5t-52.5 74t-72 54t-87 42.5v-479z" />
<glyph unicode="%" horiz-adv-x="1675" d="M80 977q0 166 81.5 275.5t219.5 109.5q92 0 161.5 -52.5t104.5 -137t35 -187.5q0 -102 -35 -187.5t-106.5 -140.5t-167.5 -55q-139 0 -216 107.5t-77 267.5zM195 989q0 -146 47 -220.5t133 -74.5q98 0 146 79.5t48 207.5q0 133 -48.5 211t-143.5 78q-182 0 -182 -281z M295 -49l948 1464h133l-948 -1464h-133zM997 360q0 166 81.5 275.5t219.5 109.5q92 0 161.5 -52t104.5 -136.5t35 -187.5q0 -102 -35 -187.5t-106.5 -140.5t-167.5 -55q-139 0 -216 107t-77 267zM1112 373q0 -146 47 -220.5t133 -74.5q98 0 146.5 79.5t48.5 207.5 q0 132 -49 210t-144 78q-182 0 -182 -280z" />
<glyph unicode="&#x26;" horiz-adv-x="1435" d="M129 360q0 119 72 230.5t202 167.5q-63 72 -93.5 142.5t-30.5 156.5q0 145 86 225t217 80q139 0 284 -90l-41 -146q-47 45 -113 74t-126 29q-73 0 -118.5 -45t-45.5 -137q0 -125 104 -232l467 -483q33 81 33 157q0 114 -68 222l-102 -9v97l514 75v-126l-274 -25 q63 -117 63 -242q0 -133 -69 -250l225 -231h-172l-131 133q-158 -158 -410 -158q-114 0 -205.5 32t-149 86t-88 122.5t-30.5 144.5zM285 379q0 -126 93 -197t243 -71q186 0 299 116l-426 437q-96 -32 -152.5 -109t-56.5 -176z" />
<glyph unicode="'" horiz-adv-x="403" d="M121 1499h166l-49 -442h-74z" />
<glyph unicode="(" horiz-adv-x="636" d="M102 670q0 258 108.5 493t305.5 416l78 -27q-165 -187 -236 -394t-71 -488q0 -82 4 -147t21.5 -163t48.5 -183.5t90 -189.5t141 -200l-76 -27q-196 176 -305 413.5t-109 496.5z" />
<glyph unicode=")" horiz-adv-x="636" d="M43 1552l78 27q197 -181 305.5 -416t108.5 -493q0 -259 -109 -496.5t-305 -413.5l-76 27q82 96 141 200t90 189.5t48.5 183.5t21.5 163t4 147q0 281 -71 488t-236 394z" />
<glyph unicode="*" horiz-adv-x="899" d="M125 991l252 109l-252 110l68 119l219 -166l-29 275h135l-33 -275l222 166l67 -119l-252 -110l252 -109l-65 -117l-224 162l31 -270h-133l29 270l-222 -162z" />
<glyph unicode="+" horiz-adv-x="1017" d="M104 436v107h351v331h106v-331h352v-107h-352v-352h-106v352h-351z" />
<glyph unicode="," horiz-adv-x="497" d="M139 -160l80 150h-51v184h162v-215l-150 -158z" />
<glyph unicode="-" horiz-adv-x="995" d="M152 436v107h692v-107h-692z" />
<glyph unicode="." horiz-adv-x="481" d="M145 72q0 39 28 68.5t67 29.5q38 0 68 -30t30 -68t-29.5 -66.5t-68.5 -28.5t-67 28t-28 67z" />
<glyph unicode="/" horiz-adv-x="868" d="M74 -117l569 1555h154l-570 -1555h-153z" />
<glyph unicode="0" horiz-adv-x="1329" d="M121 659q0 196 63.5 354.5t189 253.5t292.5 95q102 0 190 -36t152 -100t110 -150.5t69 -188.5t23 -213q0 -137 -37 -261.5t-106 -222.5t-177 -156.5t-239 -58.5q-128 0 -230.5 55t-167 150t-98.5 217t-34 262zM291 680q0 -278 95 -423.5t269 -145.5q98 0 173.5 43 t121.5 119.5t69 176t23 218.5q0 257 -97.5 408t-285.5 151q-97 0 -168.5 -39.5t-115 -113.5t-64 -172t-20.5 -222z" />
<glyph unicode="1" horiz-adv-x="649" d="M51 1126l395 226v-1352h-153v1077l-197 -94z" />
<glyph unicode="2" horiz-adv-x="1042" d="M96 0v143q63 81 160.5 184.5t175 184.5t152 170t116 177t41.5 169q0 90 -54.5 144.5t-176.5 54.5q-90 0 -195 -29.5t-163 -71.5l-37 136q79 44 190 72t209 28q178 0 287.5 -92t109.5 -240q0 -73 -30.5 -151.5t-76.5 -146t-116.5 -149t-133.5 -145t-146.5 -149 t-137.5 -146.5h656v-143h-830z" />
<glyph unicode="3" horiz-adv-x="1095" d="M76 102l41 138q159 -129 352 -129q165 0 252.5 77t87.5 224q0 254 -344 254h-55v116h63q127 0 198.5 65.5t71.5 178.5q0 201 -221 201q-90 0 -182.5 -29.5t-144.5 -71.5l-37 136q69 43 169 71.5t183 28.5q186 0 294.5 -91t108.5 -261q0 -82 -54.5 -156.5t-139.5 -118.5 q260 -88 260 -340q0 -86 -32 -161.5t-93 -133.5t-158.5 -91.5t-220.5 -33.5q-237 0 -399 127z" />
<glyph unicode="4" horiz-adv-x="1040" d="M63 430v143l572 779h164v-779h141v-143h-141v-430h-154v430h-582zM238 573h407v555z" />
<glyph unicode="5" horiz-adv-x="1101" d="M96 102l43 144q82 -66 167 -100.5t192 -34.5q157 0 244 77.5t87 223.5q0 124 -73 191t-248 67q-157 0 -291 -52l-59 31l75 713h695v-143h-566l-53 -437q154 33 262 33q191 0 308.5 -103t117.5 -286q0 -92 -31.5 -172t-91.5 -143t-157.5 -99.5t-220.5 -36.5 q-238 0 -400 127z" />
<glyph unicode="6" horiz-adv-x="1128" d="M129 612q0 119 14.5 222.5t51 202t92.5 168.5t145.5 112.5t204.5 42.5q84 0 176.5 -23t147.5 -75l-35 -136q-64 53 -140.5 77t-146.5 24q-82 0 -146.5 -29.5t-105 -77t-67.5 -113.5t-37.5 -133.5t-10.5 -142.5q0 -39 2 -59l7 -2q80 151 335 151q98 0 173.5 -29.5t119 -73 t71 -102t37 -109t9.5 -101.5q0 -62 -14.5 -121.5t-48.5 -116t-83 -99t-123 -68.5t-165 -26q-101 0 -179.5 29.5t-131.5 83.5t-87.5 134t-49.5 176t-15 214zM309 395q0 -135 75 -215t208 -80q127 0 200.5 82t73.5 226q0 59 -13.5 108.5t-42.5 91t-81 65t-123 23.5 q-148 0 -222.5 -82.5t-74.5 -218.5z" />
<glyph unicode="7" horiz-adv-x="935" d="M82 1219v143h829v-143q-136 -134 -268 -343t-217.5 -427.5t-85.5 -366.5q0 -57 2 -82h-178q-2 25 -2 80q0 124 53.5 281.5t140 311t185.5 293.5t200 253h-659z" />
<glyph unicode="8" horiz-adv-x="1142" d="M119 381q0 135 65.5 229t182.5 129v9q-77 28 -129 103.5t-52 182.5q0 149 102.5 238.5t282.5 89.5q178 0 281.5 -87.5t103.5 -234.5q0 -103 -50.5 -179.5t-129.5 -110.5v-9q117 -26 182.5 -122t65.5 -234q0 -87 -27.5 -160t-82 -129.5t-143 -88.5t-202.5 -32 q-119 0 -208 33.5t-140.5 91.5t-76.5 128.5t-25 152.5zM285 371q0 -130 73.5 -200.5t210.5 -70.5t211 70.5t74 200.5q0 60 -16 112.5t-49 95.5t-89.5 68t-130.5 25q-75 0 -131.5 -25t-88.5 -68.5t-48 -95.5t-16 -112zM350 1026q0 -104 58 -167.5t161 -63.5t161 63.5 t58 167.5q0 94 -51.5 150.5t-167.5 56.5q-114 0 -166.5 -55.5t-52.5 -151.5z" />
<glyph unicode="9" horiz-adv-x="1130" d="M104 930q0 62 15 121.5t48.5 116t82.5 98.5t123.5 68t165.5 26q126 0 216 -44.5t143.5 -130.5t78 -199.5t24.5 -262.5q0 -119 -14.5 -222.5t-50.5 -202t-92.5 -168.5t-145.5 -112.5t-204 -42.5q-84 0 -176.5 23t-147.5 76l35 135q121 -100 287 -100q82 0 146.5 29 t105 76.5t67 113.5t37 133.5t10.5 142.5q0 40 -2 60l-6 2q-80 -152 -336 -152q-98 0 -173.5 29.5t-119 73.5t-71 102.5t-37 109t-9.5 101.5zM264 928q0 -59 13.5 -109t42.5 -91.5t81 -65t123 -23.5q148 0 222.5 82.5t74.5 218.5q0 135 -74.5 215t-207.5 80 q-127 0 -201 -81.5t-74 -225.5z" />
<glyph unicode=":" horiz-adv-x="495" d="M152 72q0 39 27.5 68.5t66.5 29.5q38 0 68 -30t30 -68t-29.5 -66.5t-68.5 -28.5t-66.5 28t-27.5 67zM152 836q0 39 27.5 67.5t66.5 28.5q38 0 68 -29t30 -67q0 -39 -29.5 -68t-68.5 -29t-66.5 28.5t-27.5 68.5z" />
<glyph unicode=";" horiz-adv-x="520" d="M154 -160l79 150h-51v184h162v-215l-149 -158zM170 836q0 39 27.5 67.5t66.5 28.5q38 0 68 -29t30 -67q0 -39 -29.5 -68t-68.5 -29t-66.5 28.5t-27.5 68.5z" />
<glyph unicode="&#x3c;" horiz-adv-x="835" d="M78 487v11l584 397l36 -129l-403 -268v-11l405 -272l-36 -131z" />
<glyph unicode="=" horiz-adv-x="1003" d="M156 281v106h692v-106h-692zM156 592v106h692v-106h-692z" />
<glyph unicode="&#x3e;" horiz-adv-x="835" d="M135 215l406 272v11l-404 268l37 129l584 -397v-11l-586 -403z" />
<glyph unicode="?" horiz-adv-x="843" d="M82 1305q56 43 139 71.5t158 28.5q163 0 259.5 -91.5t96.5 -240.5q0 -68 -30.5 -137t-74.5 -132.5t-87.5 -132.5t-74.5 -163.5t-32 -198.5h-131q0 97 21 182.5t52.5 144t68 117t68 104.5t52.5 103t21 115q0 86 -54.5 141.5t-156.5 55.5q-66 0 -140.5 -30t-117.5 -73z M281 74q0 40 28 68t66 28q39 0 68.5 -28.5t29.5 -67.5q0 -38 -30 -67.5t-68 -29.5t-66 29t-28 68z" />
<glyph unicode="@" horiz-adv-x="1480" d="M117 369q0 80 19 164t56 169t97.5 160t138 133.5t183.5 92.5t227 34q112 0 205.5 -29.5t157.5 -78.5t108.5 -114.5t65 -137t20.5 -146.5q0 -122 -51.5 -227.5t-148.5 -171t-218 -65.5q-92 0 -121 37t-29 112q-34 -69 -86.5 -110t-105.5 -41q-67 0 -119.5 65.5 t-52.5 179.5q0 117 60 211t148.5 142.5t182.5 48.5q55 0 112 -17.5t89 -50.5l-76 -364q-8 -62 -8 -72q0 -30 13 -43.5t46 -13.5q103 0 171.5 113t68.5 259q0 62 -15 120.5t-49 113t-83.5 95t-123 65t-163.5 24.5q-140 0 -254.5 -58t-186.5 -153t-110.5 -210t-38.5 -236 q0 -99 26 -179.5t71.5 -135t108.5 -92t134 -54.5t151 -17q103 0 202 31.5t152.5 64.5t92.5 68v-102q-54 -52 -186.5 -106t-280.5 -54q-163 0 -299.5 70t-218.5 203t-82 303zM598 369q0 -65 18.5 -98t47.5 -33q51 0 111.5 76t78.5 155l49 248q-12 12 -51 12q-64 0 -115 -36 t-80 -92.5t-44 -116t-15 -115.5z" />
<glyph unicode="A" d="M10 0l541 1352h186l594 -1352h-174l-199 455h-604l-180 -455h-164zM412 598h483l-254 582z" />
<glyph unicode="B" horiz-adv-x="1144" d="M203 0v1352q147 10 315 10q186 0 295 -91t109 -261q0 -171 -140 -262q125 -42 193.5 -132t68.5 -221q0 -87 -31.5 -162t-92.5 -133t-158.5 -91.5t-220.5 -33.5q-155 0 -338 25zM356 117q80 -6 179 -6q165 0 252 77t87 224q0 254 -344 254q-68 0 -174 -4v-545zM356 784 q39 -2 125 -2q127 0 199 65.5t72 178.5q0 201 -222 201q-68 0 -174 -4v-439z" />
<glyph unicode="C" d="M117 662q0 147 43.5 273t126.5 222t213 150.5t293 54.5q109 0 220 -24t191 -64l-43 -148q-152 101 -381 101q-134 0 -230.5 -39t-153.5 -113t-83 -172t-26 -225q0 -280 123 -423.5t366 -143.5q124 0 233.5 35.5t178.5 91.5l41 -138q-206 -125 -459 -125q-130 0 -238.5 36 t-184.5 99.5t-128.5 150.5t-77 188t-24.5 213z" />
<glyph unicode="D" horiz-adv-x="1441" d="M203 0v1352h10q323 10 436 10q143 0 263.5 -40.5t205.5 -113.5q104 -94 155.5 -235t51.5 -311q0 -112 -24.5 -213t-77 -188t-128.5 -150.5t-184.5 -99.5t-238.5 -36q-213 0 -469 25zM356 123q129 -12 310 -12q243 0 366 143.5t123 423.5q0 127 -26 225t-83 172 t-153.5 113t-230.5 39q-177 0 -306 -6v-1098z" />
<glyph unicode="E" horiz-adv-x="1069" d="M203 0v1352h741v-144h-588v-420h451v-143h-451v-502h629v-143h-782z" />
<glyph unicode="F" horiz-adv-x="983" d="M203 0v1352h731v-144h-578v-420h428v-143h-428v-645h-153z" />
<glyph unicode="G" horiz-adv-x="1376" d="M117 662q0 147 43.5 273t126.5 222t213 150.5t293 54.5q238 0 432 -88l-43 -148q-68 45 -173 73t-229 28q-134 0 -230.5 -39t-153.5 -113t-83 -172t-26 -225q0 -280 123 -423.5t366 -143.5q171 0 314 65v381h153v-444q-204 -138 -473 -138q-130 0 -238.5 36t-184.5 99.5 t-128.5 150.5t-77 188t-24.5 213z" />
<glyph unicode="H" horiz-adv-x="1441" d="M203 0v1352h153v-584h729v584h154v-1352h-154v625h-729v-625h-153z" />
<glyph unicode="I" horiz-adv-x="559" d="M203 0v1352h153v-1352h-153z" />
<glyph unicode="J" horiz-adv-x="557" d="M-29 -207q45 0 80.5 14t59.5 35.5t41.5 56t27 68t15 79t7 81.5t1.5 82v1143h153v-1145q0 -149 -37 -265t-119 -188.5t-200 -72.5z" />
<glyph unicode="K" horiz-adv-x="1224" d="M203 0v1352h153v-639q98 66 209 174q220 216 391 465h177q-91 -134 -219.5 -285t-243.5 -266q-30 -30 -80 -76l627 -725h-191l-549 627l-121 -92v-535h-153z" />
<glyph unicode="L" horiz-adv-x="995" d="M203 0v1352h153v-1209h605v-143h-758z" />
<glyph unicode="M" horiz-adv-x="1726" d="M203 0v1352h207l458 -1159l459 1159h197v-1352h-154v1022l-414 -1022h-184l-416 1024v-1024h-153z" />
<glyph unicode="N" horiz-adv-x="1441" d="M203 0v1352h186l696 -1108v1108h154v-1352h-186l-697 1106v-1106h-153z" />
<glyph unicode="O" horiz-adv-x="1548" d="M115 659q0 147 44.5 274.5t126.5 223t208 150.5t280 55q155 0 282 -55.5t208.5 -150.5t125.5 -218.5t44 -263.5q0 -109 -26.5 -211t-82 -191t-134 -155t-189.5 -104t-242 -38q-158 0 -283 55t-203 150t-118.5 217t-40.5 262zM285 680q0 -280 123 -424.5t356 -144.5 q130 0 228 43t157 119.5t88 175.5t29 219q0 259 -124.5 409t-373.5 150q-128 0 -222.5 -39.5t-150.5 -113.5t-83 -172t-27 -222z" />
<glyph unicode="P" horiz-adv-x="1083" d="M203 0v1352h8q220 10 297 10q226 0 358.5 -113t132.5 -321q0 -87 -29 -162t-85.5 -133t-147.5 -91.5t-207 -33.5q-98 0 -174 6v-514h-153zM356 649q73 -6 168 -6q150 0 227.5 76.5t77.5 224.5q0 283 -309 283q-66 0 -164 -4v-574z" />
<glyph unicode="Q" horiz-adv-x="1554" d="M119 659q0 147 44.5 274.5t126.5 223t208 150.5t280 55q155 0 282 -55.5t208.5 -150.5t125.5 -218.5t44 -263.5q0 -106 -25 -205t-77 -186t-126 -153t-178 -106.5t-227 -46.5q76 -9 178 -48.5t202.5 -73t188.5 -33.5q83 0 174 39l-39 -131q-62 -33 -151 -33 q-78 0 -168.5 28.5t-158.5 62.5t-149 62.5t-141 28.5q-57 0 -125.5 -20.5t-126.5 -63.5l-28 96q103 76 239 86q-115 8 -210.5 48.5t-163.5 104t-115 147.5t-69.5 180t-22.5 202zM289 674q0 -276 124 -419.5t359 -143.5q128 0 225.5 43t156 120t87.5 177.5t29 222.5 q0 124 -30 224t-90 174.5t-157 114.5t-225 40q-127 0 -220.5 -39.5t-149.5 -114.5t-82.5 -174t-26.5 -225z" />
<glyph unicode="R" horiz-adv-x="1218" d="M203 0v1352q240 10 305 10q226 0 358.5 -101.5t132.5 -287.5q0 -136 -76.5 -237.5t-224.5 -139.5l519 -596h-191l-506 578q-90 0 -164 6v-584h-153zM356 717q49 -4 168 -4q150 0 227.5 70.5t77.5 205.5q0 238 -309 238q-66 0 -164 -4v-506z" />
<glyph unicode="S" horiz-adv-x="1128" d="M100 88l43 150q92 -64 177 -95.5t215 -31.5q177 0 259.5 59.5t82.5 161.5q0 38 -12 72t-29.5 59t-49 49t-57.5 39.5t-68.5 33t-69 26.5t-71.5 24q-97 32 -161.5 63t-119 75.5t-80.5 105.5t-26 141q0 89 33 156t93 107t137.5 59.5t172.5 19.5q105 0 208.5 -22t178.5 -56 l-43 -158q-61 52 -159 76.5t-193 24.5q-133 0 -205.5 -49.5t-72.5 -151.5q0 -20 2.5 -37.5t10.5 -33t15 -28t23.5 -25t29 -22t38 -21t43 -19.5t53 -20.5t59 -20.5t68.5 -23q51 -17 87.5 -30.5t82.5 -35t77.5 -43.5t64.5 -53.5t52.5 -67.5t32 -83.5t12.5 -102.5 q0 -82 -26.5 -148t-72 -109.5t-108.5 -72.5t-132.5 -42t-147.5 -13q-241 0 -447 113z" />
<glyph unicode="T" horiz-adv-x="1091" d="M37 1208v144h1018v-144h-432v-1208h-154v1208h-432z" />
<glyph unicode="U" horiz-adv-x="1409" d="M188 455v897h154v-828q0 -413 367 -413q368 0 368 413v828h144v-897q0 -102 -31.5 -188t-93.5 -151.5t-161 -102t-226 -36.5q-139 0 -242 36.5t-163 102.5t-88 150.5t-28 188.5z" />
<glyph unicode="V" horiz-adv-x="1318" d="M-14 1352h174l514 -1180l469 1180h164l-537 -1352h-195z" />
<glyph unicode="W" horiz-adv-x="2213" d="M-2 1352h174l455 -1157l395 1157h174l420 -1153l412 1153h163l-481 -1352h-194l-410 1118l-381 -1118h-195z" />
<glyph unicode="X" horiz-adv-x="1323" d="M31 0l536 698l-506 654h183l422 -547l421 547h177l-510 -662l536 -690h-182l-453 584l-448 -584h-176z" />
<glyph unicode="Y" horiz-adv-x="1159" d="M-23 1352h183l428 -650l413 650h179l-523 -797v-555h-153v547z" />
<glyph unicode="Z" horiz-adv-x="1134" d="M88 0v143l754 1065h-723v144h897v-144l-754 -1065h785v-143h-959z" />
<glyph unicode="[" horiz-adv-x="585" d="M184 -195v1729h328v-86h-195v-1557h195v-86h-328z" />
<glyph unicode="\" horiz-adv-x="864" d="M72 1438h149l570 -1555h-150z" />
<glyph unicode="]" horiz-adv-x="585" d="M74 -109h194v1557h-194v86h327v-1729h-327v86z" />
<glyph unicode="^" horiz-adv-x="712" d="M117 1161l6 15l225 202h17l225 -202l6 -15l-12 -39l-15 -6l-213 125l-213 -125l-14 6z" />
<glyph unicode="_" horiz-adv-x="1001" d="M57 0h887v-106h-887v106z" />
<glyph unicode="`" horiz-adv-x="448" d="M0 1321q0 30 19 50.5t53 21.5l370 -207l7 -15l-13 -41l-16 -6l-412 158q-8 19 -8 39z" />
<glyph unicode="a" horiz-adv-x="1019" d="M82 252q0 65 21 117.5t55 88t82.5 62t96.5 41t105.5 23.5t101.5 11.5t91 2.5h92v25q0 73 -21 115.5t-63 72.5q-35 23 -75 32t-105 9q-142 0 -279 -82l-32 123q139 80 327 80q167 0 262 -60q129 -81 129 -272v-641h-112l-17 168h-8q-51 -79 -159.5 -136t-221.5 -57 q-129 0 -199.5 77t-70.5 200zM233 260q0 -78 43.5 -121t118.5 -43q88 0 182 55.5t150 151.5v191h-18q-54 0 -96.5 -1.5t-94 -7.5t-90 -16t-77 -27.5t-63 -41.5t-40 -60t-15.5 -80z" />
<glyph unicode="b" horiz-adv-x="1177" d="M160 0v1516h143v-750q27 90 119 148.5t221 58.5q106 0 190.5 -40.5t137.5 -110.5t80.5 -160t27.5 -193q0 -99 -26 -187t-75.5 -157t-130 -109.5t-181.5 -40.5q-122 0 -218 55t-151 138h-8l-17 -168h-112zM303 303q58 -97 152 -152t194 -55q75 0 131 32t87 86t46 116.5 t15 132.5q0 174 -82.5 281.5t-222.5 107.5q-109 0 -196.5 -66.5t-123.5 -181.5v-301z" />
<glyph unicode="c" horiz-adv-x="1024" d="M98 479q0 101 29 188t86 156.5t153 109.5t220 40q97 0 192 -22.5t152 -59.5l-35 -121q-47 37 -136.5 63.5t-174.5 26.5q-86 0 -152 -30t-105 -82t-58 -116.5t-19 -139.5q0 -170 92.5 -287t255.5 -117q81 0 168.5 34.5t144.5 88.5l29 -133q-65 -42 -165 -72.5t-204 -30.5 q-115 0 -207 40.5t-149 110.5t-87 160t-30 193z" />
<glyph unicode="d" horiz-adv-x="1177" d="M98 469q0 139 47.5 251t148.5 182.5t241 70.5q132 0 222 -58t117 -149v750h144v-1516h-113l-16 168h-8q-55 -83 -151 -138t-218 -55q-101 0 -181.5 40.5t-130.5 109.5t-76 157t-26 187zM250 463q0 -70 14.5 -132t45.5 -116.5t87 -86.5t131 -32q101 0 195.5 55t150.5 152 v301q-36 115 -123 181.5t-196 66.5q-140 0 -222.5 -107.5t-82.5 -281.5z" />
<glyph unicode="e" horiz-adv-x="1058" d="M96 471q0 137 55 249.5t167.5 182.5t263.5 70q180 0 278 -91t98 -257q0 -89 -18 -123h-690v-21q0 -108 35 -196t112.5 -144.5t186.5 -56.5q160 0 331 119l25 -117q-178 -111 -373 -111q-111 0 -201.5 40t-148.5 109t-89.5 158t-31.5 189zM264 610h559q2 12 2 37 q0 99 -72.5 155t-177.5 56q-127 0 -205 -67.5t-106 -180.5z" />
<glyph unicode="f" horiz-adv-x="610" d="M51 846v76l158 18q0 354 84 485q68 101 215 101q111 0 178 -35l-35 -121q-3 0 -78.5 24.5t-115.5 24.5q-61 0 -83 -74t-22 -268v-135h221v-96h-221v-846h-143v846h-158z" />
<glyph unicode="g" horiz-adv-x="1040" d="M66 -236q0 80 58 154.5t138 104.5v8q-84 40 -84 106q0 68 111 146v8q-92 36 -138.5 120t-46.5 187q0 162 105 268.5t280 106.5q120 0 197 -41q185 3 301 37l10 -8l-14 -113l-10 -10l-187 8l-2 -6q50 -41 76.5 -110t26.5 -138q0 -142 -104 -240t-285 -98q-16 0 -39 1 t-31 1q-40 -13 -63 -37t-23 -43q0 -46 117 -57l198 -21q141 -14 231.5 -85t90.5 -189q0 -63 -27.5 -125t-79.5 -105q-57 -46 -151 -74t-213 -28q-204 0 -323 78.5t-119 193.5zM211 -211q0 -78 83 -124t224 -46t229.5 47.5t88.5 136.5t-96.5 131t-307.5 56q-89 0 -155 -63.5 t-66 -137.5zM250 610q0 -64 27 -120.5t85 -95t136 -38.5q110 0 174.5 69t64.5 167q0 105 -68.5 189.5t-183.5 84.5q-75 0 -130 -40t-80 -96.5t-25 -119.5z" />
<glyph unicode="h" horiz-adv-x="1116" d="M160 0v1516h143v-750q27 90 118.5 148.5t223.5 58.5q143 0 231.5 -79t88.5 -253v-641h-144v623q0 119 -52 174t-144 55q-106 0 -196 -66.5t-126 -181.5v-604h-143z" />
<glyph unicode="i" horiz-adv-x="462" d="M129 1286q0 42 30 74.5t72 32.5q41 0 74 -33t33 -74q0 -42 -32.5 -72t-74.5 -30q-43 0 -72.5 29.5t-29.5 72.5zM160 0v942h143v-942h-143z" />
<glyph unicode="j" horiz-adv-x="462" d="M-88 -403q14 -7 45 -7q45 0 79.5 17.5t56 50.5t35.5 70.5t20.5 87.5t9 90t2.5 90v946h143v-948q0 -144 -34 -260t-106 -189t-173 -73q-33 0 -45 6zM129 1286q0 42 30 74.5t72 32.5q41 0 74 -33t33 -74q0 -42 -32.5 -72t-74.5 -30q-43 0 -72.5 29.5t-29.5 72.5z" />
<glyph unicode="k" horiz-adv-x="970" d="M160 0v1516h143v-971l414 397h164l-336 -332l401 -610h-164l-338 512l-141 -141v-371h-143z" />
<glyph unicode="l" horiz-adv-x="487" d="M172 0v1516h143v-1516h-143z" />
<glyph unicode="m" horiz-adv-x="1759" d="M160 0v942h112l17 -176h8q27 90 115 148.5t217 58.5q123 0 205.5 -55t105.5 -152q46 92 132 149.5t216 57.5q67 0 122.5 -17.5t101.5 -55t72 -103.5t26 -156v-641h-144v623q0 118 -54 173.5t-146 55.5q-105 0 -189.5 -66t-120.5 -182v-604h-143v623q0 118 -54.5 173.5 t-146.5 55.5q-105 0 -189 -66t-120 -182v-604h-143z" />
<glyph unicode="n" horiz-adv-x="1116" d="M160 0v942h112l17 -176h8q27 89 121.5 148t226.5 59q143 0 231.5 -79t88.5 -253v-641h-144v623q0 118 -52.5 173.5t-143.5 55.5q-106 0 -196 -66.5t-126 -181.5v-604h-143z" />
<glyph unicode="o" horiz-adv-x="1148" d="M98 475q0 102 29.5 190.5t86 158t149 109.5t210.5 40q97 0 177 -27.5t135 -74.5t93 -112t55.5 -139t17.5 -155q0 -102 -28.5 -189t-84 -155t-147 -107t-209.5 -39q-121 0 -215 40.5t-152 110.5t-87.5 158.5t-29.5 190.5zM250 481q0 -80 20 -150t59 -126t103.5 -88.5 t147.5 -32.5q106 0 180 53.5t106.5 137t32.5 188.5q0 80 -20 149.5t-59.5 125t-104.5 88t-148 32.5q-106 0 -179.5 -53t-105.5 -135.5t-32 -188.5z" />
<glyph unicode="p" horiz-adv-x="1177" d="M160 -532v1474h112l17 -176h8q57 86 153 146.5t216 60.5q101 0 181.5 -40.5t130 -109.5t75.5 -157t26 -187q0 -103 -27.5 -193t-80.5 -160t-137.5 -110.5t-190.5 -40.5q-132 0 -222.5 58t-117.5 149v-714h-143zM303 344q36 -113 132 -180.5t206 -67.5q137 0 212 105 t75 268q0 104 -30 188t-99.5 139.5t-169.5 55.5q-99 0 -184 -54t-142 -153v-301z" />
<glyph unicode="q" horiz-adv-x="1177" d="M98 477q0 100 26.5 188.5t76 157.5t128.5 109.5t177 40.5q126 0 221 -59.5t154 -147.5h8l16 176h113v-1474h-144v714q-27 -91 -117 -149t-222 -58q-106 0 -190.5 40.5t-137.5 110.5t-81 159.5t-28 191.5zM250 469q0 -163 75 -268t212 -105q110 0 205.5 67.5t131.5 180.5 v301q-57 99 -141.5 153t-183.5 54q-100 0 -169.5 -55.5t-99.5 -139.5t-30 -188z" />
<glyph unicode="r" horiz-adv-x="731" d="M160 0v942h112l17 -207h8q32 105 100 171.5t170 66.5q39 0 82.5 -13.5t61.5 -33.5l-43 -135q-69 40 -129 40q-79 0 -144.5 -81.5t-91.5 -198.5v-551h-143z" />
<glyph unicode="s" horiz-adv-x="903" d="M96 78l37 133q69 -63 159 -96t167 -33q95 0 152 48t57 108q0 19 -1 32.5t-9 37t-22 40t-43 33.5t-69 27l-196 49q-224 57 -224 241q0 125 93.5 200t248.5 75q84 0 176 -22.5t152 -61.5l-39 -123q-45 37 -127.5 64.5t-171.5 27.5q-186 0 -186 -133q0 -115 156 -150 l145 -32q66 -15 115.5 -39t77.5 -50.5t45 -59t22.5 -59.5t5.5 -56q0 -131 -102 -217.5t-271 -86.5q-100 0 -193 30t-155 73z" />
<glyph unicode="t" horiz-adv-x="641" d="M45 846v76l162 20l31 285h108v-285h221v-96h-221v-653q0 -63 18 -85t62 -22q82 0 149 49l29 -108q-112 -50 -215 -50q-50 0 -86 13t-55 31.5t-29.5 49.5t-13 56t-2.5 61v658h-158z" />
<glyph unicode="u" horiz-adv-x="1114" d="M150 301v641h143v-623q0 -223 196 -223q107 0 197 64t125 178v604h143v-942h-112l-17 176h-8q-27 -89 -121 -145t-227 -56q-69 0 -124 16.5t-100 53t-70 101.5t-25 155z" />
<glyph unicode="v" horiz-adv-x="1067" d="M14 942h156l367 -807l366 807h150l-428 -942h-183z" />
<glyph unicode="w" horiz-adv-x="1683" d="M33 942h151l295 -803l295 803h152l276 -803l314 803h145l-367 -942h-194l-256 737l-271 -737h-194z" />
<glyph unicode="x" horiz-adv-x="1058" d="M37 0l405 481l-385 461h174l299 -358l297 358h174l-387 -457l408 -485h-174l-322 383l-315 -383h-174z" />
<glyph unicode="y" horiz-adv-x="1062" d="M-4 942h170l375 -784l336 784h161l-432 -950q-83 -182 -137 -266q-159 -250 -358 -250q-25 0 -43 6l-27 135q24 -6 43 -6q89 0 147 41q133 94 236 379z" />
<glyph unicode="z" horiz-adv-x="854" d="M86 0v123l498 698h-478v121h644v-119l-502 -702h522v-121h-684z" />
<glyph unicode="{" horiz-adv-x="583" d="M74 639v61q35 1 61.5 14t42 38t25 48t13 59t4.5 56t1 54q0 44 -2 158t-2 139q0 71 10 119t38.5 89.5t84.5 61.5t142 20l4 -43q-35 -3 -60 -16.5t-39.5 -31t-22.5 -45.5t-10 -53.5t-2 -61.5q0 -23 2.5 -138.5t2.5 -154.5q0 -68 -9 -121t-30 -100t-60 -77.5t-94 -43.5 q55 -13 94 -43.5t60 -77.5t30 -100t9 -121q0 -39 -2.5 -154.5t-2.5 -138.5q0 -36 2 -61.5t10 -53.5t22.5 -46t39.5 -31.5t60 -16.5l-4 -43q-69 0 -119 14.5t-80 38t-47 62t-23 79.5t-6 97q0 27 2 144.5t2 158.5q0 28 -0.5 46t-3.5 48t-8.5 49.5t-16 43.5t-26 38.5t-39 25 t-53.5 11.5z" />
<glyph unicode="|" horiz-adv-x="491" d="M182 -233v1806h127v-1806h-127z" />
<glyph unicode="}" horiz-adv-x="583" d="M88 -174q35 3 60 16.5t39 31t22 46t10 54t2 61.5q0 23 -2 138.5t-2 154.5q0 68 9 121t30 100t60 77.5t94 43.5q-55 13 -94 43.5t-60 77.5t-30 100t-9 121q0 39 2 154.5t2 138.5q0 46 -4 76.5t-17 61.5t-40.5 48.5t-71.5 21.5l4 43q86 0 142 -20t84.5 -61.5t38.5 -89.5 t10 -119q0 -25 -2.5 -139t-2.5 -158q0 -28 0.5 -45.5t3.5 -48.5t8 -51t16 -45t26.5 -40.5t39.5 -26.5t54 -12v-61q-30 -1 -54 -11.5t-39 -25t-26 -38t-16.5 -43.5t-8.5 -49.5t-3.5 -48t-0.5 -46.5q0 -41 2.5 -158.5t2.5 -144.5q0 -56 -6 -97t-23 -79.5t-47 -62t-80 -38 t-119 -14.5z" />
<glyph unicode="~" horiz-adv-x="1015" d="M154 414q0 41 54 99t132 58q29 0 165 -9t202 -9q95 0 133 53l24 -16q0 -7 -6 -23.5t-20.5 -40t-34 -44.5t-51.5 -35.5t-68 -14.5q-25 0 -184.5 9.5t-206.5 9.5t-68 -11.5t-45 -40.5z" />
<glyph unicode="&#xa1;" horiz-adv-x="491" d="M147 -446l50 1089h96l53 -1089h-199zM152 879q0 38 28 66t68 28q37 0 66.5 -28t29.5 -66t-29.5 -68.5t-66.5 -30.5q-39 0 -67.5 30t-28.5 69z" />
<glyph unicode="&#xa2;" horiz-adv-x="1036" d="M96 449q0 89 25.5 166.5t76 140.5t135 103.5t193.5 49.5v273h123v-275q179 -13 279 -78l-35 -120q-39 28 -106 51.5t-138 32.5v-703q72 11 142.5 43.5t117.5 77.5l29 -133q-120 -78 -289 -98v-261h-123v258q-105 7 -188.5 47.5t-135.5 105.5t-79 146t-27 173zM248 461 q0 -139 73 -242t205 -125v701q-141 -18 -209.5 -110t-68.5 -224z" />
<glyph unicode="&#xa3;" horiz-adv-x="1161" d="M70 33q288 126 288 479v31h-200v106h192q-5 43 -15.5 118t-17 130.5t-6.5 97.5q0 96 34.5 169.5t92.5 115t124 62t138 20.5q89 0 176.5 -29t143.5 -71l-37 -136q-41 42 -119.5 71.5t-158.5 29.5q-209 0 -209 -228q0 -49 14 -169t18 -181h285v-106h-281 q-3 -110 -45 -225.5t-120 -206.5l4 -7q78 -4 253 -45t269 -41q91 0 182 39l-39 -149q-48 -25 -83.5 -33t-82.5 -8q-66 0 -145.5 21t-141.5 46.5t-144 46.5t-152 21q-111 0 -189 -65z" />
<glyph unicode="&#xa4;" horiz-adv-x="1189" d="M113 883l61 61l164 -162q123 90 254 90q138 0 252 -90l166 160l61 -59l-162 -164q90 -120 90 -252q0 -130 -88 -248l164 -164l-63 -61l-166 162q-123 -93 -250 -93q-121 0 -254 93l-164 -162l-59 61l160 164q-91 113 -91 252q0 133 93 248zM291 469q0 -127 88.5 -216 t216.5 -89q126 0 213.5 88.5t87.5 216.5q0 127 -88 216t-215 89q-125 0 -214 -88.5t-89 -216.5z" />
<glyph unicode="&#xa5;" horiz-adv-x="1329" d="M63 1352h183l428 -650l413 650h179l-404 -615h234v-106h-303l-50 -76v-33h353v-106h-353v-416h-153v416h-352v106h352v25l-55 84h-297v106h227z" />
<glyph unicode="&#xa6;" horiz-adv-x="499" d="M186 -233v794h127v-794h-127zM186 778v795h127v-795h-127z" />
<glyph unicode="&#xa7;" horiz-adv-x="901" d="M94 762q0 76 36 147.5t95 116.5q-24 55 -24 127q0 59 18.5 109t48.5 84.5t69.5 58.5t81.5 35.5t83 11.5q58 0 123.5 -22.5t111.5 -55.5l-51 -137q-36 40 -88 63t-104 23q-65 0 -111.5 -39t-46.5 -108q0 -48 26 -92.5t67.5 -81t92 -72.5t100.5 -75t91.5 -80.5t67.5 -97 t26 -116.5q0 -76 -36 -148.5t-95 -115.5q24 -67 24 -127q0 -59 -18.5 -109t-48.5 -84.5t-69.5 -58.5t-81.5 -35.5t-83 -11.5q-58 0 -123.5 22.5t-111.5 55.5l51 137q36 -40 88.5 -63t104.5 -23q65 0 111 39t46 108q0 48 -26 92.5t-67.5 81t-92 72.5t-100.5 75t-91.5 80.5 t-67.5 97t-26 116.5zM221 811q0 -50 28.5 -95.5t76.5 -84t99 -74.5t108.5 -83.5t93.5 -94.5q53 50 53 133q0 42 -21 81t-54.5 69.5t-78 65t-87.5 64.5t-89 70t-76 80q-53 -50 -53 -131z" />
<glyph unicode="&#xa8;" horiz-adv-x="450" d="M0 1292q0 37 24.5 64.5t59.5 27.5q34 0 60 -27.5t26 -64.5q0 -38 -26 -64t-60 -26q-35 0 -59.5 26t-24.5 64zM281 1292q0 37 24.5 64.5t59.5 27.5q34 0 60 -27.5t26 -64.5q0 -38 -26 -64t-60 -26q-35 0 -59.5 26t-24.5 64z" />
<glyph unicode="&#xa9;" horiz-adv-x="1484" d="M121 725q0 166 82.5 307.5t225.5 224t312 82.5t312.5 -82.5t227 -224t83.5 -307.5q0 -170 -84 -312.5t-229.5 -224.5t-319.5 -82q-123 0 -236 49.5t-195 133t-130.5 198t-48.5 238.5zM217 725q0 -224 150.5 -379.5t365.5 -155.5q150 0 273 70t192.5 193t69.5 272 q0 145 -69.5 267t-191 192.5t-266.5 70.5t-265.5 -70.5t-189.5 -192.5t-69 -267zM408 729q0 71 18.5 130.5t57.5 107t104.5 74t152.5 26.5q69 0 136 -15.5t106 -41.5l-25 -105q-33 25 -95.5 43.5t-121.5 18.5q-109 0 -159 -63.5t-50 -166.5q0 -110 57 -181t161 -71 q59 0 120 24t101 62l18 -114q-44 -29 -114.5 -50.5t-143.5 -21.5q-158 0 -240.5 97t-82.5 247z" />
<glyph unicode="&#xaa;" horiz-adv-x="763" d="M123 905q0 54 24 94t59 62t83 35.5t86.5 17.5t79.5 4h55v15q0 67 -42 102t-116 35q-91 0 -168 -49l-20 73q90 54 196 54t178 -50t72 -155v-387h-82l-10 100h-8q-31 -48 -94 -82.5t-131 -34.5q-77 0 -119.5 46.5t-42.5 119.5zM221 911q0 -88 90 -88q52 0 108.5 34.5 t90.5 92.5v99h-10q-47 0 -81 -2t-74 -10t-65 -22.5t-42 -40.5t-17 -63z" />
<glyph unicode="&#xab;" horiz-adv-x="991" d="M106 487v11l275 362h162l-295 -362v-11l295 -362h-164zM438 487v11l275 362h161l-294 -362v-11l294 -362h-163z" />
<glyph unicode="&#xac;" horiz-adv-x="1294" d="M156 592v106h983v-458h-109v352h-874z" />
<glyph unicode="&#xad;" horiz-adv-x="997" d="M152 436l4 107h688l-4 -107h-688z" />
<glyph unicode="&#xae;" horiz-adv-x="1484" d="M121 725q0 166 82.5 307.5t225.5 224t312 82.5t312.5 -82.5t227 -224t83.5 -307.5q0 -170 -84 -312.5t-229.5 -224.5t-319.5 -82q-123 0 -236 49.5t-195 133t-130.5 198t-48.5 238.5zM217 725q0 -224 150.5 -379.5t365.5 -155.5q150 0 273 70t192.5 193t69.5 272 q0 145 -69.5 267t-191 192.5t-266.5 70.5t-265.5 -70.5t-189.5 -192.5t-69 -267zM537 412v673q118 5 174 5q123 0 188.5 -42.5t65.5 -148.5q0 -63 -44 -113.5t-118 -70.5l207 -303h-113l-203 297h-59v-297h-98zM635 782q25 -2 82 -2q68 0 106.5 33t38.5 94q0 105 -147 105 q-15 0 -41.5 -1t-38.5 -1v-228z" />
<glyph unicode="&#xb0;" horiz-adv-x="733" d="M117 1112q0 101 66 168.5t182 67.5q119 0 185 -69t66 -173q0 -97 -64.5 -162t-186.5 -65q-123 0 -185.5 67t-62.5 166zM213 1114q0 -69 40 -113.5t112 -44.5q74 0 111.5 40.5t37.5 109.5t-39 113.5t-113 44.5q-75 0 -112 -42t-37 -108z" />
<glyph unicode="&#xb1;" horiz-adv-x="989" d="M168 143v109h653v-109h-653zM168 610v109h272v213h107v-213h274v-109h-274v-235h-107v235h-272z" />
<glyph unicode="&#xb2;" horiz-adv-x="768" d="M133 612v86q39 49 110.5 116t124 115t93.5 111.5t41 120.5q0 46 -27.5 82.5t-91.5 36.5q-52 0 -106 -31t-91 -78l-22 91q111 100 221 100q105 0 164 -54.5t59 -144.5q0 -52 -18.5 -100.5t-59 -97.5t-75 -83.5t-99.5 -92.5t-98 -91h358v-86h-483z" />
<glyph unicode="&#xb3;" horiz-adv-x="731" d="M115 680l24 82q35 -29 54.5 -42.5t52 -24.5t71.5 -11q191 0 191 168q0 66 -43 99.5t-150 33.5h-24v70h31q73 0 110 32.5t37 92.5q0 49 -25 74.5t-94 25.5q-91 0 -164 -59l-22 79q97 62 178 62q109 0 169 -50t60 -143q0 -42 -33 -80t-83 -63q155 -47 155 -184 q0 -102 -72.5 -171t-215.5 -69q-66 0 -111 18.5t-96 59.5z" />
<glyph unicode="&#xb4;" horiz-adv-x="448" d="M0 1171l6 15l369 207q34 -1 54 -21.5t20 -50.5q0 -18 -9 -39l-413 -158l-15 6z" />
<glyph unicode="&#xb5;" horiz-adv-x="1181" d="M82 -227q81 155 118.5 271.5t37.5 256.5v641h143v-623q0 -223 197 -223q107 0 196 64t125 178v604h143v-942h-112l-17 176h-8q-27 -89 -121 -145t-227 -56q-147 0 -227 72l-6 -27q-37 -152 -111 -307z" />
<glyph unicode="&#xb6;" horiz-adv-x="1091" d="M72 928q0 208 132.5 321t358.5 113q33 0 326 -10v-1528h-92v1403h-111v-1403h-102v684h-43q-116 0 -207 33.5t-147.5 91.5t-85.5 133t-29 162z" />
<glyph unicode="&#xb7;" horiz-adv-x="495" d="M152 498q0 39 28.5 68.5t67.5 29.5q37 0 66.5 -30t29.5 -68t-29.5 -66.5t-66.5 -28.5q-40 0 -68 28.5t-28 66.5z" />
<glyph unicode="&#xb8;" horiz-adv-x="413" d="M0 -365l27 48h14q69 -25 141 -25q111 0 111 82q0 94 -107 94q-47 0 -98 -14l-18 22l104 158h70l-62 -104q36 8 70 8q70 0 116 -42.5t46 -105.5q0 -69 -65.5 -120.5t-160.5 -51.5q-96 0 -186 39z" />
<glyph unicode="&#xb9;" horiz-adv-x="507" d="M88 1227l254 135v-750h-111v586l-116 -57z" />
<glyph unicode="&#xba;" horiz-adv-x="798" d="M115 1051q0 126 77 211.5t205 85.5q132 0 209.5 -89t77.5 -215q0 -120 -75 -204t-210 -84q-71 0 -126.5 25t-89 66.5t-51 93.5t-17.5 110zM219 1053q0 -94 46 -153.5t134 -59.5q91 0 135 55t44 149q0 93 -47 153t-138 60q-174 0 -174 -204z" />
<glyph unicode="&#xbb;" horiz-adv-x="991" d="M117 125l295 362v11l-295 362h162l274 -362v-11l-272 -362h-164zM449 125l294 362v11l-294 362h161l275 -362v-11l-273 -362h-163z" />
<glyph unicode="&#xbc;" horiz-adv-x="1456" d="M72 1227l254 135v-750h-111v586l-117 -57zM162 -49l948 1464h133l-948 -1464h-133zM895 225v86l301 437h98v-437h74v-86h-74v-227h-92v227h-307zM999 311h203v316z" />
<glyph unicode="&#xbd;" horiz-adv-x="1464" d="M76 1227l254 135v-750h-111v586l-117 -57zM125 -49l948 1464h133l-948 -1464h-133zM889 -4v86q39 49 110.5 116t123.5 115t93 111.5t41 120.5q0 46 -27 82.5t-91 36.5q-52 0 -106 -31t-91 -78l-22 90q111 100 221 100q105 0 164 -54t59 -144q0 -52 -18.5 -100.5 t-59 -97.5t-75 -83.5t-99.5 -92.5t-98 -91h358v-86h-483z" />
<glyph unicode="&#xbe;" horiz-adv-x="1536" d="M76 678l24 82q51 -42 87 -60t92 -18q190 0 190 168q0 66 -43 99.5t-150 33.5h-24v70h31q73 0 110 32.5t37 92.5q0 49 -25 74.5t-94 25.5q-91 0 -164 -59l-22 79q97 62 178 62q109 0 169 -50t60 -143q0 -42 -33 -80t-83 -63q155 -47 155 -184q0 -102 -72.5 -171 t-215.5 -69q-66 0 -111 18.5t-96 59.5zM270 -49l949 1464h133l-949 -1464h-133zM975 225v86l301 437h98v-437h74v-86h-74v-227h-92v227h-307zM1079 311h203v316z" />
<glyph unicode="&#xbf;" horiz-adv-x="823" d="M94 -123q0 68 30.5 137t74.5 132.5t87.5 132.5t74.5 163.5t32 198.5h131q0 -114 -29 -212t-70.5 -165.5t-83 -127.5t-70.5 -126.5t-29 -134.5q0 -86 54.5 -141.5t156.5 -55.5q66 0 140.5 30t117.5 73l37 -135q-57 -44 -139.5 -72.5t-157.5 -28.5q-163 0 -260 91.5 t-97 240.5zM356 877q0 38 30 67t69 29q38 0 66 -29t28 -67q0 -40 -28 -68.5t-66 -28.5q-39 0 -69 29t-30 68z" />
<glyph unicode="&#xc0;" d="M10 0l541 1352h186l594 -1352h-174l-199 455h-604l-180 -455h-164zM412 598h483l-254 582zM438 1667q0 30 19 49.5t53 20.5l371 -205l4 -14l-11 -41l-16 -7l-412 158q-8 19 -8 39z" />
<glyph unicode="&#xc1;" d="M10 0l541 1352h186l594 -1352h-174l-199 455h-604l-180 -455h-164zM412 598h483l-254 582zM438 1518l6 14l369 205q34 -1 53 -20.5t19 -49.5q0 -25 -6 -39l-414 -158l-14 7z" />
<glyph unicode="&#xc2;" d="M10 0l541 1352h186l594 -1352h-174l-199 455h-604l-180 -455h-164zM412 598h483l-254 582zM428 1507l6 15l225 202h17l225 -202l6 -15l-12 -41l-14 -6l-213 127l-213 -127l-15 6z" />
<glyph unicode="&#xc3;" d="M10 0l541 1352h186l594 -1352h-174l-199 455h-604l-180 -455h-164zM344 1540q11 32 24 56.5t34 48.5t53.5 37.5t74.5 13.5q73 0 159.5 -14.5t133.5 -14.5q93 0 133 53l25 -16q-14 -65 -58.5 -111.5t-121.5 -46.5q-57 0 -167.5 14.5t-150.5 14.5q-47 0 -68 -11t-44 -40z M412 598h483l-254 582z" />
<glyph unicode="&#xc4;" d="M10 0l541 1352h186l594 -1352h-174l-199 455h-604l-180 -455h-164zM412 598h483l-254 582zM418 1626q0 37 24.5 64.5t59.5 27.5q34 0 60 -27.5t26 -64.5q0 -38 -26 -64t-60 -26q-35 0 -59.5 26t-24.5 64zM739 1626q0 37 24.5 64.5t59.5 27.5q33 0 58.5 -28t25.5 -64 q0 -37 -25.5 -63.5t-58.5 -26.5q-35 0 -59.5 26t-24.5 64z" />
<glyph unicode="&#xc5;" d="M10 0l529 1321q-34 19 -54 52t-20 71q0 65 50 111.5t128 46.5q77 0 126.5 -48.5t49.5 -113.5q0 -77 -69 -119l581 -1321h-174l-199 455h-604l-180 -455h-164zM412 598h483l-254 582zM545 1446q0 -42 29.5 -74.5t70.5 -32.5q39 0 65.5 30.5t26.5 70.5q0 42 -27.5 71 t-68.5 29q-43 0 -69.5 -26.5t-26.5 -67.5z" />
<glyph unicode="&#xc6;" horiz-adv-x="1554" d="M-14 0l721 1352h725v-144h-486v-420h348v-143h-348v-502h527v-143h-680v455h-400l-239 -455h-168zM469 598h324v606z" />
<glyph unicode="&#xc7;" d="M117 662q0 147 43.5 273t126.5 222t213 150.5t293 54.5q109 0 220 -24t191 -64l-43 -148q-152 101 -381 101q-134 0 -230.5 -39t-153.5 -113t-83 -172t-26 -225q0 -280 123 -423.5t366 -143.5q124 0 233.5 35.5t178.5 91.5l41 -138q-198 -120 -436 -125l-50 -79 q33 8 68 8q71 0 116.5 -42t45.5 -106q0 -69 -64 -120.5t-159 -51.5q-101 0 -187 39l-2 12l27 48h14q69 -25 141 -25q109 0 109 82q0 94 -104 94q-47 0 -101 -14l-16 22l88 135q-150 8 -267 66.5t-189 152.5t-109 212.5t-37 253.5z" />
<glyph unicode="&#xc8;" horiz-adv-x="1069" d="M203 0v1352h741v-144h-588v-420h451v-143h-451v-502h629v-143h-782zM344 1667q0 30 19 49.5t53 20.5l370 -205l7 -14l-13 -41l-16 -7l-412 158q-8 19 -8 39z" />
<glyph unicode="&#xc9;" horiz-adv-x="1069" d="M203 0v1352h741v-144h-588v-420h451v-143h-451v-502h629v-143h-782zM365 1518l6 14l370 205q33 -1 52.5 -20.5t19.5 -49.5q0 -20 -8 -39l-414 -158l-14 7z" />
<glyph unicode="&#xca;" horiz-adv-x="1069" d="M203 0v1352h741v-144h-588v-420h451v-143h-451v-502h629v-143h-782zM348 1507l6 15l226 202h16l225 -202l6 -15l-12 -41l-14 -6l-213 127l-213 -127l-15 6z" />
<glyph unicode="&#xcb;" horiz-adv-x="1069" d="M203 0v1352h741v-144h-588v-420h451v-143h-451v-502h629v-143h-782zM324 1626q0 37 24.5 64.5t59.5 27.5q34 0 60 -27.5t26 -64.5q0 -38 -26 -64t-60 -26q-35 0 -59.5 26t-24.5 64zM645 1626q0 37 24.5 64.5t59.5 27.5q34 0 60 -27.5t26 -64.5q0 -38 -26 -64t-60 -26 q-35 0 -59.5 26t-24.5 64z" />
<glyph unicode="&#xcc;" horiz-adv-x="559" d="M31 1667q0 30 19 49.5t52 20.5l371 -205l6 -14l-12 -41l-14 -7l-414 158q-8 19 -8 39zM203 0v1352h153v-1352h-153z" />
<glyph unicode="&#xcd;" horiz-adv-x="559" d="M72 1518l6 14l371 205q34 -1 52.5 -20.5t18.5 -49.5q0 -20 -8 -39l-412 -158l-16 7zM203 0v1352h153v-1352h-153z" />
<glyph unicode="&#xce;" horiz-adv-x="559" d="M37 1507l6 15l225 202h15l227 -202l6 -15l-12 -41l-17 -6l-211 127l-213 -127l-16 6zM203 0v1352h153v-1352h-153z" />
<glyph unicode="&#xcf;" horiz-adv-x="559" d="M39 1626q0 37 24.5 64.5t59.5 27.5q34 0 60 -27.5t26 -64.5q0 -38 -26 -64t-60 -26q-35 0 -59.5 26t-24.5 64zM203 0v1352h153v-1352h-153zM360 1626q0 37 24.5 64.5t59.5 27.5q34 0 60 -27.5t26 -64.5q0 -38 -26 -64t-60 -26q-35 0 -59.5 26t-24.5 64z" />
<glyph unicode="&#xd0;" horiz-adv-x="1445" d="M29 668v90h178v594h10q323 10 436 10q143 0 263.5 -40.5t205.5 -113.5q104 -94 155.5 -235t51.5 -311q0 -112 -24.5 -213t-77 -188t-128.5 -150.5t-184.5 -99.5t-238.5 -36q-213 0 -469 25v668h-178zM360 123q129 -12 310 -12q243 0 366 143.5t123 423.5q0 127 -26 225 t-83 172t-153.5 113t-230.5 39q-177 0 -306 -6v-463h359v-90h-359v-545z" />
<glyph unicode="&#xd1;" horiz-adv-x="1441" d="M203 0v1352h174l708 -1112v1112h154v-1352h-174l-709 1110v-1110h-153zM375 1540q11 32 24 56.5t34 48.5t53.5 37.5t74.5 13.5q73 0 159.5 -14.5t133.5 -14.5q93 0 133 53l25 -16q-14 -65 -58.5 -111.5t-122.5 -46.5q-57 0 -167 14.5t-150 14.5q-47 0 -68.5 -11.5 t-44.5 -39.5z" />
<glyph unicode="&#xd2;" horiz-adv-x="1548" d="M115 659q0 147 44.5 274.5t126.5 223t208 150.5t280 55q155 0 282 -55.5t208.5 -150.5t125.5 -218.5t44 -263.5q0 -109 -26.5 -211t-82 -191t-134 -155t-189.5 -104t-242 -38q-158 0 -283 55t-203 150t-118.5 217t-40.5 262zM285 680q0 -280 123 -424.5t356 -144.5 q130 0 228 43t157 119.5t88 175.5t29 219q0 259 -124.5 409t-373.5 150q-128 0 -222.5 -39.5t-150.5 -113.5t-83 -172t-27 -222zM492 1667q0 30 18.5 49.5t52.5 20.5l369 -205l6 -14l-10 -41l-17 -7l-411 158q-8 19 -8 39z" />
<glyph unicode="&#xd3;" horiz-adv-x="1548" d="M115 659q0 147 44.5 274.5t126.5 223t208 150.5t280 55q155 0 282 -55.5t208.5 -150.5t125.5 -218.5t44 -263.5q0 -109 -26.5 -211t-82 -191t-134 -155t-189.5 -104t-242 -38q-158 0 -283 55t-203 150t-118.5 217t-40.5 262zM285 680q0 -280 123 -424.5t356 -144.5 q130 0 228 43t157 119.5t88 175.5t29 219q0 259 -124.5 409t-373.5 150q-128 0 -222.5 -39.5t-150.5 -113.5t-83 -172t-27 -222zM629 1518l6 14l369 205q34 -1 52.5 -20.5t18.5 -49.5q0 -18 -6 -39l-414 -158l-16 7z" />
<glyph unicode="&#xd4;" horiz-adv-x="1548" d="M115 659q0 147 44.5 274.5t126.5 223t208 150.5t280 55q155 0 282 -55.5t208.5 -150.5t125.5 -218.5t44 -263.5q0 -109 -26.5 -211t-82 -191t-134 -155t-189.5 -104t-242 -38q-158 0 -283 55t-203 150t-118.5 217t-40.5 262zM285 680q0 -280 123 -424.5t356 -144.5 q130 0 228 43t157 119.5t88 175.5t29 219q0 259 -124.5 409t-373.5 150q-128 0 -222.5 -39.5t-150.5 -113.5t-83 -172t-27 -222zM555 1507l6 15l225 202h17l225 -202l6 -15l-12 -41l-14 -6l-213 127l-213 -127l-15 6z" />
<glyph unicode="&#xd5;" horiz-adv-x="1548" d="M115 659q0 147 44.5 274.5t126.5 223t208 150.5t280 55q155 0 282 -55.5t208.5 -150.5t125.5 -218.5t44 -263.5q0 -109 -26.5 -211t-82 -191t-134 -155t-189.5 -104t-242 -38q-158 0 -283 55t-203 150t-118.5 217t-40.5 262zM285 680q0 -280 123 -424.5t356 -144.5 q130 0 228 43t157 119.5t88 175.5t29 219q0 259 -124.5 409t-373.5 150q-128 0 -222.5 -39.5t-150.5 -113.5t-83 -172t-27 -222zM459 1540q11 32 24 56.5t34 48.5t53.5 37.5t74.5 13.5q73 0 159.5 -14.5t133.5 -14.5q93 0 133 53l25 -16q-14 -65 -58.5 -111.5t-122.5 -46.5 q-57 0 -167 14.5t-150 14.5q-47 0 -68.5 -11.5t-44.5 -39.5z" />
<glyph unicode="&#xd6;" horiz-adv-x="1548" d="M115 659q0 147 44.5 274.5t126.5 223t208 150.5t280 55q155 0 282 -55.5t208.5 -150.5t125.5 -218.5t44 -263.5q0 -109 -26.5 -211t-82 -191t-134 -155t-189.5 -104t-242 -38q-158 0 -283 55t-203 150t-118.5 217t-40.5 262zM285 680q0 -280 123 -424.5t356 -144.5 q130 0 228 43t157 119.5t88 175.5t29 219q0 259 -124.5 409t-373.5 150q-128 0 -222.5 -39.5t-150.5 -113.5t-83 -172t-27 -222zM530 1626q0 37 24.5 64.5t59.5 27.5q34 0 60 -27.5t26 -64.5q0 -38 -26 -64t-60 -26q-35 0 -59.5 26t-24.5 64zM852 1626q0 37 24.5 64.5 t59.5 27.5q34 0 60 -27.5t26 -64.5q0 -38 -26 -64t-60 -26q-35 0 -59.5 26t-24.5 64z" />
<glyph unicode="&#xd7;" horiz-adv-x="937" d="M145 242l246 247l-246 246l76 76l246 -246l250 248l76 -76l-250 -248l250 -249l-76 -76l-250 250l-246 -248z" />
<glyph unicode="&#xd8;" horiz-adv-x="1548" d="M117 659q0 147 44.5 274.5t126.5 223t208 150.5t280 55q222 0 381 -111l133 156l105 -80l-138 -164q87 -95 133 -221t46 -268q0 -109 -26.5 -211t-82 -191t-134 -155t-189.5 -104t-242 -38q-241 0 -402 123l-143 -170l-98 88l147 174q-149 186 -149 469zM287 680 q0 -230 82 -367l700 832q-118 82 -299 82q-128 0 -222.5 -39.5t-150.5 -113.5t-83 -172t-27 -222zM455 209q116 -98 311 -98q130 0 228 43t157 119.5t88 175.5t29 219q0 238 -105 385z" />
<glyph unicode="&#xd9;" horiz-adv-x="1409" d="M188 455v897h154v-828q0 -413 367 -413q368 0 368 413v828h144v-897q0 -102 -31.5 -188t-93.5 -151.5t-161 -102t-226 -36.5q-139 0 -242 36.5t-163 102.5t-88 150.5t-28 188.5zM453 1667q0 30 18.5 49.5t52.5 20.5l371 -205l4 -14l-10 -41l-17 -7l-411 158q-8 19 -8 39z " />
<glyph unicode="&#xda;" horiz-adv-x="1409" d="M188 455v897h154v-828q0 -413 367 -413q368 0 368 413v828h144v-897q0 -102 -31.5 -188t-93.5 -151.5t-161 -102t-226 -36.5q-139 0 -242 36.5t-163 102.5t-88 150.5t-28 188.5zM510 1518l6 14l371 205q34 -1 52.5 -20.5t18.5 -49.5q0 -20 -8 -39l-411 -158l-17 7z" />
<glyph unicode="&#xdb;" horiz-adv-x="1409" d="M188 455v897h154v-828q0 -413 367 -413q368 0 368 413v828h144v-897q0 -102 -31.5 -188t-93.5 -151.5t-161 -102t-226 -36.5q-139 0 -242 36.5t-163 102.5t-88 150.5t-28 188.5zM459 1507l4 15l227 202h15l227 -202l4 -15l-10 -41l-17 -6l-211 127l-213 -127l-16 6z" />
<glyph unicode="&#xdc;" horiz-adv-x="1409" d="M188 455v897h154v-828q0 -413 367 -413q368 0 368 413v828h144v-897q0 -102 -31.5 -188t-93.5 -151.5t-161 -102t-226 -36.5q-139 0 -242 36.5t-163 102.5t-88 150.5t-28 188.5zM483 1626q0 37 24.5 64.5t59.5 27.5q34 0 60 -27.5t26 -64.5q0 -38 -26 -64t-60 -26 q-35 0 -59.5 26t-24.5 64zM805 1626q0 37 24.5 64.5t59.5 27.5q34 0 60 -27.5t26 -64.5q0 -38 -26 -64t-60 -26q-35 0 -59.5 26t-24.5 64z" />
<glyph unicode="&#xdd;" horiz-adv-x="1159" d="M-23 1352h183l428 -650l413 650h179l-523 -797v-555h-153v547zM440 1518l6 14l369 205q34 -1 53 -20.5t19 -49.5q0 -18 -6 -39l-414 -158l-16 7z" />
<glyph unicode="&#xde;" horiz-adv-x="1062" d="M203 0v1352h143v-260q106 4 150 4q224 0 352.5 -107t128.5 -303q0 -86 -26.5 -157t-81 -127t-147 -87.5t-216.5 -31.5q-81 0 -160 6v-289h-143zM346 426q68 -8 152 -8q158 0 233.5 68.5t75.5 211.5q0 130 -70 196.5t-237 66.5q-26 0 -154 -5v-530z" />
<glyph unicode="&#xdf;" horiz-adv-x="1114" d="M160 0v995q0 237 97 374.5t282 137.5q146 0 238.5 -82t92.5 -194q0 -62 -32.5 -127.5t-71.5 -111.5t-71.5 -99.5t-32.5 -93.5q0 -34 21 -64.5t55 -56t75 -52.5t82.5 -59.5t75.5 -70.5t55 -93t21 -120q0 -79 -31 -141.5t-79.5 -97t-99.5 -52t-100 -17.5q-120 0 -219 91 l41 145q30 -60 83 -94.5t110 -34.5q63 0 103 46t40 132q0 59 -20.5 106t-53 79t-71.5 59.5t-78.5 54t-72 56t-53 72.5t-20.5 97q0 52 19.5 102.5t48 90t56.5 77.5t47.5 81.5t19.5 85.5q0 69 -49 115t-138 46q-71 0 -118.5 -31t-70 -90t-30.5 -120t-8 -146v-995h-143z" />
<glyph unicode="&#xe0;" horiz-adv-x="1019" d="M82 252q0 65 21 117.5t55 88t82.5 62t96.5 41t105.5 23.5t101.5 11.5t91 2.5h92v25q0 73 -21 115.5t-63 72.5q-35 23 -75 32t-105 9q-142 0 -279 -82l-32 123q139 80 327 80q167 0 262 -60q129 -81 129 -272v-641h-112l-17 168h-8q-51 -79 -159.5 -136t-221.5 -57 q-129 0 -199.5 77t-70.5 200zM215 1321q0 30 19 50.5t53 21.5l368 -207l7 -15l-11 -41l-16 -6l-414 158q-6 21 -6 39zM233 260q0 -78 43.5 -121t118.5 -43q88 0 182 55.5t150 151.5v191h-18q-54 0 -96.5 -1.5t-94 -7.5t-90 -16t-77 -27.5t-63 -41.5t-40 -60t-15.5 -80z" />
<glyph unicode="&#xe1;" horiz-adv-x="1019" d="M82 252q0 65 21 117.5t55 88t82.5 62t96.5 41t105.5 23.5t101.5 11.5t91 2.5h92v25q0 73 -21 115.5t-63 72.5q-35 23 -75 32t-105 9q-142 0 -279 -82l-32 123q139 80 327 80q167 0 262 -60q129 -81 129 -272v-641h-112l-17 168h-8q-51 -79 -159.5 -136t-221.5 -57 q-129 0 -199.5 77t-70.5 200zM233 260q0 -78 43.5 -121t118.5 -43q88 0 182 55.5t150 151.5v191h-18q-54 0 -96.5 -1.5t-94 -7.5t-90 -16t-77 -27.5t-63 -41.5t-40 -60t-15.5 -80zM367 1171l6 15l368 207q34 -1 54 -21.5t20 -50.5q0 -20 -8 -39l-414 -158l-14 6z" />
<glyph unicode="&#xe2;" horiz-adv-x="1019" d="M82 252q0 65 21 117.5t55 88t82.5 62t96.5 41t105.5 23.5t101.5 11.5t91 2.5h92v25q0 73 -21 115.5t-63 72.5q-35 23 -75 32t-105 9q-142 0 -279 -82l-32 123q139 80 327 80q167 0 262 -60q129 -81 129 -272v-641h-112l-17 168h-8q-51 -79 -159.5 -136t-221.5 -57 q-129 0 -199.5 77t-70.5 200zM233 260q0 -78 43.5 -121t118.5 -43q88 0 182 55.5t150 151.5v191h-18q-54 0 -96.5 -1.5t-94 -7.5t-90 -16t-77 -27.5t-63 -41.5t-40 -60t-15.5 -80zM252 1161l6 15l225 202h17l225 -202l6 -15l-12 -39l-14 -6l-213 125l-211 -125l-17 6z" />
<glyph unicode="&#xe3;" horiz-adv-x="1019" d="M82 252q0 65 21 117.5t55 88t82.5 62t96.5 41t105.5 23.5t101.5 11.5t91 2.5h92v25q0 73 -21 115.5t-63 72.5q-35 23 -75 32t-105 9q-142 0 -279 -82l-32 123q139 80 327 80q167 0 262 -60q129 -81 129 -272v-641h-112l-17 168h-8q-51 -79 -159.5 -136t-221.5 -57 q-129 0 -199.5 77t-70.5 200zM182 1194q0 41 54.5 98.5t132.5 57.5q29 0 134 -9.5t171 -9.5q93 0 133 53l24 -16q0 -9 -10.5 -32t-30.5 -52.5t-57 -51.5t-82 -22q-25 0 -153.5 9.5t-175.5 9.5t-68.5 -11.5t-44.5 -39.5zM233 260q0 -78 43.5 -121t118.5 -43q88 0 182 55.5 t150 151.5v191h-18q-54 0 -96.5 -1.5t-94 -7.5t-90 -16t-77 -27.5t-63 -41.5t-40 -60t-15.5 -80z" />
<glyph unicode="&#xe4;" horiz-adv-x="1019" d="M82 252q0 65 21 117.5t55 88t82.5 62t96.5 41t105.5 23.5t101.5 11.5t91 2.5h92v25q0 73 -21 115.5t-63 72.5q-35 23 -75 32t-105 9q-142 0 -279 -82l-32 123q139 80 327 80q167 0 262 -60q129 -81 129 -272v-641h-112l-17 168h-8q-51 -79 -159.5 -136t-221.5 -57 q-129 0 -199.5 77t-70.5 200zM233 260q0 -78 43.5 -121t118.5 -43q88 0 182 55.5t150 151.5v191h-18q-54 0 -96.5 -1.5t-94 -7.5t-90 -16t-77 -27.5t-63 -41.5t-40 -60t-15.5 -80zM266 1282q0 37 24.5 64.5t59.5 27.5q33 0 58.5 -28t25.5 -64q0 -37 -25.5 -63.5t-58.5 -26.5 q-35 0 -59.5 26t-24.5 64zM588 1282q0 37 24 64.5t58 27.5t60 -27.5t26 -64.5q0 -38 -26 -64t-60 -26t-58 26t-24 64z" />
<glyph unicode="&#xe5;" horiz-adv-x="1019" d="M82 252q0 65 21 117.5t55 88t82.5 62t96.5 41t105.5 23.5t101.5 11.5t91 2.5h92v25q0 73 -21 115.5t-63 72.5q-35 23 -75 32t-105 9q-142 0 -279 -82l-32 123q139 80 327 80q167 0 262 -60q129 -81 129 -272v-641h-112l-17 168h-8q-51 -79 -159.5 -136t-221.5 -57 q-129 0 -199.5 77t-70.5 200zM233 260q0 -78 43.5 -121t118.5 -43q88 0 182 55.5t150 151.5v191h-18q-54 0 -96.5 -1.5t-94 -7.5t-90 -16t-77 -27.5t-63 -41.5t-40 -60t-15.5 -80zM352 1249q0 60 46.5 105t121.5 45q76 0 123 -46.5t47 -107.5q0 -58 -45 -100.5t-123 -42.5 q-81 0 -125.5 44.5t-44.5 102.5zM428 1251q0 -38 27 -69t67 -31q39 0 64.5 29t25.5 65q0 39 -26.5 72t-67.5 33q-40 0 -65 -30.5t-25 -68.5z" />
<glyph unicode="&#xe6;" horiz-adv-x="1677" d="M82 252q0 65 21 117.5t55 88t82.5 62t96.5 41t105.5 23.5t101.5 11.5t91 2.5h92v25q0 73 -21 115.5t-63 72.5q-35 23 -75 32t-105 9q-142 0 -279 -82l-32 123q139 80 327 80q167 0 262 -60q63 -44 84 -102h9q61 72 158 117t210 45q180 0 278.5 -91t98.5 -257 q0 -89 -18 -123h-691v-37q2 -105 38 -189t113 -138t183 -54q90 0 177 32.5t153 78.5l27 -109q-178 -111 -373 -111q-132 0 -232 54.5t-161 150.5h-9q-77 -106 -192 -155.5t-242 -49.5q-129 0 -199.5 77t-70.5 200zM233 260q0 -78 43.5 -121t118.5 -43q88 0 182 55.5 t150 151.5v191h-18q-54 0 -96.5 -1.5t-94 -7.5t-90 -16t-77 -27.5t-63 -41.5t-40 -60t-15.5 -80zM885 610h559q2 12 2 37q0 99 -72.5 155t-177.5 56q-127 0 -205 -67.5t-106 -180.5z" />
<glyph unicode="&#xe7;" horiz-adv-x="1024" d="M100 479q0 101 29 188t86 156.5t153 109.5t220 40q97 0 192 -22.5t152 -59.5l-35 -121q-47 37 -136.5 63.5t-174.5 26.5q-86 0 -152 -30t-105 -82t-58 -116.5t-19 -139.5q0 -170 92.5 -287t255.5 -117q83 0 168 32t141 85l33 -127q-60 -39 -153.5 -69t-192.5 -34l-49 -79 q33 8 67 8q71 0 116.5 -42t45.5 -106q0 -69 -64 -120.5t-159 -51.5q-100 0 -186 39l-2 12l26 48h15q69 -25 141 -25q108 0 108 82q0 94 -104 94q-46 0 -100 -14l-17 22l88 135q-203 17 -312.5 158t-109.5 344z" />
<glyph unicode="&#xe8;" horiz-adv-x="1056" d="M96 471q0 137 55 249.5t167.5 182.5t263.5 70q180 0 278 -91t98 -257q0 -89 -18 -123h-690v-21q0 -108 35 -196t112.5 -144.5t186.5 -56.5q90 0 176 32.5t153 78.5l27 -109q-178 -111 -373 -111q-111 0 -201.5 40t-148.5 109t-89.5 158t-31.5 189zM264 610h559q2 12 2 37 q0 99 -72.5 155t-177.5 56q-127 0 -205 -67.5t-106 -180.5zM283 1321q0 30 18.5 50.5t52.5 21.5l369 -207l6 -15l-10 -41l-17 -6l-413 158q-6 21 -6 39z" />
<glyph unicode="&#xe9;" horiz-adv-x="1056" d="M96 471q0 137 55 249.5t167.5 182.5t263.5 70q180 0 278 -91t98 -257q0 -89 -18 -123h-690v-21q0 -108 35 -196t112.5 -144.5t186.5 -56.5q90 0 176 32.5t153 78.5l27 -109q-178 -111 -373 -111q-111 0 -201.5 40t-148.5 109t-89.5 158t-31.5 189zM264 610h559q2 12 2 37 q0 99 -72.5 155t-177.5 56q-127 0 -205 -67.5t-106 -180.5zM395 1171l6 15l369 207q34 -1 53 -21.5t19 -50.5q0 -25 -6 -39l-414 -158l-14 6z" />
<glyph unicode="&#xea;" horiz-adv-x="1056" d="M96 471q0 137 55 249.5t167.5 182.5t263.5 70q180 0 278 -91t98 -257q0 -89 -18 -123h-690v-21q0 -108 35 -196t112.5 -144.5t186.5 -56.5q90 0 176 32.5t153 78.5l27 -109q-178 -111 -373 -111q-111 0 -201.5 40t-148.5 109t-89.5 158t-31.5 189zM264 610h559q2 12 2 37 q0 99 -72.5 155t-177.5 56q-127 0 -205 -67.5t-106 -180.5zM317 1161l5 15l227 202h14l228 -202l4 -15l-11 -39l-16 -6l-211 125l-213 -125l-16 6z" />
<glyph unicode="&#xeb;" horiz-adv-x="1056" d="M96 471q0 137 55 249.5t167.5 182.5t263.5 70q180 0 278 -91t98 -257q0 -89 -18 -123h-690v-21q0 -108 35 -196t112.5 -144.5t186.5 -56.5q90 0 176 32.5t153 78.5l27 -109q-178 -111 -373 -111q-111 0 -201.5 40t-148.5 109t-89.5 158t-31.5 189zM264 610h559q2 12 2 37 q0 99 -72.5 155t-177.5 56q-127 0 -205 -67.5t-106 -180.5zM305 1282q0 37 24.5 64.5t59.5 27.5q34 0 60 -27.5t26 -64.5q0 -38 -26 -64t-60 -26q-35 0 -59.5 26t-24.5 64zM627 1282q0 37 24.5 64.5t59.5 27.5q34 0 60 -27.5t26 -64.5q0 -38 -26 -64t-60 -26q-35 0 -59.5 26 t-24.5 64z" />
<glyph unicode="&#xec;" horiz-adv-x="462" d="M-70 1321q0 30 19 50.5t53 21.5l371 -207l6 -15l-12 -41l-17 -6l-411 158q-9 21 -9 39zM160 0v942h143v-942h-143z" />
<glyph unicode="&#xed;" horiz-adv-x="462" d="M31 1171l6 15l369 207q34 -1 53.5 -21.5t19.5 -50.5q0 -20 -8 -39l-414 -158l-14 6zM160 0v942h143v-942h-143z" />
<glyph unicode="&#xee;" horiz-adv-x="462" d="M-14 1161l6 15l225 202h16l226 -202l6 -15l-12 -39l-15 -6l-213 125l-211 -125l-16 6zM160 0v942h143v-942h-143z" />
<glyph unicode="&#xef;" horiz-adv-x="462" d="M-16 1282q0 37 24.5 64.5t59.5 27.5q34 0 60 -27.5t26 -64.5q0 -38 -26 -64t-60 -26q-35 0 -59.5 26t-24.5 64zM160 0v942h143v-942h-143zM305 1282q0 37 24.5 64.5t59.5 27.5q34 0 60 -27.5t26 -64.5q0 -38 -26 -64t-60 -26q-35 0 -59.5 26t-24.5 64z" />
<glyph unicode="&#xf0;" horiz-adv-x="1155" d="M98 481q0 101 28.5 188t85 156t149.5 108.5t214 39.5q253 0 330 -162l6 2q-56 247 -123 387l-256 -65l-34 94l241 63q-68 108 -184 224h150q82 -73 151 -193l240 63l37 -98l-230 -59q64 -138 100.5 -304t36.5 -333q0 -100 -13 -186t-46.5 -167.5t-85.5 -138t-134.5 -91 t-189.5 -34.5q-98 0 -178.5 28.5t-134.5 76.5t-90.5 113.5t-53 137.5t-16.5 150zM252 485q0 -79 19 -149.5t56.5 -127.5t100 -90.5t143.5 -33.5t144.5 33.5t102 90.5t58 128.5t19.5 152.5q0 178 -89.5 274.5t-238.5 96.5q-83 0 -145.5 -31t-98.5 -84.5t-53.5 -119 t-17.5 -140.5z" />
<glyph unicode="&#xf1;" horiz-adv-x="1116" d="M160 0v942h112l17 -176h8q27 89 121.5 148t226.5 59q143 0 231.5 -79t88.5 -253v-641h-144v623q0 119 -52 174t-144 55q-106 0 -196 -66.5t-126 -181.5v-604h-143zM246 1194q11 32 24 56.5t34 48.5t53.5 37.5t74.5 13.5q73 0 159.5 -14.5t133.5 -14.5q93 0 133 53l25 -16 q-14 -65 -58.5 -111.5t-122.5 -46.5q-57 0 -167 14.5t-150 14.5q-47 0 -68.5 -11.5t-44.5 -39.5z" />
<glyph unicode="&#xf2;" horiz-adv-x="1148" d="M98 475q0 102 29.5 190.5t86 158t149 109.5t210.5 40q97 0 177 -27.5t135 -74.5t93 -112t55.5 -139t17.5 -155q0 -102 -28.5 -189t-84 -155t-147 -107t-209.5 -39q-121 0 -215 40.5t-152 110.5t-87.5 158.5t-29.5 190.5zM250 481q0 -80 20 -150t59 -126t103.5 -88.5 t147.5 -32.5q106 0 180 53.5t106.5 137t32.5 188.5q0 80 -20 149.5t-59.5 125t-104.5 88t-148 32.5q-106 0 -179.5 -53t-105.5 -135.5t-32 -188.5zM279 1321q0 30 19 50.5t52 21.5l371 -207l6 -15l-12 -41l-15 -6l-413 158q-8 19 -8 39z" />
<glyph unicode="&#xf3;" horiz-adv-x="1148" d="M98 475q0 102 29.5 190.5t86 158t149 109.5t210.5 40q97 0 177 -27.5t135 -74.5t93 -112t55.5 -139t17.5 -155q0 -102 -28.5 -189t-84 -155t-147 -107t-209.5 -39q-121 0 -215 40.5t-152 110.5t-87.5 158.5t-29.5 190.5zM250 481q0 -80 20 -150t59 -126t103.5 -88.5 t147.5 -32.5q106 0 180 53.5t106.5 137t32.5 188.5q0 80 -20 149.5t-59.5 125t-104.5 88t-148 32.5q-106 0 -179.5 -53t-105.5 -135.5t-32 -188.5zM410 1171l6 15l368 207q34 -1 54 -21.5t20 -50.5q0 -20 -8 -39l-414 -158l-14 6z" />
<glyph unicode="&#xf4;" horiz-adv-x="1148" d="M98 475q0 102 29.5 190.5t86 158t149 109.5t210.5 40q97 0 177 -27.5t135 -74.5t93 -112t55.5 -139t17.5 -155q0 -102 -28.5 -189t-84 -155t-147 -107t-209.5 -39q-121 0 -215 40.5t-152 110.5t-87.5 158.5t-29.5 190.5zM250 481q0 -80 20 -150t59 -126t103.5 -88.5 t147.5 -32.5q106 0 180 53.5t106.5 137t32.5 188.5q0 80 -20 149.5t-59.5 125t-104.5 88t-148 32.5q-106 0 -179.5 -53t-105.5 -135.5t-32 -188.5zM350 1161l6 15l228 202h14l225 -202l6 -15l-10 -39l-16 -6l-213 125l-211 -125l-17 6z" />
<glyph unicode="&#xf5;" horiz-adv-x="1148" d="M98 475q0 102 29.5 190.5t86 158t149 109.5t210.5 40q97 0 177 -27.5t135 -74.5t93 -112t55.5 -139t17.5 -155q0 -102 -28.5 -189t-84 -155t-147 -107t-209.5 -39q-121 0 -215 40.5t-152 110.5t-87.5 158.5t-29.5 190.5zM238 1194q11 32 24 56.5t34 48.5t53.5 37.5 t74.5 13.5q73 0 159.5 -14.5t133.5 -14.5q93 0 133 53l24 -16q-14 -65 -58.5 -111.5t-121.5 -46.5q-57 0 -167 14.5t-150 14.5q-47 0 -68.5 -11.5t-44.5 -39.5zM250 481q0 -80 20 -150t59 -126t103.5 -88.5t147.5 -32.5q106 0 180 53.5t106.5 137t32.5 188.5q0 80 -20 149.5 t-59.5 125t-104.5 88t-148 32.5q-106 0 -179.5 -53t-105.5 -135.5t-32 -188.5z" />
<glyph unicode="&#xf6;" horiz-adv-x="1148" d="M98 475q0 102 29.5 190.5t86 158t149 109.5t210.5 40q97 0 177 -27.5t135 -74.5t93 -112t55.5 -139t17.5 -155q0 -102 -28.5 -189t-84 -155t-147 -107t-209.5 -39q-121 0 -215 40.5t-152 110.5t-87.5 158.5t-29.5 190.5zM250 481q0 -80 20 -150t59 -126t103.5 -88.5 t147.5 -32.5q106 0 180 53.5t106.5 137t32.5 188.5q0 80 -20 149.5t-59.5 125t-104.5 88t-148 32.5q-106 0 -179.5 -53t-105.5 -135.5t-32 -188.5zM330 1282q0 37 24.5 64.5t59.5 27.5q34 0 60 -27.5t26 -64.5q0 -38 -26 -64t-60 -26q-35 0 -59.5 26t-24.5 64zM651 1282 q0 37 24.5 64.5t59.5 27.5q34 0 60 -27.5t26 -64.5q0 -38 -26 -64t-60 -26q-35 0 -59.5 26t-24.5 64z" />
<glyph unicode="&#xf7;" horiz-adv-x="1159" d="M158 436v107h848v-107h-848zM508 164q0 39 28.5 67.5t67.5 28.5q37 0 66.5 -29t29.5 -67q0 -39 -29.5 -67.5t-66.5 -28.5q-40 0 -68 28t-28 68zM508 813q0 39 28.5 68.5t67.5 29.5q37 0 66.5 -30t29.5 -68t-29.5 -66t-66.5 -28q-40 0 -68 28t-28 66z" />
<glyph unicode="&#xf8;" horiz-adv-x="1148" d="M84 16l115 129q-101 134 -101 330q0 102 29.5 190.5t86 158t149 109.5t210.5 40q163 0 281 -80l104 119l105 -80l-115 -129q103 -135 103 -338q0 -102 -28.5 -189t-84 -155t-147 -107t-209.5 -39q-173 0 -289 80l-111 -127zM250 481q0 -129 47 -223l469 535 q-81 65 -199 65q-106 0 -179.5 -53t-105.5 -135.5t-32 -188.5zM379 152q81 -68 201 -68q106 0 180 53.5t106.5 137t32.5 188.5q0 127 -49 225z" />
<glyph unicode="&#xf9;" horiz-adv-x="1114" d="M150 301v641h143v-623q0 -223 196 -223q107 0 197 64t125 178v604h143v-942h-112l-17 176h-8q-27 -89 -121 -145t-227 -56q-69 0 -124 16.5t-100 53t-70 101.5t-25 155zM262 1321q0 30 19 50.5t53 21.5l368 -207l7 -15l-11 -41l-16 -6l-412 158q-8 19 -8 39z" />
<glyph unicode="&#xfa;" horiz-adv-x="1114" d="M150 301v641h143v-623q0 -223 196 -223q107 0 197 64t125 178v604h143v-942h-112l-17 176h-8q-27 -89 -121 -145t-227 -56q-69 0 -124 16.5t-100 53t-70 101.5t-25 155zM340 1171l6 15l369 207q34 -1 52.5 -21.5t18.5 -50.5q0 -18 -6 -39l-413 -158l-17 6z" />
<glyph unicode="&#xfb;" horiz-adv-x="1114" d="M150 301v641h143v-623q0 -223 196 -223q107 0 197 64t125 178v604h143v-942h-112l-17 176h-8q-27 -89 -121 -145t-227 -56q-69 0 -124 16.5t-100 53t-70 101.5t-25 155zM307 1161l4 15l228 202h14l227 -202l4 -15l-10 -39l-16 -6l-213 125l-211 -125l-17 6z" />
<glyph unicode="&#xfc;" horiz-adv-x="1114" d="M150 301v641h143v-623q0 -223 196 -223q107 0 197 64t125 178v604h143v-942h-112l-17 176h-8q-27 -89 -121 -145t-227 -56q-69 0 -124 16.5t-100 53t-70 101.5t-25 155zM299 1282q0 37 24.5 64.5t59.5 27.5q34 0 60 -27.5t26 -64.5q0 -38 -26 -64t-60 -26q-35 0 -59.5 26 t-24.5 64zM621 1282q0 37 24.5 64.5t59.5 27.5q34 0 60 -27.5t26 -64.5q0 -38 -26 -64t-60 -26q-35 0 -59.5 26t-24.5 64z" />
<glyph unicode="&#xfd;" horiz-adv-x="1062" d="M-4 942h170l375 -784l336 784h161l-432 -950q-83 -182 -137 -266q-159 -250 -358 -250q-25 0 -43 6l-27 135q24 -6 43 -6q89 0 147 41q133 94 236 379zM391 1171l6 15l369 207q34 -1 53 -21.5t19 -50.5q0 -23 -7 -39l-413 -158l-15 6z" />
<glyph unicode="&#xfe;" horiz-adv-x="1177" d="M160 -532v2048h143v-750q50 82 146.5 144.5t216.5 62.5q101 0 181.5 -40.5t130 -109.5t75.5 -157t26 -187q0 -103 -27.5 -193t-80.5 -160t-137.5 -110.5t-190.5 -40.5q-132 0 -222.5 58t-117.5 149v-714h-143zM303 344q36 -113 132 -180.5t206 -67.5q137 0 212 105 t75 268q0 104 -30 188t-99.5 139.5t-169.5 55.5q-99 0 -184 -54t-142 -153v-301z" />
<glyph unicode="&#xff;" horiz-adv-x="1062" d="M-4 942h170l375 -784l336 784h161l-432 -950q-83 -182 -137 -266q-159 -250 -358 -250q-25 0 -43 6l-27 135q24 -6 43 -6q89 0 147 41q133 94 236 379zM272 1282q0 37 24.5 64.5t59.5 27.5q34 0 60 -27.5t26 -64.5q0 -38 -26 -64t-60 -26q-35 0 -59.5 26t-24.5 64z M594 1282q0 37 24.5 64.5t59.5 27.5q34 0 60 -27.5t26 -64.5q0 -38 -26 -64t-60 -26q-35 0 -59.5 26t-24.5 64z" />
<glyph unicode="&#x152;" horiz-adv-x="1748" d="M115 659q0 147 44.5 274.5t126.5 223t208 150.5t280 55q70 0 148 -10h702v-144h-549v-420h412v-143h-412v-502h590v-143h-709q-92 -25 -196 -25q-158 0 -283 55t-203 150t-118.5 217t-40.5 262zM285 680q0 -280 123 -424.5t356 -144.5q88 0 158 18v1079q-74 19 -154 19 q-128 0 -222.5 -39.5t-150.5 -113.5t-83 -172t-27 -222z" />
<glyph unicode="&#x153;" horiz-adv-x="1867" d="M98 473q0 102 29.5 190.5t86 158t149 109.5t210.5 40q278 0 404 -219q61 102 167.5 160.5t248.5 58.5q180 0 278 -91t98 -257q0 -89 -18 -123h-690v-21q0 -108 35 -196t112.5 -144.5t186.5 -56.5q90 0 176 32.5t153 78.5l27 -109q-178 -111 -373 -111q-134 0 -237 56 t-162 153q-120 -209 -397 -209q-121 0 -215 40.5t-152 110.5t-87.5 158.5t-29.5 190.5zM250 479q0 -80 20 -150t59 -126t103.5 -88.5t147.5 -32.5q106 0 180 53.5t106.5 137t32.5 188.5q0 80 -20 149.5t-59.5 125t-104.5 88t-148 32.5q-106 0 -179.5 -53t-105.5 -135.5 t-32 -188.5zM1075 608h559q2 12 2 37q0 99 -72.5 155t-177.5 56q-127 0 -205 -67.5t-106 -180.5z" />
<glyph unicode="&#x178;" horiz-adv-x="1159" d="M-23 1352h183l428 -650l413 650h179l-523 -797v-555h-153v547zM342 1626q0 37 24.5 64.5t59.5 27.5q33 0 58.5 -28t25.5 -64q0 -37 -25.5 -63.5t-58.5 -26.5q-35 0 -59.5 26t-24.5 64zM664 1626q0 37 24 64.5t57 27.5q34 0 60 -27.5t26 -64.5q0 -38 -26 -64t-60 -26 t-57.5 26t-23.5 64z" />
<glyph unicode="&#x2c6;" horiz-adv-x="479" d="M0 1161l6 15l225 202h17l225 -202l6 -15l-12 -39l-14 -6l-213 125l-213 -125l-15 6z" />
<glyph unicode="&#x2dc;" horiz-adv-x="636" d="M0 1194q11 32 24 56.5t34 48.5t53.5 37.5t74.5 13.5q73 0 159.5 -14.5t133.5 -14.5q93 0 133 53l25 -16q-14 -65 -58.5 -111.5t-121.5 -46.5q-57 0 -167.5 14.5t-150.5 14.5q-47 0 -68 -11t-44 -40z" />
<glyph unicode="&#x2000;" horiz-adv-x="868" />
<glyph unicode="&#x2001;" horiz-adv-x="1737" />
<glyph unicode="&#x2002;" horiz-adv-x="868" />
<glyph unicode="&#x2003;" horiz-adv-x="1737" />
<glyph unicode="&#x2004;" horiz-adv-x="579" />
<glyph unicode="&#x2005;" horiz-adv-x="434" />
<glyph unicode="&#x2006;" horiz-adv-x="289" />
<glyph unicode="&#x2007;" horiz-adv-x="289" />
<glyph unicode="&#x2008;" horiz-adv-x="217" />
<glyph unicode="&#x2009;" horiz-adv-x="347" />
<glyph unicode="&#x200a;" horiz-adv-x="96" />
<glyph unicode="&#x2010;" horiz-adv-x="995" d="M152 436v107h692v-107h-692z" />
<glyph unicode="&#x2011;" horiz-adv-x="995" d="M152 436v107h692v-107h-692z" />
<glyph unicode="&#x2012;" horiz-adv-x="995" d="M152 436v107h692v-107h-692z" />
<glyph unicode="&#x2013;" horiz-adv-x="1150" d="M152 436v107h847v-107h-847z" />
<glyph unicode="&#x2014;" horiz-adv-x="1617" d="M152 436v107h1314v-107h-1314z" />
<glyph unicode="&#x2018;" horiz-adv-x="460" d="M150 1130v216l149 157l41 -39l-80 -149h51v-185h-161z" />
<glyph unicode="&#x2019;" horiz-adv-x="419" d="M127 1169l80 150h-51v184h161v-215l-149 -158z" />
<glyph unicode="&#x201a;" horiz-adv-x="497" d="M139 -160l80 150h-51v184h162v-215l-150 -158z" />
<glyph unicode="&#x201c;" horiz-adv-x="768" d="M150 1130v216l149 157l41 -39l-80 -149h51v-185h-161zM457 1130v216l149 157l41 -39l-80 -149h51v-185h-161z" />
<glyph unicode="&#x201d;" horiz-adv-x="727" d="M127 1169l80 150h-51v184h161v-215l-149 -158zM434 1169l80 150h-51v184h162v-215l-150 -158z" />
<glyph unicode="&#x201e;" horiz-adv-x="827" d="M139 -160l80 150h-51v184h162v-215l-150 -158zM469 -160l80 150h-51v184h161v-215l-149 -158z" />
<glyph unicode="&#x2022;" horiz-adv-x="671" d="M197 498q0 56 40.5 98.5t98.5 42.5q54 0 96.5 -43t42.5 -98q0 -57 -42 -97.5t-97 -40.5q-59 0 -99 40t-40 98z" />
<glyph unicode="&#x2026;" horiz-adv-x="1255" d="M145 72q0 39 28 68.5t67 29.5q38 0 68 -30t30 -68t-29.5 -66.5t-68.5 -28.5t-67 28t-28 67zM532 72q0 39 28.5 68.5t66.5 29.5t68 -30t30 -68t-29.5 -66.5t-68.5 -28.5q-38 0 -66.5 28.5t-28.5 66.5zM920 72q0 39 28 68.5t66 29.5t68 -30t30 -68t-29.5 -66.5t-68.5 -28.5 q-38 0 -66 28.5t-28 66.5z" />
<glyph unicode="&#x202f;" horiz-adv-x="347" />
<glyph unicode="&#x2039;" horiz-adv-x="659" d="M106 487v11l275 362h162l-295 -362v-11l295 -362h-164z" />
<glyph unicode="&#x203a;" horiz-adv-x="659" d="M117 125l295 362v11l-295 362h162l274 -362v-11l-272 -362h-164z" />
<glyph unicode="&#x205f;" horiz-adv-x="434" />
<glyph unicode="&#x20ac;" horiz-adv-x="1275" d="M86 522v107h156q0 79 2 108h-158v107h172q20 114 65 207.5t113 163.5t163 108.5t208 38.5q92 0 188 -24t162 -64l-43 -148q-131 101 -319 101q-322 0 -373 -383h522v-107h-532v-108h532v-107h-524q26 -204 120 -307.5t251 -103.5q106 0 198 35t152 92l41 -138 q-182 -125 -398 -125q-118 0 -213.5 42t-160.5 117t-105 172.5t-55 215.5h-164z" />
<glyph unicode="&#x2122;" horiz-adv-x="1415" d="M131 1257v80h440v-80h-172v-501h-96v501h-172zM647 756v581h98l201 -495l199 495h96v-581h-80v428l-172 -428h-92l-172 430v-430h-78z" />
<glyph unicode="&#x25fc;" horiz-adv-x="942" d="M0 0v942h942v-942h-942z" />
</font>
</defs>
</svg>
