<?xml version="1.0" standalone="no"?>
<!DOCTYPE svg PUBLIC "-//W3C//DTD SVG 1.1//EN" "http://www.w3.org/Graphics/SVG/1.1/DTD/svg11.dtd" >
<svg xmlns="http://www.w3.org/2000/svg">
<metadata></metadata>
<defs>
<font id="quattrocento_sansbold" horiz-adv-x="1103" >
<font-face units-per-em="2048" ascent="1638" descent="-410" />
<missing-glyph horiz-adv-x="501" />
<glyph unicode="&#xfb01;" horiz-adv-x="1075" d="M70 805v117l116 18q0 371 86 485q74 101 254 101q178 0 330 -103l-92 -166q-9 6 -36 23.5t-40 25.5t-38.5 21.5t-44 19.5t-44 11.5t-51.5 5.5q-37 0 -57 -24t-30.5 -86.5t-10.5 -176.5v-135h180v-137h-180v-805h-226v805h-116zM711 0v942h225v-942h-225z" />
<glyph unicode="&#xfb02;" horiz-adv-x="1097" d="M70 805v117l116 18q0 371 86 485q74 101 254 101q59 0 150.5 -14.5t179.5 -45.5l88 50v-1516h-225v1319q-119 45 -209 45q-37 0 -57 -24t-30.5 -86.5t-10.5 -176.5v-135h180v-137h-180v-805h-226v805h-116z" />
<glyph horiz-adv-x="0" />
<glyph horiz-adv-x="682" />
<glyph horiz-adv-x="0" />
<glyph horiz-adv-x="0" />
<glyph unicode="&#xd;" horiz-adv-x="501" />
<glyph unicode=" "  horiz-adv-x="501" />
<glyph unicode="&#x09;" horiz-adv-x="501" />
<glyph unicode="&#xa0;" horiz-adv-x="501" />
<glyph unicode="!" horiz-adv-x="552" d="M127 121q0 57 42.5 99t102.5 42q59 0 104.5 -42.5t45.5 -100.5t-46.5 -101t-105.5 -43q-58 0 -100.5 43.5t-42.5 102.5zM137 1397h281l-53 -1028h-179z" />
<glyph unicode="&#x22;" horiz-adv-x="770" d="M102 1499h248l-49 -442h-156zM424 1499h248l-49 -442h-156z" />
<glyph unicode="#" horiz-adv-x="1263" d="M74 424l35 170h198l39 182h-209l33 168h213l84 395h213l-84 -395h176l84 395h213l-84 -395h207l-33 -168h-211l-39 -182h221l-34 -170h-222l-90 -424h-213l91 424h-177l-90 -424h-213l90 424h-198zM520 594h176l39 182h-176z" />
<glyph unicode="$" horiz-adv-x="1060" d="M74 88l59 211q143 -113 328 -127v428q-40 14 -69 25t-68 31t-66.5 40.5t-57 52.5t-48 68t-30 85t-11.5 106q0 169 94 253t256 97v178h164v-180q159 -14 288 -72l-55 -217q-96 63 -233 90v-356q62 -24 107.5 -46.5t96 -60t82.5 -80t53 -105.5t21 -138q0 -90 -28 -160.5 t-78.5 -116t-113.5 -72.5t-140 -38v-181h-164v174q-213 11 -387 111zM328 1024q0 -57 33 -93.5t100 -66.5v297q-133 -23 -133 -137zM625 186q135 37 135 160q0 116 -135 189v-349z" />
<glyph unicode="%" horiz-adv-x="1716" d="M74 977q0 166 87 275.5t234 109.5t234.5 -109t87.5 -268q0 -102 -37.5 -187.5t-114 -140.5t-178.5 -55q-100 0 -172.5 52t-106.5 135.5t-34 187.5zM250 989q0 -125 36 -189.5t103 -64.5q78 0 116 68.5t38 177.5q0 113 -39 180.5t-113 67.5q-141 0 -141 -240zM289 -49 l948 1464h184l-948 -1464h-184zM1001 365q0 166 87.5 275.5t234.5 109.5t234.5 -109t87.5 -268q0 -102 -37.5 -187.5t-114 -140.5t-178.5 -55q-149 0 -231.5 107.5t-82.5 267.5zM1178 377q0 -125 36 -189.5t103 -64.5q77 0 115 68.5t38 177.5q0 113 -38.5 180t-112.5 67 q-141 0 -141 -239z" />
<glyph unicode="&#x26;" horiz-adv-x="1443" d="M109 360q0 119 72 230.5t202 167.5q-63 73 -94 143t-31 156q0 145 86 225t217 80q148 0 293 -90l-57 -197q-41 36 -105.5 66t-113.5 30q-52 0 -84.5 -34.5t-32.5 -96.5q0 -60 31 -109t96 -116l352 -364q4 28 4 47q0 109 -70 211l-100 -7v127l594 76v-157l-295 -23 q66 -117 66 -244q0 -101 -41 -194l278 -287h-254l-129 133q-158 -158 -415 -158q-111 0 -202 32t-148.5 86t-88 122.5t-30.5 144.5zM346 389q0 -106 69 -161.5t181 -55.5q162 0 258 102l-348 355q-75 -21 -117.5 -89.5t-42.5 -150.5z" />
<glyph unicode="'" horiz-adv-x="448" d="M102 1499h248l-49 -442h-156z" />
<glyph unicode="(" horiz-adv-x="669" d="M84 670q0 258 108.5 493t305.5 416l139 -51q-158 -184 -229.5 -387.5t-71.5 -472.5q0 -74 5 -141t23.5 -159t50 -177t88 -185.5t132.5 -193.5l-137 -52q-196 176 -305 413.5t-109 496.5z" />
<glyph unicode=")" horiz-adv-x="669" d="M33 1528l139 51q197 -181 305.5 -416t108.5 -493q0 -259 -109 -496.5t-305 -413.5l-137 52q76 93 132.5 193.5t88 185.5t50 177t23.5 159t5 141q0 269 -71.5 472.5t-229.5 387.5z" />
<glyph unicode="*" horiz-adv-x="901" d="M106 1024l244 78l-244 78l107 182l188 -178l-55 254h209l-55 -254l188 178l107 -182l-246 -78l246 -78l-107 -182l-190 176l57 -252h-209l55 252l-188 -176z" />
<glyph unicode="+" horiz-adv-x="997" d="M94 406v167h309v301h189v-301h311v-167h-311v-322h-189v322h-309z" />
<glyph unicode="," horiz-adv-x="534" d="M104 -242l93 232h-52v280h244v-311l-211 -252z" />
<glyph unicode="-" horiz-adv-x="958" d="M133 406v167h692v-167h-692z" />
<glyph unicode="." horiz-adv-x="522" d="M115 121q0 58 43 103.5t102 45.5q57 0 103.5 -46t46.5 -103q0 -59 -46 -102.5t-104 -43.5q-60 0 -102.5 43t-42.5 103z" />
<glyph unicode="/" horiz-adv-x="923" d="M59 -117l570 1555h235l-569 -1555h-236z" />
<glyph unicode="0" horiz-adv-x="1300" d="M106 659q0 196 63.5 354.5t189 253.5t292.5 95q102 0 190 -36t152.5 -100t110.5 -150.5t69 -188t23 -211.5q0 -138 -37 -263.5t-106 -223.5t-176.5 -156t-239.5 -58q-103 0 -190 36t-149 99t-106 149.5t-65 187.5t-21 212zM358 674q0 -245 74.5 -373.5t212.5 -128.5 q100 0 169 67t100.5 178t31.5 257q0 225 -77 358t-226 133q-146 0 -215.5 -130.5t-69.5 -360.5z" />
<glyph unicode="1" horiz-adv-x="681" d="M55 1126l447 226v-1352h-236v995l-166 -73z" />
<glyph unicode="2" horiz-adv-x="1032" d="M96 0v205q55 75 141 170t158 171t139.5 157t106.5 159.5t39 147.5q0 161 -207 161q-162 0 -323 -92l-48 176q82 45 197 76t215 31q175 0 286 -92.5t111 -243.5q0 -66 -25.5 -139.5t-62 -136t-96.5 -140t-110.5 -134.5t-123 -138.5t-114.5 -132.5h547v-205h-830z" />
<glyph unicode="3" horiz-adv-x="1083" d="M61 115l58 186q159 -129 348 -129q129 0 195.5 61t66.5 177q0 225 -262 225h-55v178h63q88 0 138.5 57t50.5 152q0 78 -49 115t-126 37q-76 0 -160 -32t-132 -77l-54 188q79 49 181.5 79t199.5 30q172 0 281.5 -92.5t109.5 -241.5q0 -186 -194 -293q260 -88 260 -338 q0 -87 -32 -162.5t-92.5 -134t-158 -92t-219.5 -33.5q-253 0 -418 140z" />
<glyph unicode="4" horiz-adv-x="1101" d="M53 389v184l572 779h245v-779h142v-184h-142v-389h-235v389h-582zM285 573h350v496z" />
<glyph unicode="5" horiz-adv-x="1087" d="M76 113l59 194q61 -57 157 -94t189 -37q114 0 188 59.5t74 182.5q0 107 -56.5 164t-194.5 57q-152 0 -283 -51l-59 30l79 744h695v-215h-504l-31 -324q82 23 176 23q191 0 309.5 -110.5t118.5 -303.5q0 -198 -129.5 -327.5t-371.5 -129.5q-250 0 -416 138z" />
<glyph unicode="6" d="M115 614q0 118 14.5 221.5t51 201.5t92 168t144 112.5t201.5 42.5q89 0 184 -25t152 -82l-51 -180q-63 47 -137 69.5t-139 22.5q-82 0 -142 -37.5t-92 -101.5t-46.5 -135t-14.5 -152q0 -39 2 -59l6 -2q33 72 105.5 107.5t172.5 35.5q89 0 160 -28.5t113.5 -72.5 t71 -101.5t39 -111t10.5 -106.5q0 -61 -14.5 -119.5t-48.5 -114.5t-83.5 -98.5t-125 -68t-167.5 -25.5q-458 0 -458 639zM377 395q0 -106 53 -169.5t145 -63.5t143.5 65.5t51.5 182.5q0 100 -42.5 162.5t-141.5 62.5q-100 0 -154.5 -66t-54.5 -174z" />
<glyph unicode="7" horiz-adv-x="935" d="M76 1147v215h829v-215q-181 -197 -335 -526.5t-154 -538.5q0 -57 2 -82h-260q-2 25 -2 80q0 153 83.5 359.5t196.5 385t236 322.5h-596z" />
<glyph unicode="8" horiz-adv-x="1114" d="M104 381q0 135 65.5 229t182.5 129v9q-77 28 -128.5 103.5t-51.5 182.5q0 149 102.5 238.5t282.5 89.5q178 0 281.5 -87.5t103.5 -234.5q0 -103 -50.5 -179.5t-129.5 -110.5v-9q117 -26 182.5 -122t65.5 -234q0 -87 -27.5 -160t-82 -129.5t-143 -88.5t-202.5 -32 q-95 0 -172.5 22.5t-128.5 60.5t-85.5 90t-49.5 110t-15 123zM336 379q0 -107 59.5 -166t159.5 -59t159.5 59t59.5 166q0 67 -21.5 124.5t-73 97.5t-124.5 40q-74 0 -125.5 -41t-72.5 -98t-21 -123zM397 1010q0 -85 43 -135t115 -50t115 50t43 133q0 80 -41 126t-117 46 q-75 0 -116.5 -44.5t-41.5 -125.5z" />
<glyph unicode="9" d="M92 934q0 61 14.5 119.5t48 114.5t83 98.5t125 68t167.5 25.5q459 0 459 -639q0 -118 -14.5 -221.5t-51 -201.5t-92.5 -168t-144.5 -112.5t-201.5 -42.5q-89 0 -183.5 25t-151.5 82l51 180q63 -47 137 -69.5t139 -22.5q82 0 142 37.5t92 101.5t46.5 135t14.5 152 q0 39 -2 59l-6 2q-33 -71 -106 -107t-173 -36q-89 0 -160 28.5t-113.5 72.5t-70.5 101.5t-38.5 111t-10.5 106.5zM334 926q0 -100 42.5 -163t141.5 -63q100 0 154.5 66t54.5 174q0 106 -53.5 170t-145.5 64t-143 -65.5t-51 -182.5z" />
<glyph unicode=":" horiz-adv-x="561" d="M133 121q0 58 43.5 103.5t102.5 45.5q57 0 103 -46t46 -103q0 -59 -45.5 -102.5t-103.5 -43.5q-60 0 -103 43t-43 103zM133 782q0 58 43.5 104t102.5 46q57 0 103 -46.5t46 -103.5q0 -59 -45.5 -102t-103.5 -43q-60 0 -103 42.5t-43 102.5z" />
<glyph unicode=";" horiz-adv-x="571" d="M123 -242l92 232h-51v280h244v-311l-211 -252zM141 782q0 58 43.5 104t102.5 46q57 0 103 -46.5t46 -103.5q0 -59 -45.5 -102t-103.5 -43q-60 0 -103 42.5t-43 102.5z" />
<glyph unicode="&#x3c;" horiz-adv-x="813" d="M80 426v133l584 397l36 -190l-403 -268v-11l405 -272l-36 -192z" />
<glyph unicode="=" horiz-adv-x="974" d="M141 250v168h693v-168h-693zM141 561v168h693v-168h-693z" />
<glyph unicode="&#x3e;" horiz-adv-x="813" d="M111 215l405 272v11l-403 268l37 190l583 -397v-133l-586 -403z" />
<glyph unicode="?" horiz-adv-x="837" d="M74 1298q61 46 147 76.5t172 30.5q150 0 248 -92t98 -232q0 -67 -26.5 -133t-64 -124t-75.5 -121t-64.5 -149t-27.5 -183h-213q0 103 25.5 194t62 154.5t73 118.5t62 111t25.5 108q0 76 -45.5 111.5t-114.5 35.5q-64 0 -128 -28.5t-101 -73.5zM233 121q0 57 43 99t103 42 q59 0 104 -42.5t45 -100.5t-46 -101t-105 -43q-58 0 -101 43.5t-43 102.5z" />
<glyph unicode="@" horiz-adv-x="1476" d="M102 369q0 68 13.5 139.5t42 145.5t70 142t101 127.5t131 103.5t164.5 69.5t197 25.5q139 0 249.5 -44.5t176 -117.5t99.5 -160t34 -179q0 -123 -55.5 -231.5t-150.5 -173t-203 -64.5q-158 0 -158 149q-33 -67 -93 -109t-114 -42q-68 0 -122 65.5t-54 179.5 q0 88 35.5 165t91.5 128t124.5 80t135.5 29q61 0 126 -21t93 -59l-63 -291q-8 -36 -8 -80q0 -49 41 -49q45 0 84.5 45.5t61.5 116.5t22 147q0 69 -20.5 131t-61 114t-111.5 83t-162 31q-96 0 -179.5 -35t-142.5 -93.5t-101 -135.5t-62.5 -161.5t-20.5 -170.5t21.5 -156 t59.5 -118t90.5 -80.5t113.5 -47t131 -14.5q76 0 149.5 17.5t129.5 44.5t95 52.5t66 49.5v-164q-54 -52 -186.5 -106t-282.5 -54q-121 0 -230 41.5t-190.5 115t-129.5 182.5t-48 237zM631 391q0 -84 45 -84q39 0 83.5 60t57.5 141l25 147q-21 9 -41 9q-50 0 -90.5 -47 t-60 -108.5t-19.5 -117.5z" />
<glyph unicode="A" horiz-adv-x="1286" d="M4 0l524 1352h203l578 -1352h-256l-154 393h-510l-139 -393h-246zM455 578h370l-194 497z" />
<glyph unicode="B" horiz-adv-x="1167" d="M180 0v1352q153 10 330 10q218 0 333 -89.5t115 -262.5q0 -172 -139 -262q125 -42 193.5 -132t68.5 -221q0 -87 -31.5 -162t-92.5 -133t-158.5 -91.5t-220.5 -33.5q-198 0 -398 25zM416 176q49 -4 155 -4q126 0 195.5 62t69.5 178q0 107 -66 166t-203 59q-57 0 -151 -4 v-457zM416 809q33 -2 102 -2q89 0 141 60t52 159q0 63 -43.5 103t-118.5 40q-71 0 -133 -10v-350z" />
<glyph unicode="C" horiz-adv-x="1286" d="M102 662q0 147 43.5 273t126.5 222t213 150.5t293 54.5q109 0 220.5 -24t191.5 -64l-60 -213q-146 100 -364 100q-213 0 -313.5 -128t-100.5 -355q0 -246 106 -374t304 -128q117 0 219 35t172 92l61 -203q-206 -125 -458 -125q-130 0 -238.5 36t-184.5 99.5t-128.5 150.5 t-77.5 188t-25 213z" />
<glyph unicode="D" horiz-adv-x="1447" d="M180 0v1352q123 10 418 10q361 0 539 -154q206 -180 206 -561q0 -114 -20 -207t-73.5 -181.5t-139.5 -148.5t-226 -96.5t-325 -36.5q-170 0 -379 23zM416 180q101 -8 200 -8q250 0 363 119t113 387q0 125 -24 212.5t-81 151t-154 93.5t-239 30q-106 0 -178 -2v-983z" />
<glyph unicode="E" horiz-adv-x="1083" d="M180 0v1352h783v-205h-547v-328h409v-205h-409v-409h588v-205h-824z" />
<glyph unicode="F" horiz-adv-x="997" d="M180 0v1352h772v-205h-536v-328h387v-205h-387v-614h-236z" />
<glyph unicode="G" horiz-adv-x="1345" d="M102 662q0 147 43.5 273t126 222t214 150.5t296.5 54.5q234 0 428 -88l-65 -213q-174 100 -371 100q-224 0 -323 -124.5t-99 -360.5q0 -252 105 -376t319 -124q29 0 53 2t48.5 7t37 8.5t41 12t37.5 11.5v340h236v-444q-204 -138 -471 -138q-132 0 -241 36t-185 99.5 t-128.5 150.5t-77 188t-24.5 213z" />
<glyph unicode="H" horiz-adv-x="1478" d="M180 0v1352h236v-553h647v553h235v-1352h-235v594h-647v-594h-236z" />
<glyph unicode="I" horiz-adv-x="595" d="M180 0v1352h236v-1352h-236z" />
<glyph unicode="J" horiz-adv-x="593" d="M-27 -141q40 0 72 11.5t53.5 30t37 47t24 57t13 66.5t6 68t1.5 70v1143h236v-1145q0 -110 -24.5 -204t-72 -167t-125 -114t-176.5 -41z" />
<glyph unicode="K" horiz-adv-x="1247" d="M180 0v1352h236v-590q124 118 209 215q172 193 276 375h258q-172 -237 -352 -439q-97 -109 -156 -170l604 -743h-272l-481 592l-86 -80v-512h-236z" />
<glyph unicode="L" horiz-adv-x="1017" d="M180 0v1352h236v-1147h563v-205h-799z" />
<glyph unicode="M" horiz-adv-x="1806" d="M180 0v1352h269l460 -1033l449 1033h268v-1352h-233v891l-389 -891h-189l-399 891v-891h-236z" />
<glyph unicode="N" horiz-adv-x="1478" d="M180 0v1352h289l594 -994v994h235v-1352h-288l-594 991v-991h-236z" />
<glyph unicode="O" horiz-adv-x="1519" d="M100 659q0 147 44.5 274.5t126.5 223t208.5 150.5t280.5 55q155 0 282 -55.5t208 -150.5t125 -218.5t44 -263.5q0 -109 -26.5 -211t-82 -191t-134 -155t-189.5 -104t-242 -38q-158 0 -283 55t-203 150t-118.5 217t-40.5 262zM352 680q0 -248 102.5 -376t295.5 -128 q109 0 191 38t131 106t73 155t24 193q0 229 -103.5 361t-311.5 132q-107 0 -185.5 -35t-125 -100t-69 -151t-22.5 -195z" />
<glyph unicode="P" horiz-adv-x="1087" d="M180 0v1352q137 10 326 10q235 0 373.5 -113t138.5 -321q0 -87 -29 -162t-85.5 -133t-147.5 -91.5t-207 -33.5q-92 0 -133 2v-510h-236zM416 707q39 -2 127 -2q110 0 166.5 61t56.5 178q0 221 -227 221q-84 0 -123 -2v-456z" />
<glyph unicode="Q" horiz-adv-x="1525" d="M104 659q0 147 44.5 274.5t126.5 223t208.5 150.5t280.5 55q155 0 282 -55.5t208 -150.5t125 -218.5t44 -263.5q0 -106 -25 -205t-77.5 -186.5t-126.5 -153.5t-178.5 -106.5t-227.5 -45.5q80 -9 179.5 -47t195 -70t183.5 -32q93 0 198 41l-53 -201q-65 -24 -143 -24 q-76 0 -164.5 27t-156 60t-151.5 60t-151 27q-137 0 -244 -80l-41 147q106 81 244 92q-142 11 -254 69.5t-182.5 152t-107 211t-36.5 249.5zM356 674q0 -244 103 -371t299 -127q108 0 189 38t130 106.5t73 157.5t24 196q0 225 -104.5 356t-313.5 131q-106 0 -184 -35 t-124.5 -100.5t-69 -153t-22.5 -198.5z" />
<glyph unicode="R" horiz-adv-x="1241" d="M180 0v1352q143 10 301 10q260 0 398.5 -100t138.5 -289q0 -127 -63 -222t-195 -139l495 -612h-272l-471 578q-61 0 -96 2v-580h-236zM416 774h127q109 0 167 55.5t58 157.5q0 94 -58.5 136t-207.5 42q-53 0 -86 -2v-389z" />
<glyph unicode="S" horiz-adv-x="1110" d="M86 88l61 221q179 -137 392 -137q126 0 187.5 45t61.5 125q0 45 -20.5 84t-46.5 63.5t-69.5 47.5t-71 33t-68.5 24q-48 16 -76.5 26.5t-74.5 31.5t-74.5 41t-62.5 52t-53 68t-32.5 86.5t-13.5 108.5q0 95 33 165t93 110.5t136.5 59.5t171.5 19q108 0 214.5 -22t180.5 -56 l-55 -217q-70 46 -167 73t-181 27q-93 0 -146 -35.5t-53 -105.5q0 -34 13.5 -61t32.5 -45.5t58.5 -38.5t70 -31.5t89.5 -32.5q49 -17 85 -32t81.5 -38t78 -46.5t65.5 -58t53.5 -72.5t33.5 -89t13 -110q0 -86 -26.5 -154t-71.5 -113t-108 -74.5t-132 -42t-147 -12.5 q-126 0 -245.5 31.5t-209.5 81.5z" />
<glyph unicode="T" d="M43 1147v205h1018v-205h-391v-1147h-236v1147h-391z" />
<glyph unicode="U" horiz-adv-x="1443" d="M166 475v877h235v-828q0 -348 326 -348q328 0 328 348v828h225v-877q0 -103 -33.5 -191t-100 -158t-177 -109.5t-254.5 -39.5q-143 0 -251.5 39.5t-172 109.5t-94.5 157.5t-31 191.5z" />
<glyph unicode="V" horiz-adv-x="1298" d="M-25 1352h256l431 -1065l389 1065h245l-540 -1352h-187z" />
<glyph unicode="W" horiz-adv-x="2134" d="M2 1352h256l346 -1049l348 1049h232l346 -1049l346 1049h256l-502 -1352h-194l-369 1028l-367 -1028h-194z" />
<glyph unicode="X" horiz-adv-x="1306" d="M23 0l499 696l-469 656h264l342 -529l338 529h258l-471 -658l498 -694h-264l-371 547l-366 -547h-258z" />
<glyph unicode="Y" horiz-adv-x="1155" d="M-25 1352h265l346 -613l332 613h260l-482 -797v-555h-235v547z" />
<glyph unicode="Z" horiz-adv-x="1134" d="M88 0v205l672 942h-641v205h897v-205l-672 -942h703v-205h-959z" />
<glyph unicode="[" horiz-adv-x="575" d="M158 -195v1729h327v-148h-112v-1433h112v-148h-327z" />
<glyph unicode="\" horiz-adv-x="921" d="M59 1438h232l569 -1555h-231z" />
<glyph unicode="]" horiz-adv-x="575" d="M90 -47h113v1433h-113v148h328v-1729h-328v148z" />
<glyph unicode="^" horiz-adv-x="712" d="M117 1161l6 15l225 202h17l225 -202l6 -15l-33 -59l-14 -6l-193 84l-192 -84l-14 6z" />
<glyph unicode="_" horiz-adv-x="964" d="M39 0h887v-168h-887v168z" />
<glyph unicode="`" horiz-adv-x="448" d="M0 1292q0 38 17.5 72.5t43.5 34.5q9 0 21 -6l369 -207l6 -15l-31 -73l-16 -6l-383 141q-27 9 -27 59z" />
<glyph unicode="a" horiz-adv-x="1026" d="M70 248q0 167 138.5 262.5t373.5 95.5h88v31q0 80 -52 117t-165 37q-150 0 -271 -68l-43 170q139 80 332 80q204 0 311 -84q113 -87 113 -248v-641h-180l-17 129h-8q-55 -69 -150.5 -111.5t-193.5 -42.5q-128 0 -202 75t-74 198zM309 281q0 -123 125 -123q67 0 132.5 32 t103.5 84v187h-39q-167 0 -244.5 -43t-77.5 -137z" />
<glyph unicode="b" horiz-adv-x="1175" d="M141 0v1516h224v-668q48 59 126.5 92t174.5 33q104 0 186.5 -40.5t133.5 -110t77.5 -156.5t26.5 -185q0 -219 -120 -362.5t-311 -143.5q-101 0 -174 40.5t-139 113.5h-8l-16 -129h-181zM365 274q44 -58 120.5 -93.5t145.5 -35.5q76 0 131 49.5t79.5 122.5t24.5 160 q0 89 -27 160t-85.5 116.5t-141.5 45.5q-140 0 -247 -131v-394z" />
<glyph unicode="c" horiz-adv-x="1001" d="M86 479q0 101 28.5 188t86 156.5t153 109.5t219.5 40q97 0 192.5 -22.5t152.5 -59.5l-50 -182q-47 35 -131 61.5t-157 26.5q-54 0 -97.5 -16.5t-72 -44.5t-47.5 -67.5t-27 -83t-8 -93.5q0 -145 68.5 -239.5t195.5 -94.5q76 0 158.5 30.5t136.5 81.5l41 -192 q-65 -42 -165 -72.5t-204 -30.5q-115 0 -207 40.5t-149 110.5t-87 160t-30 193z" />
<glyph unicode="d" horiz-adv-x="1175" d="M86 481q0 98 26.5 185t77.5 156.5t133.5 110t186.5 40.5q96 0 174.5 -33t126.5 -92v668h223v-1516h-180l-16 129h-9q-66 -73 -139 -113.5t-174 -40.5q-191 0 -310.5 143.5t-119.5 362.5zM309 477q0 -64 14.5 -122.5t43 -105.5t74.5 -75.5t104 -28.5q69 0 145.5 35.5 t120.5 93.5v394q-107 131 -248 131q-83 0 -141.5 -45.5t-85.5 -116.5t-27 -160z" />
<glyph unicode="e" horiz-adv-x="1034" d="M84 471q0 102 32.5 192.5t92.5 159.5t153 109.5t207 40.5q180 0 278.5 -91t98.5 -257q0 -46 -11 -99t-28 -75h-596q8 -130 79.5 -213.5t199.5 -83.5q74 0 159 28.5t146 71.5l37 -168q-70 -44 -168.5 -77.5t-208.5 -33.5q-111 0 -201.5 40t-148.5 109t-89.5 158t-31.5 189 zM330 610h391q4 16 4 35q0 66 -46 109t-116 43q-84 0 -145 -50t-88 -137z" />
<glyph unicode="f" horiz-adv-x="634" d="M70 805v117l116 18q0 371 86 485q74 101 254 101q124 0 195 -43l-51 -174q-93 55 -160 55q-37 0 -57 -24t-30.5 -86.5t-10.5 -176.5v-135h180v-137h-180v-805h-226v805h-116z" />
<glyph unicode="g" horiz-adv-x="1019" d="M53 -233q0 82 54 154t133 99v9q-44 19 -64 52.5t-20 70.5q0 44 28.5 80.5t81.5 56.5v8q-88 36 -131 116.5t-43 182.5q0 165 105 271t280 106q120 0 197 -41q154 3 293 43l18 -14l-22 -156l-11 -10l-145 16l-2 -6q69 -87 69 -207q0 -147 -103.5 -245.5t-283.5 -98.5 q-16 0 -35.5 1t-25.5 1q-34 -12 -53 -31.5t-19 -40.5q0 -49 92 -61l199 -25q145 -19 233.5 -88.5t88.5 -191.5q0 -66 -27.5 -123t-82 -103.5t-146 -73t-209.5 -26.5q-209 0 -329 77.5t-120 197.5zM254 -209q0 -64 65 -97.5t187 -33.5q125 0 194.5 35t69.5 108 q0 71 -76 102.5t-272 49.5q-70 -12 -119 -58.5t-49 -105.5zM305 610q0 -80 47.5 -139t132.5 -59q80 0 125 53t45 133q0 82 -46.5 147.5t-131.5 65.5q-82 0 -127 -60.5t-45 -140.5z" />
<glyph unicode="h" horiz-adv-x="1130" d="M141 0v1516h226v-713q56 88 133 129t182 41q65 0 119.5 -17.5t99.5 -55t70.5 -103.5t25.5 -156v-641h-225v623q0 82 -36.5 125t-100.5 43q-83 0 -162.5 -51.5t-105.5 -135.5v-604h-226z" />
<glyph unicode="i" horiz-adv-x="507" d="M109 1245q0 58 43 104t102 46q57 0 103 -46.5t46 -103.5q0 -59 -45.5 -102t-103.5 -43q-60 0 -102.5 42.5t-42.5 102.5zM141 0v942h226v-942h-226z" />
<glyph unicode="j" horiz-adv-x="507" d="M-78 -385q12 -6 43 -6q39 0 69.5 17t49 49t31 67.5t17.5 84t7 85.5t2 84v946h226v-948q0 -142 -40 -259t-123.5 -190t-195.5 -73q-37 0 -49 6zM109 1245q0 58 43 104t102 46q58 0 103.5 -46.5t45.5 -105.5q0 -58 -46 -100.5t-105 -42.5q-58 0 -100.5 43t-42.5 102z" />
<glyph unicode="k" horiz-adv-x="1009" d="M141 0v1516h226v-875l313 301h252l-336 -332l401 -610h-245l-306 463l-79 -80v-383h-226z" />
<glyph unicode="l" horiz-adv-x="532" d="M154 0v1516h225v-1516h-225z" />
<glyph unicode="m" horiz-adv-x="1710" d="M141 0v942h176l11 -139h8q40 83 127 126.5t192 43.5q223 0 293 -168q40 82 126.5 125t191.5 43q68 0 124 -17.5t101.5 -55t70.5 -103.5t25 -156v-641h-225v623q0 83 -34 125.5t-99 42.5q-72 0 -150 -52t-102 -135v-604h-225v623q0 83 -34.5 125.5t-99.5 42.5 q-72 0 -149 -52t-102 -135v-604h-226z" />
<glyph unicode="n" horiz-adv-x="1120" d="M141 0v942h176l11 -139h8q41 83 131.5 126.5t198.5 43.5q70 0 127.5 -17.5t104.5 -55t73 -103.5t26 -156v-641h-225v623q0 83 -37 125.5t-106 42.5q-75 0 -155.5 -52t-106.5 -135v-604h-226z" />
<glyph unicode="o" horiz-adv-x="1124" d="M86 475q0 102 29.5 190.5t86 158t149 109.5t210.5 40q120 0 213.5 -41.5t150 -113t85 -161t28.5 -192.5q0 -102 -28.5 -189t-85 -155t-148 -107t-209.5 -39q-121 0 -215 40.5t-151 110.5t-86 158.5t-29 190.5zM328 481q0 -142 60 -239t177 -97q114 0 173 90.5t59 227.5 q0 91 -24.5 164.5t-81 121.5t-136.5 48q-112 0 -169.5 -89.5t-57.5 -226.5z" />
<glyph unicode="p" horiz-adv-x="1177" d="M141 -532v1474h181l16 -129h8q53 67 144.5 113.5t175.5 46.5q107 0 190 -41t133 -112.5t75.5 -160t25.5 -190.5q0 -103 -26 -191t-77.5 -156.5t-134.5 -107.5t-190 -39q-206 0 -297 113v-620h-224zM365 268q93 -114 243 -114q127 0 192.5 87t65.5 224q0 87 -23.5 160.5 t-79 124.5t-134.5 51q-64 0 -142 -37.5t-122 -95.5v-400z" />
<glyph unicode="q" horiz-adv-x="1177" d="M88 469q0 102 25.5 190.5t75.5 160t133 112.5t190 41q83 0 174.5 -46.5t144.5 -113.5h9l16 129h180v-1474h-223v620q-91 -113 -297 -113q-107 0 -190 39t-134.5 107.5t-77.5 156.5t-26 191zM311 465q0 -138 65.5 -226.5t192.5 -88.5q139 0 244 118v400q-44 58 -122 95.5 t-142 37.5q-79 0 -134.5 -51t-79.5 -124.5t-24 -160.5z" />
<glyph unicode="r" horiz-adv-x="765" d="M141 0v942h176l11 -197h8q19 38 29.5 57.5t29.5 51.5t36.5 49t41 35.5t52 26.5t61.5 8q82 0 153 -53l-59 -183q-20 15 -62.5 26t-74.5 11q-31 0 -56 -14t-41.5 -31.5t-32.5 -53t-24 -59.5t-22 -69v-547h-226z" />
<glyph unicode="s" horiz-adv-x="886" d="M88 78l53 194q66 -64 153 -98.5t165 -34.5q76 0 117.5 33.5t41.5 93.5q0 38 -22 61.5t-80 37.5l-197 49q-66 16 -112.5 46.5t-70.5 69.5t-34 77t-10 79q0 134 95 210.5t251 76.5q84 0 176 -22.5t152 -61.5l-59 -184q-48 39 -123 69.5t-156 30.5q-68 0 -105.5 -25.5 t-37.5 -72.5q0 -35 24 -60t88 -39l146 -33q65 -15 115 -41t78.5 -55.5t46.5 -66t24 -67t6 -62.5q0 -134 -103 -221t-274 -87q-100 0 -193 30t-155 73z" />
<glyph unicode="t" horiz-adv-x="679" d="M68 805v123l133 20l37 279h172v-285h180v-137h-180v-541q0 -62 12 -83t47 -21q25 0 51.5 10t79.5 39l37 -162q-38 -32 -109 -52t-141 -20q-117 0 -160 59.5t-43 182.5v588h-116z" />
<glyph unicode="u" d="M133 301v641h225v-612q0 -81 43.5 -126.5t114.5 -45.5q73 0 132.5 49t86.5 137v598h228v-942h-177l-12 131h-8q-77 -156 -309 -156q-70 0 -126 16.5t-102 53t-71 101.5t-25 155z" />
<glyph unicode="v" horiz-adv-x="1073" d="M20 942h236l285 -756l297 756h221l-389 -942h-273z" />
<glyph unicode="w" horiz-adv-x="1683" d="M27 942h235l246 -723l223 723h225l224 -723l245 723h232l-342 -942h-268l-203 655l-203 -655h-272z" />
<glyph unicode="x" horiz-adv-x="1040" d="M29 0l362 481l-342 461h256l221 -317l211 317h256l-344 -457l365 -485h-256l-240 344l-233 -344h-256z" />
<glyph unicode="y" horiz-adv-x="1062" d="M-14 942h235l328 -670l262 670h217l-389 -950q-26 -63 -60 -126.5t-86 -136t-109 -126.5t-132 -90.5t-152 -36.5q-25 0 -43 6l-39 176q24 -6 50 -6q90 0 153 41q70 44 125 125.5t109 212.5z" />
<glyph unicode="z" horiz-adv-x="856" d="M86 0v182l430 578h-410v182h644v-182l-443 -578h463v-182h-684z" />
<glyph unicode="{" horiz-adv-x="598" d="M61 618v103q41 2 70.5 20.5t44 41t22.5 57.5t9.5 56.5t1.5 51.5q0 66 -2 180.5t-2 135.5q0 57 6 98.5t24.5 80t50.5 62t85.5 37.5t128.5 14l4 -104q-31 -4 -48 -27t-20.5 -48t-3.5 -64q0 -34 2 -150t2 -143q0 -151 -45 -237.5t-147 -112.5q101 -26 146.5 -113t45.5 -238 q0 -28 -2 -143t-2 -147q0 -29 2 -49.5t9 -42.5t22 -34.5t39 -15.5l-4 -104q-75 0 -128.5 14t-85.5 38t-50.5 63t-24.5 80.5t-6 99.5q0 25 2 138t2 161q0 36 -1.5 62t-10 61.5t-23.5 58.5t-44 40t-69 19z" />
<glyph unicode="|" horiz-adv-x="524" d="M158 -233v1806h209v-1806h-209z" />
<glyph unicode="}" horiz-adv-x="598" d="M94 -113q24 3 39 15.5t22 34.5t9 42t2 48q0 34 -2 149.5t-2 142.5q0 151 45.5 238t146.5 113q-102 26 -147 112.5t-45 237.5q0 28 2 143.5t2 147.5q0 29 -2 49.5t-9 42t-22 34t-39 15.5l4 104q75 0 128.5 -14t85.5 -37.5t50.5 -62.5t24.5 -80.5t6 -99.5q0 -25 -2 -138 t-2 -161q0 -36 1.5 -62t10 -62t23.5 -59t44 -40t69 -19v-103q-41 -2 -70.5 -20.5t-44 -41t-22.5 -57.5t-9.5 -56.5t-1.5 -51.5q0 -66 2 -180t2 -135q0 -73 -11 -121.5t-41 -90t-90 -61.5t-153 -20z" />
<glyph unicode="~" horiz-adv-x="970" d="M131 414q0 18 12 47.5t34 62t62 55.5t87 23q17 0 155.5 -9t198.5 -9q47 0 80 9t57 38l25 -41q0 -13 -10.5 -41t-31 -62.5t-59.5 -60t-86 -25.5q-19 0 -179 9.5t-202 9.5q-46 0 -70.5 -10t-45.5 -35z" />
<glyph unicode="&#xa1;" horiz-adv-x="522" d="M115 831q0 58 46 101t105 43q58 0 101 -43.5t43 -102.5q0 -57 -43 -99t-103 -42q-59 0 -104 42.5t-45 100.5zM119 -446l53 1028h178l49 -1028h-280z" />
<glyph unicode="&#xa2;" horiz-adv-x="1015" d="M84 449q0 87 23.5 162.5t71.5 138t127 104t183 53.5v275h189v-279q151 -19 237 -74l-53 -190q-63 57 -184 82v-559q123 28 207 106l41 -190q-99 -67 -248 -90v-269h-189v261q-196 21 -300.5 152t-104.5 317zM303 455q0 -99 50.5 -179t135.5 -110v557 q-89 -25 -137.5 -100.5t-48.5 -167.5z" />
<glyph unicode="&#xa3;" horiz-adv-x="1193" d="M66 74q149 58 221.5 165t72.5 242v31h-190v168h182q-4 42 -21.5 153.5t-17.5 163.5q0 95 36 168t95.5 114.5t128 62t142.5 20.5q91 0 182.5 -28.5t144.5 -71.5l-45 -187q-40 42 -120 71.5t-154 29.5q-91 0 -127.5 -46.5t-36.5 -130.5q0 -47 14.5 -158.5t18.5 -160.5h250 v-168h-246q-3 -90 -37 -183t-98 -167l4 -6q68 -4 220 -45t239 -41q99 0 190 39l-49 -201q-80 -41 -156 -41q-73 0 -158.5 21t-150.5 46.5t-144 46.5t-141 21q-112 0 -204 -74z" />
<glyph unicode="&#xa4;" horiz-adv-x="1212" d="M98 856l113 113l149 -146q119 80 244 80q131 0 242 -80l149 146l113 -111l-145 -149q79 -115 79 -242q0 -129 -77 -238l149 -147l-115 -113l-151 146q-114 -82 -240 -82q-119 0 -243 82l-150 -146l-111 113l146 147q-80 105 -80 242q0 127 82 238zM334 469 q0 -115 79 -194.5t195 -79.5q114 0 192.5 79.5t78.5 194.5q0 114 -79 194t-194 80q-113 0 -192.5 -79t-79.5 -195z" />
<glyph unicode="&#xa5;" horiz-adv-x="1325" d="M63 1352h265l346 -613l332 613h260l-334 -553h155v-168h-258l-45 -76v-33h303v-168h-303v-354h-235v354h-320v168h320v25l-51 84h-269v168h168z" />
<glyph unicode="&#xa6;" horiz-adv-x="528" d="M160 -233v794h209v-794h-209zM160 778v795h209v-795h-209z" />
<glyph unicode="&#xa7;" horiz-adv-x="888" d="M88 760q0 75 35.5 147t93.5 115q-22 61 -22 127q0 75 27.5 135t72 95.5t95.5 54t102 18.5q65 0 138 -27t122 -67l-68 -158q-81 62 -160 62q-53 0 -82.5 -37.5t-29.5 -98.5q0 -49 21.5 -92t56 -76.5t76 -66t82.5 -67t75.5 -71t56 -86t21.5 -106.5q0 -76 -35.5 -147.5 t-93.5 -116.5q22 -58 22 -125q0 -75 -27.5 -135t-72 -95.5t-95.5 -54t-102 -18.5q-65 0 -138 27t-122 67l68 158q81 -62 160 -62q53 0 82.5 37.5t29.5 98.5q0 49 -21.5 92t-56 76.5t-76 66t-82.5 67t-75.5 71t-56 86t-21.5 106.5zM270 813q0 -58 35 -113t80.5 -92t110 -91.5 t102.5 -98.5q20 45 20 90q0 58 -35.5 112.5t-81 91.5t-110 92t-102.5 99q-19 -43 -19 -90z" />
<glyph unicode="&#xa8;" horiz-adv-x="450" d="M0 1266q0 46 35 83t82 37q46 0 83.5 -37t37.5 -83q0 -47 -37.5 -82t-83.5 -35q-47 0 -82 35t-35 82zM279 1266q0 46 34.5 83t81.5 37q46 0 83.5 -37t37.5 -83q0 -47 -37.5 -82t-83.5 -35q-47 0 -81.5 35t-34.5 82z" />
<glyph unicode="&#xa9;" horiz-adv-x="1456" d="M106 725q0 166 83 307.5t226 224t312 82.5t312.5 -82.5t227 -224t83.5 -307.5q0 -170 -84 -312.5t-229.5 -224.5t-319.5 -82q-123 0 -236 49.5t-195 133t-131 198t-49 238.5zM231 729q0 -106 37.5 -201t102 -163t153.5 -108t189 -40q216 0 361 145t145 361 q0 138 -65 254.5t-177 184t-246 67.5q-139 0 -254 -66.5t-180.5 -181t-65.5 -252.5zM381 729q0 71 20 132t59.5 109.5t106.5 76.5t154 28q69 0 136 -15.5t106 -41.5l-33 -144q-30 19 -91 34.5t-114 15.5q-90 0 -134 -57.5t-44 -139.5q0 -87 48 -147t136 -60q54 0 113 21.5 t100 52.5l25 -145q-44 -29 -114.5 -50.5t-143.5 -21.5q-158 0 -244 101t-86 251z" />
<glyph unicode="&#xaa;" horiz-adv-x="747" d="M104 903q0 101 82.5 158t225.5 57h51v19q0 51 -31 73q-38 27 -94 27q-79 0 -166 -61l-27 112q80 60 203 60q124 0 189 -52q75 -60 75 -170v-370h-120l-9 75h-8q-32 -41 -89 -66.5t-116 -25.5q-78 0 -122 45t-44 119zM248 922q0 -72 74 -72q40 0 79 19.5t62 50.5v112h-23 q-101 0 -146.5 -26.5t-45.5 -83.5z" />
<glyph unicode="&#xab;" horiz-adv-x="1087" d="M88 489v11l274 360h230l-297 -362v-11l297 -362h-232zM485 489v11l275 360h229l-297 -362v-11l297 -362h-231z" />
<glyph unicode="&#xac;" horiz-adv-x="1277" d="M141 561v168h983v-489h-190v321h-793z" />
<glyph unicode="&#xad;" horiz-adv-x="954" d="M133 406v167h688v-167h-688z" />
<glyph unicode="&#xae;" horiz-adv-x="1456" d="M106 725q0 166 83 307.5t226 224t312 82.5t312.5 -82.5t227 -224t83.5 -307.5q0 -170 -84 -312.5t-229.5 -224.5t-319.5 -82q-123 0 -236 49.5t-195 133t-131 198t-49 238.5zM231 729q0 -106 37.5 -201t102 -163t153.5 -108t189 -40q216 0 361 145t145 361 q0 138 -65 254.5t-177 184t-246 67.5q-139 0 -254 -66.5t-180.5 -181t-65.5 -252.5zM506 412v671q75 7 170 7q82 0 139 -16.5t86.5 -48t42 -69.5t12.5 -88q0 -56 -29 -103.5t-81 -76.5l153 -276h-145l-127 243h-84v-243h-137zM643 754h59q55 0 88 37t33 90q0 110 -147 110 h-33v-237z" />
<glyph unicode="&#xb0;" horiz-adv-x="757" d="M98 1079q0 115 74.5 192t204.5 77q135 0 208.5 -77t73.5 -196q0 -113 -71 -185.5t-211 -72.5q-139 0 -209 74.5t-70 187.5zM242 1085q0 -59 35.5 -101t99.5 -42q67 0 99 38.5t32 98.5q0 59 -32.5 98.5t-98.5 39.5q-68 0 -101.5 -38t-33.5 -94z" />
<glyph unicode="&#xb1;" horiz-adv-x="948" d="M145 84v168h658v-168h-658zM147 582v168h238v182h188v-182h228v-168h-228v-207h-188v207h-238z" />
<glyph unicode="&#xb2;" horiz-adv-x="772" d="M119 612v127q41 46 112.5 105t123 99.5t92 95.5t40.5 108q0 36 -18.5 64t-67.5 28q-52 0 -112.5 -36t-104.5 -93l-34 131q133 121 268 121q101 0 159 -55t58 -142q0 -33 -10.5 -66t-23.5 -60t-42.5 -62.5t-50 -57.5t-65 -60.5t-67 -57.5t-75.5 -62h334v-127h-516z" />
<glyph unicode="&#xb3;" horiz-adv-x="696" d="M98 680l25 123q35 -29 54.5 -42.5t52 -24.5t71.5 -11q150 0 150 127q0 56 -38.5 84.5t-133.5 28.5h-25v110h31q63 0 96 25.5t33 70.5q0 68 -84 68q-89 0 -160 -59l-23 120q53 33 93.5 47.5t93.5 14.5q101 0 161 -50.5t60 -131.5q0 -95 -96 -154q135 -47 135 -184 q0 -102 -72 -171t-213 -69q-70 0 -115 18.5t-96 59.5z" />
<glyph unicode="&#xb4;" horiz-adv-x="448" d="M0 1171l6 15l369 207q12 6 20 6q26 0 44 -34.5t18 -72.5q0 -50 -27 -59l-383 -141l-16 6z" />
<glyph unicode="&#xb5;" horiz-adv-x="1173" d="M63 -227q81 155 118.5 271.5t37.5 256.5v641h225v-612q0 -81 43.5 -126.5t114.5 -45.5q73 0 132.5 50t86.5 138v596h228v-942h-177l-12 131h-8q-77 -156 -307 -156q-84 0 -154 25l-4 -16q-36 -142 -111 -308z" />
<glyph unicode="&#xb6;" horiz-adv-x="1140" d="M68 928q0 208 132.5 321t358.5 113q75 0 397 -10v-1528h-174v1341h-90v-1341h-184v684h-43q-181 0 -289 121.5t-108 298.5z" />
<glyph unicode="&#xb7;" horiz-adv-x="546" d="M127 498q0 58 43 103.5t102 45.5q57 0 103.5 -46t46.5 -103q0 -59 -46 -102.5t-104 -43.5q-60 0 -102.5 43t-42.5 103z" />
<glyph unicode="&#xb8;" horiz-adv-x="413" d="M0 -395l57 98h15q65 -25 129 -25q90 0 90 62q0 63 -86 63q-48 0 -99 -14l-38 53l104 158h111l-52 -84q31 8 60 8q70 0 116 -48t46 -120q0 -81 -74 -141.5t-182 -60.5q-91 0 -195 38z" />
<glyph unicode="&#xb9;" horiz-adv-x="516" d="M72 1206l297 156v-750h-154v545l-117 -57z" />
<glyph unicode="&#xba;" horiz-adv-x="802" d="M96 1051q0 133 83 225t220 92q142 0 225 -95t83 -229q0 -129 -80 -219t-226 -90q-100 0 -171 46.5t-102.5 116.5t-31.5 153zM262 1053q0 -75 36 -123.5t103 -48.5q70 0 104 44t34 119t-37 124t-107 49q-133 0 -133 -164z" />
<glyph unicode="&#xbb;" horiz-adv-x="1087" d="M98 125l297 362v11l-297 362h230l274 -360v-11l-272 -364h-232zM496 125l297 362v11l-297 362h229l274 -360v-11l-272 -364h-231z" />
<glyph unicode="&#xbc;" horiz-adv-x="1583" d="M70 1206l297 156v-750h-154v545l-117 -57zM180 -49l948 1464h185l-948 -1464h-185zM922 186v127l301 437h211v-437h69v-127h-69v-186h-140v186h-372zM1069 313h225v316z" />
<glyph unicode="&#xbd;" horiz-adv-x="1595" d="M70 1206l297 156v-750h-154v545l-117 -57zM184 -49l949 1464h184l-948 -1464h-185zM987 0v127q35 39 89 84.5t99.5 81.5t88 75t67.5 81.5t25 85.5q0 36 -18.5 64t-67.5 28q-52 0 -112.5 -36t-104.5 -93l-35 131q133 121 268 121q101 0 159 -55t58 -142q0 -33 -10.5 -66 t-23.5 -60t-42.5 -62.5t-50 -57.5t-65 -60.5t-67 -57.5t-75.5 -62h334v-127h-516z" />
<glyph unicode="&#xbe;" horiz-adv-x="1585" d="M74 680l24 123q35 -29 54.5 -42.5t52 -24.5t71.5 -11q150 0 150 127q0 56 -38.5 84.5t-133.5 28.5h-25v110h31q63 0 96 25.5t33 70.5q0 68 -84 68q-89 0 -160 -59l-22 120q53 33 93 47.5t93 14.5q101 0 161 -50.5t60 -131.5q0 -95 -96 -154q135 -47 135 -184 q0 -102 -71.5 -171t-212.5 -69q-70 0 -115 18.5t-96 59.5zM225 -49l949 1464h184l-948 -1464h-185zM926 186v127l301 437h211v-437h69v-127h-69v-186h-140v186h-372zM1073 313h225v316z" />
<glyph unicode="&#xbf;" horiz-adv-x="821" d="M88 -131q0 67 26.5 133t64 124.5t75.5 121.5t64.5 149t27.5 183h213q0 -103 -25.5 -194t-62 -154.5t-73 -118.5t-62 -111t-25.5 -108q0 -76 45.5 -112t114.5 -36q64 0 128 28.5t101 73.5l54 -196q-61 -46 -147.5 -76.5t-172.5 -30.5q-150 0 -248 92t-98 232zM299 831 q0 58 46.5 101t105.5 43q58 0 100.5 -43.5t42.5 -102.5q0 -57 -42.5 -99t-102.5 -42q-59 0 -104.5 42.5t-45.5 100.5z" />
<glyph unicode="&#xc0;" horiz-adv-x="1286" d="M4 2l524 1352h203l578 -1352h-256l-154 393h-510l-139 -393h-246zM420 1630q0 38 17.5 72.5t43.5 34.5q9 0 21 -6l368 -207l7 -15l-31 -73l-17 -6l-383 141q-26 9 -26 59zM455 580h370l-194 497z" />
<glyph unicode="&#xc1;" horiz-adv-x="1286" d="M4 0l524 1352h203l578 -1352h-256l-154 393h-510l-139 -393h-246zM414 1511l6 15l368 207q12 6 21 6q26 0 43.5 -34.5t17.5 -72.5q0 -50 -26 -59l-383 -141l-17 6zM455 578h370l-194 497z" />
<glyph unicode="&#xc2;" horiz-adv-x="1286" d="M4 0l524 1352h203l578 -1352h-256l-154 393h-510l-139 -393h-246zM414 1507l6 15l225 202h17l225 -202l6 -15l-33 -59l-14 -6l-193 84l-192 -84l-15 6zM455 578h370l-194 497z" />
<glyph unicode="&#xc3;" horiz-adv-x="1286" d="M4 0l524 1352h203l578 -1352h-256l-154 393h-510l-139 -393h-246zM332 1511q14 46 26 73t34 56.5t56.5 43.5t83.5 14q40 0 130 -14.5t126 -14.5q85 0 156 53l25 -47q-14 -78 -59 -133t-126 -55q-28 0 -124.5 14.5t-147.5 14.5q-105 0 -154 -52zM455 578h370l-194 497z " />
<glyph unicode="&#xc4;" horiz-adv-x="1286" d="M4 0l524 1352h203l578 -1352h-256l-154 393h-510l-139 -393h-246zM393 1604q0 46 35 83t82 37q46 0 83.5 -37t37.5 -83q0 -47 -37.5 -82t-83.5 -35q-47 0 -82 35t-35 82zM455 578h370l-194 497zM672 1604q0 46 34.5 83t81.5 37q46 0 83.5 -37t37.5 -83q0 -47 -37.5 -82 t-83.5 -35q-47 0 -81.5 35t-34.5 82z" />
<glyph unicode="&#xc5;" horiz-adv-x="1300" d="M4 0l518 1300q-38 22 -61 61t-23 83q0 73 56 125.5t143 52.5q86 0 141.5 -54.5t55.5 -127.5q0 -43 -22 -80.5t-58 -59.5l571 -1300h-264l-154 414h-510l-139 -414h-254zM463 598h371l-195 477zM559 1446q0 -34 24 -60t56 -26q30 0 51 24t21 56q0 33 -22 56.5t-54 23.5 q-34 0 -55 -21t-21 -53z" />
<glyph unicode="&#xc6;" horiz-adv-x="1550" d="M-29 0l721 1352h735v-209h-413v-322h276v-209h-276v-403h454v-209h-677v389h-363l-207 -389h-250zM537 594h254v479z" />
<glyph unicode="&#xc7;" horiz-adv-x="1288" d="M104 662q0 147 43.5 273t126.5 222t213 150.5t293 54.5q109 0 220.5 -24t191.5 -64l-59 -213q-146 100 -365 100q-213 0 -313.5 -128t-100.5 -355q0 -246 106 -374t304 -128q117 0 219 35t172 92l62 -203q-193 -115 -420 -123l-37 -61q31 8 59 8q70 0 116 -48t46 -120 q0 -81 -74 -141.5t-182 -60.5q-91 0 -195 38l-2 13l58 98h14q65 -25 129 -25q90 0 90 62q0 63 -86 63q-47 0 -98 -14l-39 53l90 138q-116 9 -212.5 49.5t-164 104t-114.5 147.5t-69 179.5t-22 201.5z" />
<glyph unicode="&#xc8;" horiz-adv-x="1083" d="M180 0v1352h783v-205h-547v-328h409v-205h-409v-409h588v-205h-824zM356 1630q0 38 18 72.5t44 34.5q8 0 20 -6l369 -207l6 -15l-31 -73l-16 -6l-383 141q-27 9 -27 59z" />
<glyph unicode="&#xc9;" horiz-adv-x="1083" d="M180 0v1352h783v-205h-547v-328h409v-205h-409v-409h588v-205h-824zM381 1509l6 15l369 207q12 6 20 6q26 0 44 -34.5t18 -72.5q0 -50 -27 -59l-383 -141l-16 6z" />
<glyph unicode="&#xca;" horiz-adv-x="1083" d="M180 0v1352h783v-205h-547v-328h409v-205h-409v-409h588v-205h-824zM367 1507l6 15l225 202h16l226 -202l6 -15l-33 -59l-14 -6l-193 84l-192 -84l-15 6z" />
<glyph unicode="&#xcb;" horiz-adv-x="1083" d="M180 0v1352h783v-205h-547v-328h409v-205h-409v-409h588v-205h-824zM330 1606q0 46 34.5 83t81.5 37q46 0 83.5 -37t37.5 -83q0 -47 -37.5 -82t-83.5 -35q-47 0 -81.5 35t-34.5 82zM608 1606q0 46 35 83t82 37q46 0 83.5 -37t37.5 -83q0 -47 -37.5 -82t-83.5 -35 q-47 0 -82 35t-35 82z" />
<glyph unicode="&#xcc;" horiz-adv-x="595" d="M45 1630q0 38 17.5 72.5t43.5 34.5q9 0 21 -6l369 -207l6 -15l-31 -73l-16 -6l-383 141q-27 9 -27 59zM180 0v1352h236v-1352h-236z" />
<glyph unicode="&#xcd;" horiz-adv-x="595" d="M94 1509l6 15l369 207q12 6 20 6q26 0 44 -34.5t18 -72.5q0 -50 -27 -59l-383 -141l-16 6zM180 0v1352h236v-1352h-236z" />
<glyph unicode="&#xce;" horiz-adv-x="595" d="M53 1507l6 15l226 202h16l225 -202l6 -15l-32 -59l-15 -6l-192 84l-193 -84l-14 6zM180 0v1352h236v-1352h-236z" />
<glyph unicode="&#xcf;" horiz-adv-x="595" d="M43 1604q0 46 35 83t82 37q46 0 83.5 -37t37.5 -83q0 -47 -37.5 -82t-83.5 -35q-47 0 -82 35t-35 82zM180 0v1352h236v-1352h-236zM322 1604q0 46 34.5 83t81.5 37q46 0 83.5 -37t37.5 -83q0 -47 -37.5 -82t-83.5 -35q-47 0 -81.5 35t-34.5 82z" />
<glyph unicode="&#xd0;" horiz-adv-x="1462" d="M41 637v151h152v564q123 10 417 10q361 0 539 -154q207 -181 207 -561q0 -114 -20 -207t-74 -181.5t-140 -148.5t-226 -96.5t-325 -36.5q-169 0 -378 23v637h-152zM428 180q101 -8 201 -8q250 0 362.5 119t112.5 387q0 125 -24 212.5t-81 151t-154 93.5t-239 30 q-106 0 -178 -2v-375h303v-151h-303v-457z" />
<glyph unicode="&#xd1;" horiz-adv-x="1478" d="M180 0v1352h289l594 -994v994h235v-1352h-288l-594 991v-991h-236zM387 1511q14 45 26 72.5t34.5 57t57 43.5t83.5 14q40 0 130 -14.5t126 -14.5q84 0 155 53l25 -47q-14 -79 -58.5 -133.5t-125.5 -54.5q-28 0 -125 14.5t-148 14.5q-104 0 -153 -52z" />
<glyph unicode="&#xd2;" horiz-adv-x="1519" d="M100 659q0 147 44.5 274.5t126.5 223t208.5 150.5t280.5 55q155 0 282 -55.5t208 -150.5t125 -218.5t44 -263.5q0 -109 -26.5 -211t-82 -191t-134 -155t-189.5 -104t-242 -38q-158 0 -283 55t-203 150t-118.5 217t-40.5 262zM352 680q0 -248 102.5 -376t295.5 -128 q109 0 191 38t131 106t73 155t24 193q0 229 -103.5 361t-311.5 132q-107 0 -185.5 -35t-125 -100t-69 -151t-22.5 -195zM471 1630q0 38 17.5 72.5t43.5 34.5q9 0 21 -6l369 -207l6 -15l-31 -73l-16 -6l-383 141q-27 9 -27 59z" />
<glyph unicode="&#xd3;" horiz-adv-x="1519" d="M100 659q0 147 44.5 274.5t126.5 223t208.5 150.5t280.5 55q155 0 282 -55.5t208 -150.5t125 -218.5t44 -263.5q0 -109 -26.5 -211t-82 -191t-134 -155t-189.5 -104t-242 -38q-158 0 -283 55t-203 150t-118.5 217t-40.5 262zM352 680q0 -248 102.5 -376t295.5 -128 q109 0 191 38t131 106t73 155t24 193q0 229 -103.5 361t-311.5 132q-107 0 -185.5 -35t-125 -100t-69 -151t-22.5 -195zM610 1509l6 15l369 207q12 6 21 6q26 0 43.5 -34.5t17.5 -72.5q0 -50 -27 -59l-383 -141l-16 6z" />
<glyph unicode="&#xd4;" horiz-adv-x="1519" d="M100 659q0 147 44.5 274.5t126.5 223t208.5 150.5t280.5 55q155 0 282 -55.5t208 -150.5t125 -218.5t44 -263.5q0 -109 -26.5 -211t-82 -191t-134 -155t-189.5 -104t-242 -38q-158 0 -283 55t-203 150t-118.5 217t-40.5 262zM352 680q0 -248 102.5 -376t295.5 -128 q109 0 191 38t131 106t73 155t24 193q0 229 -103.5 361t-311.5 132q-107 0 -185.5 -35t-125 -100t-69 -151t-22.5 -195zM541 1507l6 15l225 202h16l226 -202l6 -15l-33 -59l-14 -6l-193 84l-192 -84l-15 6z" />
<glyph unicode="&#xd5;" horiz-adv-x="1519" d="M100 659q0 147 44.5 274.5t126.5 223t208.5 150.5t280.5 55q155 0 282 -55.5t208 -150.5t125 -218.5t44 -263.5q0 -109 -26.5 -211t-82 -191t-134 -155t-189.5 -104t-242 -38q-158 0 -283 55t-203 150t-118.5 217t-40.5 262zM352 680q0 -248 102.5 -376t295.5 -128 q109 0 191 38t131 106t73 155t24 193q0 229 -103.5 361t-311.5 132q-107 0 -185.5 -35t-125 -100t-69 -151t-22.5 -195zM442 1511q14 45 26 72.5t34.5 57t57 43.5t83.5 14q39 0 129 -14.5t127 -14.5q85 0 156 53l24 -47q-14 -79 -58.5 -133.5t-125.5 -54.5 q-28 0 -124.5 14.5t-147.5 14.5q-105 0 -154 -52z" />
<glyph unicode="&#xd6;" horiz-adv-x="1519" d="M100 659q0 147 44.5 274.5t126.5 223t208.5 150.5t280.5 55q155 0 282 -55.5t208 -150.5t125 -218.5t44 -263.5q0 -109 -26.5 -211t-82 -191t-134 -155t-189.5 -104t-242 -38q-158 0 -283 55t-203 150t-118.5 217t-40.5 262zM352 680q0 -248 102.5 -376t295.5 -128 q109 0 191 38t131 106t73 155t24 193q0 229 -103.5 361t-311.5 132q-107 0 -185.5 -35t-125 -100t-69 -151t-22.5 -195zM504 1604q0 46 35 83t82 37q46 0 83 -37t37 -83q0 -47 -37 -82t-83 -35q-47 0 -82 35t-35 82zM782 1604q0 46 35 83t82 37q46 0 83.5 -37t37.5 -83 q0 -47 -37.5 -82t-83.5 -35q-47 0 -82 35t-35 82z" />
<glyph unicode="&#xd7;" horiz-adv-x="933" d="M129 258l231 231l-231 230l107 106l231 -229l233 233l107 -106l-234 -234l234 -235l-105 -104l-235 233l-231 -231z" />
<glyph unicode="&#xd8;" horiz-adv-x="1521" d="M72 41l155 184q-125 177 -125 434q0 147 44.5 274.5t126.5 223t208.5 150.5t280.5 55q197 0 352 -92l137 162l166 -127l-147 -172q151 -189 151 -459q0 -109 -26.5 -211t-81.5 -191t-133.5 -155t-189.5 -104t-242 -38q-221 0 -371 103l-150 -176zM354 680q0 -156 39 -260 l582 688q-89 53 -219 53q-107 0 -185.5 -35t-125 -100t-69 -151t-22.5 -195zM518 244q92 -68 234 -68q109 0 191 38t131 106t73 155t24 193q0 166 -55 282z" />
<glyph unicode="&#xd9;" horiz-adv-x="1443" d="M166 475v877h235v-828q0 -348 326 -348q328 0 328 348v828h225v-877q0 -103 -33.5 -191t-100 -158t-177 -109.5t-254.5 -39.5q-143 0 -251.5 39.5t-172 109.5t-94.5 157.5t-31 191.5zM467 1630q0 38 17.5 72.5t43.5 34.5q9 0 21 -6l369 -207l6 -15l-31 -73l-16 -6 l-383 141q-27 9 -27 59z" />
<glyph unicode="&#xda;" horiz-adv-x="1443" d="M166 475v877h235v-828q0 -348 326 -348q328 0 328 348v828h225v-877q0 -103 -33.5 -191t-100 -158t-177 -109.5t-254.5 -39.5q-143 0 -251.5 39.5t-172 109.5t-94.5 157.5t-31 191.5zM526 1509l6 15l369 207q12 6 21 6q26 0 43.5 -34.5t17.5 -72.5q0 -50 -27 -59 l-383 -141l-16 6z" />
<glyph unicode="&#xdb;" horiz-adv-x="1443" d="M166 475v877h235v-828q0 -348 326 -348q328 0 328 348v828h225v-877q0 -103 -33.5 -191t-100 -158t-177 -109.5t-254.5 -39.5q-143 0 -251.5 39.5t-172 109.5t-94.5 157.5t-31 191.5zM475 1507l6 15l226 202h16l225 -202l6 -15l-32 -59l-15 -6l-192 84l-193 -84l-14 6z " />
<glyph unicode="&#xdc;" horiz-adv-x="1443" d="M166 475v877h235v-828q0 -348 326 -348q328 0 328 348v828h225v-877q0 -103 -33.5 -191t-100 -158t-177 -109.5t-254.5 -39.5q-143 0 -251.5 39.5t-172 109.5t-94.5 157.5t-31 191.5zM489 1604q0 46 35 83t82 37q46 0 83.5 -37t37.5 -83q0 -47 -37.5 -82t-83.5 -35 q-47 0 -82 35t-35 82zM768 1604q0 46 35 83t82 37q46 0 83.5 -37t37.5 -83q0 -47 -37.5 -82t-83.5 -35q-47 0 -82 35t-35 82z" />
<glyph unicode="&#xdd;" horiz-adv-x="1155" d="M-25 1352h265l346 -613l332 613h260l-482 -797v-555h-235v547zM432 1509l6 15l369 207q12 6 20 6q26 0 44 -34.5t18 -72.5q0 -50 -27 -59l-383 -141l-16 6z" />
<glyph unicode="&#xde;" horiz-adv-x="1089" d="M180 0v1352h236v-226h90q235 0 373.5 -113t138.5 -321q0 -87 -29 -162t-85.5 -133t-147.5 -91.5t-207 -33.5q-92 0 -133 2v-274h-236zM416 471q39 -2 127 -2q110 0 166.5 61.5t56.5 178.5q0 221 -227 221q-84 0 -123 -2v-457z" />
<glyph unicode="&#xdf;" horiz-adv-x="1132" d="M141 0v995q0 236 105.5 374t304.5 138q146 0 239 -82t93 -194q0 -51 -21.5 -103t-52.5 -94t-61.5 -81.5t-52 -79.5t-21.5 -74t22.5 -64.5t58 -56t78.5 -52.5t86.5 -59.5t79 -70.5t58 -93t22.5 -120q0 -71 -22 -129.5t-56.5 -96t-79 -64t-87.5 -37.5t-84 -11 q-69 0 -133 26t-107 64l59 215q35 -63 85.5 -100t109.5 -37q44 0 73 38.5t29 108.5q0 59 -21.5 106t-56 79t-76 59.5t-82.5 54t-75.5 56t-56 72.5t-21.5 97q0 52 19.5 102.5t47.5 90t56.5 77.5t48 81.5t19.5 85.5q0 52 -33 86t-92 34q-50 0 -86.5 -19.5t-57.5 -50.5t-33 -78 t-16 -92.5t-4 -105.5v-995h-205z" />
<glyph unicode="&#xe0;" horiz-adv-x="1026" d="M70 248q0 167 138.5 262.5t373.5 95.5h88v31q0 80 -52 117t-165 37q-150 0 -271 -68l-43 170q139 80 332 80q204 0 311 -84q113 -87 113 -248v-641h-180l-17 129h-8q-55 -69 -150.5 -111.5t-193.5 -42.5q-128 0 -202 75t-74 198zM215 1288q0 38 17.5 72.5t43.5 34.5 q9 0 21 -6l369 -207l6 -15l-31 -73l-16 -7l-383 142q-27 9 -27 59zM309 281q0 -123 125 -123q67 0 132.5 32t103.5 84v187h-39q-167 0 -244.5 -43t-77.5 -137z" />
<glyph unicode="&#xe1;" horiz-adv-x="1026" d="M70 248q0 167 138.5 262.5t373.5 95.5h88v31q0 80 -52 117t-165 37q-150 0 -271 -68l-43 170q139 80 332 80q204 0 311 -84q113 -87 113 -248v-641h-180l-17 129h-8q-55 -69 -150.5 -111.5t-193.5 -42.5q-128 0 -202 75t-74 198zM309 281q0 -123 125 -123q67 0 132.5 32 t103.5 84v187h-39q-167 0 -244.5 -43t-77.5 -137zM367 1169l6 15l368 207q12 6 21 6q26 0 43.5 -34.5t17.5 -72.5q0 -50 -26 -59l-383 -141l-17 6z" />
<glyph unicode="&#xe2;" horiz-adv-x="1026" d="M70 248q0 167 138.5 262.5t373.5 95.5h88v31q0 80 -52 117t-165 37q-150 0 -271 -68l-43 170q139 80 332 80q204 0 311 -84q113 -87 113 -248v-641h-180l-17 129h-8q-55 -69 -150.5 -111.5t-193.5 -42.5q-128 0 -202 75t-74 198zM256 1161l6 15l225 202h17l225 -202 l6 -15l-33 -59l-14 -6l-192 84l-193 -84l-14 6zM309 281q0 -123 125 -123q67 0 132.5 32t103.5 84v187h-39q-167 0 -244.5 -43t-77.5 -137z" />
<glyph unicode="&#xe3;" horiz-adv-x="1026" d="M70 248q0 167 138.5 262.5t373.5 95.5h88v31q0 80 -52 117t-165 37q-150 0 -271 -68l-43 170q139 80 332 80q204 0 311 -84q113 -87 113 -248v-641h-180l-17 129h-8q-55 -69 -150.5 -111.5t-193.5 -42.5q-128 0 -202 75t-74 198zM193 1184q11 36 20 58.5t25 49.5t35.5 42 t50 25.5t69.5 10.5t129 -14.5t127 -14.5q84 0 156 54l24 -47q-14 -79 -58.5 -134t-125.5 -55q-28 0 -124.5 14.5t-147.5 14.5q-106 0 -154 -51zM309 281q0 -123 125 -123q67 0 132.5 32t103.5 84v187h-39q-167 0 -244.5 -43t-77.5 -137z" />
<glyph unicode="&#xe4;" horiz-adv-x="1026" d="M70 248q0 167 138.5 262.5t373.5 95.5h88v31q0 80 -52 117t-165 37q-150 0 -271 -68l-43 170q139 80 332 80q204 0 311 -84q113 -87 113 -248v-641h-180l-17 129h-8q-55 -69 -150.5 -111.5t-193.5 -42.5q-128 0 -202 75t-74 198zM258 1253q0 46 35 83.5t82 37.5 q46 0 83.5 -37.5t37.5 -83.5t-37 -81t-84 -35t-82 34.5t-35 81.5zM309 281q0 -123 125 -123q67 0 132.5 32t103.5 84v187h-39q-167 0 -244.5 -43t-77.5 -137zM537 1253q0 47 35 84t81 37t83.5 -37.5t37.5 -83.5t-37 -81t-84 -35t-81.5 34.5t-34.5 81.5z" />
<glyph unicode="&#xe5;" horiz-adv-x="1026" d="M70 248q0 167 138.5 262.5t373.5 95.5h88v31q0 80 -52 117t-165 37q-150 0 -271 -68l-43 170q139 80 332 80q204 0 311 -84q113 -87 113 -248v-641h-180l-17 129h-8q-55 -69 -150.5 -111.5t-193.5 -42.5q-128 0 -202 75t-74 198zM309 281q0 -123 125 -123q67 0 132.5 32 t103.5 84v187h-39q-167 0 -244.5 -43t-77.5 -137zM336 1249q0 68 52 119t136 51q85 0 138 -52.5t53 -121.5q0 -66 -51.5 -115t-137.5 -49q-90 0 -140 51t-50 117zM453 1251q0 -31 21 -55.5t52 -24.5t50.5 23t19.5 51q0 31 -21 57.5t-53 26.5t-50.5 -24t-18.5 -54z" />
<glyph unicode="&#xe6;" horiz-adv-x="1642" d="M70 248q0 64 19.5 117.5t51.5 89.5t76.5 64t90 44t98 26t94.5 13.5t84 3.5h86v19q0 53 -15.5 83t-48.5 52q-47 31 -133 31q-148 0 -291 -68l-43 170q148 80 346 80q244 0 346 -133q133 133 347 133q180 0 278 -91t98 -257q0 -47 -11 -99.5t-27 -74.5h-596 q8 -130 79 -213.5t199 -83.5q74 0 159 28.5t146 71.5l37 -168q-70 -44 -168.5 -77.5t-208.5 -33.5q-122 0 -216.5 47t-155.5 130q-158 -177 -437 -177q-136 0 -210 76.5t-74 196.5zM309 266q0 -52 33.5 -80t91.5 -28q63 0 130 31t106 85v191h-15q-55 0 -98 -3.5t-92 -15.5 t-81 -33t-53.5 -58.5t-21.5 -88.5zM938 610h391q2 12 2 37q0 70 -46.5 110t-113.5 40q-88 0 -147.5 -51t-85.5 -136z" />
<glyph unicode="&#xe7;" horiz-adv-x="1003" d="M88 479q0 101 28.5 188t86 156.5t153 109.5t219.5 40q97 0 192.5 -22.5t152.5 -59.5l-50 -182q-47 35 -131 61.5t-157 26.5q-54 0 -97.5 -16.5t-72 -44.5t-47.5 -67.5t-27 -83t-8 -93.5q0 -145 68.5 -239.5t195.5 -94.5q76 0 158.5 30.5t136.5 81.5l41 -192 q-58 -37 -145.5 -66t-180.5 -35l-37 -61q31 8 60 8q70 0 115.5 -48t45.5 -120q0 -81 -74 -141.5t-182 -60.5q-90 0 -194 38l-2 13l57 98h15q65 -25 129 -25q90 0 90 62q0 63 -86 63q-48 0 -99 -14l-39 53l91 138q-99 11 -177.5 55t-128 111.5t-75 152t-25.5 180.5z" />
<glyph unicode="&#xe8;" horiz-adv-x="1034" d="M84 471q0 102 32.5 192.5t92.5 159.5t153 109.5t207 40.5q180 0 278.5 -91t98.5 -257q0 -46 -11 -99t-28 -75h-596q8 -130 79.5 -213.5t199.5 -83.5q74 0 159 28.5t146 71.5l37 -168q-70 -44 -168.5 -77.5t-208.5 -33.5q-111 0 -201.5 40t-148.5 109t-89.5 158t-31.5 189 zM266 1288q0 38 18 72.5t44 34.5q8 0 20 -6l369 -207l6 -15l-31 -73l-16 -7l-383 142q-27 9 -27 59zM330 610h391q2 12 2 37q0 70 -46.5 110t-113.5 40q-88 0 -147.5 -51t-85.5 -136z" />
<glyph unicode="&#xe9;" horiz-adv-x="1034" d="M84 471q0 102 32.5 192.5t92.5 159.5t153 109.5t207 40.5q180 0 278.5 -91t98.5 -257q0 -46 -11 -99t-28 -75h-596q8 -130 79.5 -213.5t199.5 -83.5q74 0 159 28.5t146 71.5l37 -168q-70 -44 -168.5 -77.5t-208.5 -33.5q-111 0 -201.5 40t-148.5 109t-89.5 158t-31.5 189 zM330 610h391q2 12 2 37q0 70 -46.5 110t-113.5 40q-88 0 -147.5 -51t-85.5 -136zM379 1169l6 15l369 207q12 6 20 6q26 0 44 -35.5t18 -71.5q0 -50 -27 -59l-383 -141l-16 6z" />
<glyph unicode="&#xea;" horiz-adv-x="1034" d="M84 471q0 102 32.5 192.5t92.5 159.5t153 109.5t207 40.5q180 0 278.5 -91t98.5 -257q0 -46 -11 -99t-28 -75h-596q8 -130 79.5 -213.5t199.5 -83.5q74 0 159 28.5t146 71.5l37 -168q-70 -44 -168.5 -77.5t-208.5 -33.5q-111 0 -201.5 40t-148.5 109t-89.5 158t-31.5 189 zM303 1161l6 15l226 202h16l225 -202l6 -15l-32 -59l-15 -6l-192 84l-193 -84l-14 6zM330 610h391q2 12 2 37q0 70 -46.5 110t-113.5 40q-88 0 -147.5 -51t-85.5 -136z" />
<glyph unicode="&#xeb;" horiz-adv-x="1034" d="M84 471q0 102 32.5 192.5t92.5 159.5t153 109.5t207 40.5q180 0 278.5 -91t98.5 -257q0 -46 -11 -99t-28 -75h-596q8 -130 79.5 -213.5t199.5 -83.5q74 0 159 28.5t146 71.5l37 -168q-70 -44 -168.5 -77.5t-208.5 -33.5q-111 0 -201.5 40t-148.5 109t-89.5 158t-31.5 189 zM283 1253q0 47 35 84t81 37t83.5 -37.5t37.5 -83.5t-37 -81t-84 -35t-81.5 34.5t-34.5 81.5zM330 610h391q2 12 2 37q0 70 -46.5 110t-113.5 40q-88 0 -147.5 -51t-85.5 -136zM561 1253q0 46 35 83.5t82 37.5q46 0 83.5 -37.5t37.5 -83.5t-37 -81t-84 -35t-82 34.5 t-35 81.5z" />
<glyph unicode="&#xec;" horiz-adv-x="507" d="M-49 1288q0 38 17.5 72.5t43.5 34.5q9 0 21 -6l368 -207l7 -15l-31 -73l-17 -7l-383 142q-26 9 -26 59zM141 0v942h226v-942h-226z" />
<glyph unicode="&#xed;" horiz-adv-x="507" d="M49 1169l6 15l369 207q12 6 20 6q26 0 44 -34.5t18 -72.5q0 -50 -27 -59l-383 -141l-16 6zM141 0v942h226v-942h-226z" />
<glyph unicode="&#xee;" horiz-adv-x="507" d="M8 1161l6 15l226 202h16l225 -202l6 -15l-32 -59l-15 -6l-192 84l-193 -84l-14 6zM141 0v942h226v-942h-226z" />
<glyph unicode="&#xef;" horiz-adv-x="507" d="M-6 1253q0 46 35 83.5t82 37.5q46 0 83 -37.5t37 -83.5q0 -47 -37 -81.5t-83 -34.5q-47 0 -82 34.5t-35 81.5zM141 0v942h226v-942h-226zM272 1253q0 46 35 83.5t82 37.5q46 0 83.5 -37.5t37.5 -83.5t-37 -81t-84 -35t-82 34.5t-35 81.5z" />
<glyph unicode="&#xf0;" horiz-adv-x="1146" d="M86 475q0 137 50.5 248t154 180.5t244.5 69.5q201 0 280 -133l6 2q-22 145 -129 327l-237 -59l-43 133l198 51q-118 157 -233 222h301q80 -77 141 -166l252 67l43 -139l-217 -55q152 -290 152 -629q0 -104 -14 -192t-49 -168.5t-89 -136.5t-138 -89t-192 -33 q-101 0 -183 28.5t-137 76t-92 112.5t-53 135.5t-16 147.5zM328 481q0 -142 60 -239t177 -97q114 0 173 90.5t59 227.5q0 91 -24.5 164.5t-81 121.5t-136.5 48q-112 0 -169.5 -89.5t-57.5 -226.5z" />
<glyph unicode="&#xf1;" horiz-adv-x="1120" d="M141 0v942h176l11 -139h8q41 83 131.5 126.5t198.5 43.5q70 0 127.5 -17.5t104.5 -55t73 -103.5t26 -156v-641h-225v623q0 83 -37 125.5t-106 42.5q-75 0 -155.5 -52t-106.5 -135v-604h-226zM233 1184q11 36 20 58.5t25 49.5t35.5 42t50.5 25.5t70 10.5t129.5 -14.5 t126.5 -14.5q84 0 156 54l24 -47q-14 -79 -58.5 -134t-125.5 -55q-28 0 -124.5 14.5t-147.5 14.5q-106 0 -154 -51z" />
<glyph unicode="&#xf2;" horiz-adv-x="1124" d="M86 475q0 102 29.5 190.5t86 158t149 109.5t210.5 40q120 0 213.5 -41.5t150 -113t85 -161t28.5 -192.5q0 -102 -28.5 -189t-85 -155t-148 -107t-209.5 -39q-121 0 -215 40.5t-151 110.5t-86 158.5t-29 190.5zM264 1288q0 38 18 72.5t44 34.5q8 0 20 -6l369 -207l6 -15 l-31 -73l-16 -7l-383 142q-27 9 -27 59zM328 481q0 -142 60 -239t177 -97q114 0 173 90.5t59 227.5q0 91 -24.5 164.5t-81 121.5t-136.5 48q-112 0 -169.5 -89.5t-57.5 -226.5z" />
<glyph unicode="&#xf3;" horiz-adv-x="1124" d="M86 475q0 102 29.5 190.5t86 158t149 109.5t210.5 40q120 0 213.5 -41.5t150 -113t85 -161t28.5 -192.5q0 -102 -28.5 -189t-85 -155t-148 -107t-209.5 -39q-121 0 -215 40.5t-151 110.5t-86 158.5t-29 190.5zM328 481q0 -142 60 -239t177 -97q114 0 173 90.5t59 227.5 q0 91 -24.5 164.5t-81 121.5t-136.5 48q-112 0 -169.5 -89.5t-57.5 -226.5zM393 1169l6 15l369 207q12 6 20 6q26 0 44 -34.5t18 -72.5q0 -50 -27 -59l-383 -141l-16 6z" />
<glyph unicode="&#xf4;" horiz-adv-x="1124" d="M86 475q0 102 29.5 190.5t86 158t149 109.5t210.5 40q120 0 213.5 -41.5t150 -113t85 -161t28.5 -192.5q0 -102 -28.5 -189t-85 -155t-148 -107t-209.5 -39q-121 0 -215 40.5t-151 110.5t-86 158.5t-29 190.5zM328 481q0 -142 60 -239t177 -97q114 0 173 90.5t59 227.5 q0 91 -24.5 164.5t-81 121.5t-136.5 48q-112 0 -169.5 -89.5t-57.5 -226.5zM340 1161l6 15l225 202h17l225 -202l6 -15l-33 -59l-14 -6l-192 84l-193 -84l-14 6z" />
<glyph unicode="&#xf5;" horiz-adv-x="1124" d="M86 475q0 102 29.5 190.5t86 158t149 109.5t210.5 40q120 0 213.5 -41.5t150 -113t85 -161t28.5 -192.5q0 -102 -28.5 -189t-85 -155t-148 -107t-209.5 -39q-121 0 -215 40.5t-151 110.5t-86 158.5t-29 190.5zM223 1184q11 36 20 58.5t25 49.5t35.5 42t50.5 25.5t70 10.5 q40 0 130 -14.5t126 -14.5q84 0 156 54l24 -47q-14 -79 -58.5 -134t-125.5 -55q-28 0 -125 14.5t-148 14.5q-105 0 -153 -51zM328 481q0 -142 60 -239t177 -97q114 0 173 90.5t59 227.5q0 91 -24.5 164.5t-81 121.5t-136.5 48q-112 0 -169.5 -89.5t-57.5 -226.5z" />
<glyph unicode="&#xf6;" horiz-adv-x="1124" d="M86 475q0 102 29.5 190.5t86 158t149 109.5t210.5 40q120 0 213.5 -41.5t150 -113t85 -161t28.5 -192.5q0 -102 -28.5 -189t-85 -155t-148 -107t-209.5 -39q-121 0 -215 40.5t-151 110.5t-86 158.5t-29 190.5zM307 1253q0 46 35 83.5t82 37.5q46 0 83.5 -37.5t37.5 -83.5 t-37 -81t-84 -35t-82 34.5t-35 81.5zM328 481q0 -142 60 -239t177 -97q114 0 173 90.5t59 227.5q0 91 -24.5 164.5t-81 121.5t-136.5 48q-112 0 -169.5 -89.5t-57.5 -226.5zM586 1253q0 47 35 84t81 37t83.5 -37.5t37.5 -83.5t-37 -81t-84 -35t-81.5 34.5t-34.5 81.5z" />
<glyph unicode="&#xf7;" horiz-adv-x="1050" d="M102 406v167h848v-167h-848zM401 131q0 58 43.5 104t102.5 46q57 0 103 -46.5t46 -103.5q0 -59 -45.5 -102t-103.5 -43q-60 0 -103 42.5t-43 102.5zM401 844q0 58 43.5 103.5t102.5 45.5q57 0 103 -46t46 -103q0 -59 -45.5 -102.5t-103.5 -43.5q-60 0 -103 43t-43 103z " />
<glyph unicode="&#xf8;" horiz-adv-x="1126" d="M66 25l112 129q-92 129 -92 321q0 102 29.5 190.5t86 158t149 109.5t210.5 40q155 0 273 -74l104 119l121 -90l-117 -133q96 -134 96 -330q0 -102 -28.5 -189t-85 -155t-148 -107t-209.5 -39q-163 0 -276 74l-111 -127zM328 481q0 -88 20 -155l361 407q-64 64 -154 64 q-112 0 -169.5 -89.5t-57.5 -226.5zM412 211q60 -66 153 -66q114 0 173 90.5t59 227.5q0 83 -25 160z" />
<glyph unicode="&#xf9;" d="M133 301v641h225v-612q0 -81 43.5 -126.5t114.5 -45.5q73 0 132.5 49t86.5 137v598h228v-942h-177l-12 131h-8q-77 -156 -309 -156q-70 0 -126 16.5t-102 53t-71 101.5t-25 155zM252 1288q0 38 17.5 72.5t43.5 34.5q9 0 21 -6l368 -207l7 -15l-31 -73l-16 -7l-383 142 q-27 9 -27 59z" />
<glyph unicode="&#xfa;" d="M133 301v641h225v-612q0 -81 43.5 -126.5t114.5 -45.5q73 0 132.5 49t86.5 137v598h228v-942h-177l-12 131h-8q-77 -156 -309 -156q-70 0 -126 16.5t-102 53t-71 101.5t-25 155zM328 1169l6 15l368 207q12 6 21 6q26 0 43.5 -34.5t17.5 -72.5q0 -50 -26 -59l-383 -141 l-17 6z" />
<glyph unicode="&#xfb;" d="M133 301v641h225v-612q0 -81 43.5 -126.5t114.5 -45.5q73 0 132.5 49t86.5 137v598h228v-942h-177l-12 131h-8q-77 -156 -309 -156q-70 0 -126 16.5t-102 53t-71 101.5t-25 155zM299 1161l6 15l225 202h17l225 -202l6 -15l-33 -59l-14 -6l-192 84l-193 -84l-14 6z" />
<glyph unicode="&#xfc;" d="M133 301v641h225v-612q0 -81 43.5 -126.5t114.5 -45.5q73 0 132.5 49t86.5 137v598h228v-942h-177l-12 131h-8q-77 -156 -309 -156q-70 0 -126 16.5t-102 53t-71 101.5t-25 155zM281 1253q0 47 35 84t81 37t83.5 -37.5t37.5 -83.5t-37 -81t-84 -35t-81.5 34.5t-34.5 81.5 zM559 1253q0 46 35 83.5t82 37.5q46 0 83.5 -37.5t37.5 -83.5t-37 -81t-84 -35t-82 34.5t-35 81.5z" />
<glyph unicode="&#xfd;" horiz-adv-x="1062" d="M-14 942h235l328 -670l262 670h217l-389 -950q-26 -63 -60 -126.5t-86 -136t-109 -126.5t-132 -90.5t-152 -36.5q-25 0 -43 6l-39 176q24 -6 50 -6q90 0 153 41q70 44 125 125.5t109 212.5zM383 1169l6 15l369 207q12 6 20 6q26 0 44 -34.5t18 -72.5q0 -50 -27 -59 l-383 -141l-16 6z" />
<glyph unicode="&#xfe;" horiz-adv-x="1177" d="M141 -532v2048h217v-682h9q50 59 135.5 99t163.5 40q107 0 190 -41t133 -112.5t75.5 -160t25.5 -190.5q0 -103 -26 -191t-77.5 -156.5t-134.5 -107.5t-190 -39q-206 0 -297 113v-620h-224zM365 268q93 -114 243 -114q127 0 192.5 87t65.5 224q0 87 -23.5 160.5t-79 124.5 t-134.5 51q-64 0 -142 -37.5t-122 -95.5v-400z" />
<glyph unicode="&#xff;" horiz-adv-x="1062" d="M-14 942h235l328 -670l262 670h217l-389 -950q-26 -63 -60 -126.5t-86 -136t-109 -126.5t-132 -90.5t-152 -36.5q-25 0 -43 6l-39 176q24 -6 50 -6q90 0 153 41q70 44 125 125.5t109 212.5zM250 1253q0 46 35 83.5t82 37.5q46 0 83 -37.5t37 -83.5q0 -47 -37 -81.5 t-83 -34.5q-47 0 -82 34.5t-35 81.5zM528 1253q0 46 35 83.5t82 37.5q46 0 83.5 -37.5t37.5 -83.5t-37 -81t-84 -35t-82 34.5t-35 81.5z" />
<glyph unicode="&#x152;" horiz-adv-x="1730" d="M100 659q0 147 44.5 274.5t126.5 223t208.5 150.5t280.5 55q69 0 147 -10h703v-205h-508v-328h371v-205h-371v-409h549v-205h-709q-92 -25 -197 -25q-158 0 -283 55t-203 150t-118.5 217t-40.5 262zM352 680q0 -249 102.5 -378.5t295.5 -129.5q64 0 116 18v957 q-53 18 -112 18q-107 0 -185.5 -35t-125 -101t-69 -152.5t-22.5 -196.5z" />
<glyph unicode="&#x153;" horiz-adv-x="1728" d="M86 475q0 102 29.5 190.5t86 158t149 109.5t210.5 40q249 0 350 -180q120 180 353 180q180 0 278 -91t98 -257q0 -47 -11 -99.5t-27 -74.5h-596q8 -130 79 -213.5t199 -83.5q74 0 159 28.5t146 71.5l37 -168q-70 -44 -168.5 -77.5t-208.5 -33.5q-232 0 -336 172 q-96 -172 -346 -172q-121 0 -215 40.5t-151 110.5t-86 158.5t-29 190.5zM328 481q0 -142 60 -239t177 -97q114 0 173 90.5t59 227.5q0 91 -24.5 164.5t-81 121.5t-136.5 48q-112 0 -169.5 -89.5t-57.5 -226.5zM1024 610h391q2 12 2 37q0 70 -46.5 110t-113.5 40 q-88 0 -147.5 -51t-85.5 -136z" />
<glyph unicode="&#x178;" horiz-adv-x="1155" d="M-25 1352h265l346 -613l332 613h260l-482 -797v-555h-235v547zM328 1604q0 46 34.5 83t81.5 37q46 0 83.5 -37t37.5 -83q0 -47 -37.5 -82t-83.5 -35q-47 0 -81.5 35t-34.5 82zM606 1604q0 46 35 83t82 37q46 0 83.5 -37t37.5 -83q0 -47 -37.5 -82t-83.5 -35q-47 0 -82 35 t-35 82z" />
<glyph unicode="&#x2c6;" horiz-adv-x="479" d="M0 1161l6 15l225 202h17l225 -202l6 -15l-33 -59l-14 -6l-192 84l-193 -84l-14 6z" />
<glyph unicode="&#x2dc;" horiz-adv-x="636" d="M0 1163q14 45 26 72.5t34.5 57t57 43.5t83.5 14q40 0 130 -14.5t126 -14.5q84 0 155 53l25 -47q-14 -79 -58.5 -133.5t-125.5 -54.5q-28 0 -125 14t-148 14q-105 0 -153 -51z" />
<glyph unicode="&#x2000;" horiz-adv-x="869" />
<glyph unicode="&#x2001;" horiz-adv-x="1739" />
<glyph unicode="&#x2002;" horiz-adv-x="869" />
<glyph unicode="&#x2003;" horiz-adv-x="1739" />
<glyph unicode="&#x2004;" horiz-adv-x="579" />
<glyph unicode="&#x2005;" horiz-adv-x="434" />
<glyph unicode="&#x2006;" horiz-adv-x="289" />
<glyph unicode="&#x2007;" horiz-adv-x="289" />
<glyph unicode="&#x2008;" horiz-adv-x="217" />
<glyph unicode="&#x2009;" horiz-adv-x="347" />
<glyph unicode="&#x200a;" horiz-adv-x="96" />
<glyph unicode="&#x2010;" horiz-adv-x="958" d="M133 406v167h692v-167h-692z" />
<glyph unicode="&#x2011;" horiz-adv-x="958" d="M133 406v167h692v-167h-692z" />
<glyph unicode="&#x2012;" horiz-adv-x="958" d="M133 406v167h692v-167h-692z" />
<glyph unicode="&#x2013;" horiz-adv-x="1114" d="M133 406v167h848v-167h-848z" />
<glyph unicode="&#x2014;" horiz-adv-x="1581" d="M133 406v167h1315v-167h-1315z" />
<glyph unicode="&#x2018;" horiz-adv-x="516" d="M135 942v311l211 252l74 -51l-92 -231h51v-281h-244z" />
<glyph unicode="&#x2019;" horiz-adv-x="477" d="M106 993l93 232h-52v280h244v-311l-211 -252z" />
<glyph unicode="&#x201a;" horiz-adv-x="534" d="M104 -242l93 232h-52v280h244v-311l-211 -252z" />
<glyph unicode="&#x201c;" horiz-adv-x="841" d="M135 942v311l211 252l74 -51l-92 -231h51v-281h-244zM461 942v311l211 252l73 -51l-92 -231h52v-281h-244z" />
<glyph unicode="&#x201d;" horiz-adv-x="802" d="M106 993l93 232h-52v280h244v-311l-211 -252zM432 993l92 232h-51v280h244v-311l-211 -252z" />
<glyph unicode="&#x201e;" horiz-adv-x="860" d="M104 -242l93 232h-52v280h244v-311l-211 -252zM430 -242l92 232h-51v280h244v-311l-211 -252z" />
<glyph unicode="&#x2022;" horiz-adv-x="659" d="M182 498q0 58 43.5 103.5t102.5 45.5q57 0 103 -46t46 -103q0 -59 -45.5 -102.5t-103.5 -43.5q-60 0 -103 43t-43 103z" />
<glyph unicode="&#x2026;" horiz-adv-x="1298" d="M115 121q0 58 43 103.5t102 45.5q57 0 103.5 -46t46.5 -103q0 -59 -46 -102.5t-104 -43.5q-60 0 -102.5 43t-42.5 103zM504 121q0 58 43 103.5t102 45.5q57 0 103.5 -46t46.5 -103q0 -59 -46 -102.5t-104 -43.5q-60 0 -102.5 43t-42.5 103zM891 121q0 58 43 103.5 t102 45.5q57 0 103.5 -46t46.5 -103q0 -59 -46 -102.5t-104 -43.5q-60 0 -102.5 43t-42.5 103z" />
<glyph unicode="&#x202f;" horiz-adv-x="347" />
<glyph unicode="&#x2039;" horiz-adv-x="690" d="M88 489v11l274 360h230l-297 -362v-11l297 -362h-232z" />
<glyph unicode="&#x203a;" horiz-adv-x="690" d="M98 125l297 362v11l-297 362h230l274 -360v-11l-272 -364h-232z" />
<glyph unicode="&#x205f;" horiz-adv-x="434" />
<glyph unicode="&#x20ac;" horiz-adv-x="1261" d="M86 461v168h156v33q0 50 2 75h-158v168h184q52 208 190.5 332.5t346.5 124.5q92 0 188 -24t162 -64l-65 -227q-117 114 -295 114q-225 0 -285 -256h432v-168h-452v-108h452v-168h-434q59 -285 274 -285q101 0 190.5 36t145.5 95l62 -207q-182 -125 -398 -125 q-109 0 -200 37t-155 103t-106.5 153t-62.5 193h-174z" />
<glyph unicode="&#x2122;" horiz-adv-x="1458" d="M133 1206v131h442v-131h-151v-450h-139v450h-152zM643 756v581h184l146 -411l143 411h182v-581h-139v336l-123 -336h-133l-121 338v-338h-139z" />
<glyph unicode="&#x25fc;" horiz-adv-x="942" d="M0 0v942h942v-942h-942z" />
</font>
</defs>
</svg>
