<?xml version="1.0" standalone="no"?>
<!DOCTYPE svg PUBLIC "-//W3C//DTD SVG 20010904//EN"
 "http://www.w3.org/TR/2001/REC-SVG-20010904/DTD/svg10.dtd">
<svg version="1.0" xmlns="http://www.w3.org/2000/svg"
 width="1596.000000pt" height="1596.000000pt" viewBox="0 0 1596.000000 1596.000000"
 preserveAspectRatio="xMidYMid meet">
<metadata>
Created by potrace 1.11, written by Peter Selinger 2001-2013
</metadata>
<g transform="translate(0.000000,1596.000000) scale(0.100000,-0.100000)"
fill="#000000" stroke="none">
<path d="M1754 15915 c-19 -34 -114 -114 -375 -317 -35 -27 -54 -48 -51 -58 3
-8 36 -79 73 -157 l69 -143 62 0 c35 0 95 -3 133 -7 68 -6 71 -7 129 -62 76
-72 69 -67 156 -137 41 -34 124 -94 184 -135 94 -64 118 -86 177 -164 43 -57
70 -104 74 -128 16 -87 250 -320 451 -449 79 -51 230 -120 312 -144 9 -2 7
-12 -8 -36 -24 -39 -26 -107 -5 -147 26 -52 116 -118 259 -193 140 -72 231
-128 252 -153 5 -8 109 -75 230 -151 463 -289 674 -440 872 -626 34 -32 87
-71 117 -85 30 -15 55 -30 55 -33 0 -3 -15 -12 -32 -19 -18 -8 -62 -31 -98
-51 -36 -21 -107 -59 -158 -86 -128 -67 -191 -101 -377 -201 -88 -47 -189
-102 -225 -121 -36 -19 -89 -58 -118 -86 -46 -44 -52 -55 -48 -81 3 -16 8 -46
11 -65 2 -19 11 -82 20 -140 8 -58 17 -121 19 -140 5 -37 43 -301 51 -360 3
-19 10 -62 15 -95 5 -33 11 -78 15 -100 3 -22 8 -53 10 -70 3 -16 7 -48 10
-70 5 -44 14 -109 20 -140 2 -11 4 -28 4 -37 1 -17 17 -18 229 -13 125 2 371
7 547 10 176 3 419 8 540 10 121 2 389 7 595 10 206 4 446 8 533 10 111 2 157
-1 158 -9 1 -38 11 -105 19 -126 5 -14 12 -41 16 -60 4 -19 8 -37 9 -40 21
-89 51 -262 60 -345 3 -33 8 -72 11 -88 11 -57 6 -248 -9 -319 -9 -40 -25
-122 -36 -183 -11 -60 -38 -175 -61 -255 -22 -80 -54 -194 -70 -253 -103 -371
-112 -604 -31 -816 l19 -51 -167 -80 c-336 -164 -568 -284 -647 -336 -191
-126 -352 -321 -423 -514 -48 -129 -61 -216 -57 -380 5 -218 6 -221 156 -387
159 -176 224 -250 346 -394 105 -122 134 -157 260 -309 43 -52 81 -97 84 -100
3 -3 59 -70 125 -150 65 -80 121 -147 124 -150 4 -3 16 -17 27 -32 23 -29 27
-34 293 -345 100 -117 191 -223 204 -236 12 -12 65 -70 117 -127 101 -113 447
-461 570 -575 90 -84 114 -116 130 -175 27 -99 15 -170 -69 -425 -27 -83 -53
-178 -56 -210 -6 -51 -13 -66 -43 -99 -100 -104 -313 -240 -514 -326 -43 -19
-78 -37 -78 -41 0 -6 132 -119 200 -172 61 -48 181 -111 259 -136 70 -23 89
-21 231 24 196 61 403 172 668 357 363 254 552 376 697 448 153 76 157 80 171
153 18 94 -2 193 -62 294 -35 61 -177 203 -274 275 -69 50 -322 214 -344 221
-14 5 -8 147 10 233 18 87 71 246 115 342 120 261 175 398 208 525 l10 39 -87
40 c-111 51 -227 94 -432 158 -413 130 -565 197 -722 317 -69 53 -62 43 -199
272 -150 250 -204 368 -202 434 2 41 4 48 23 67 24 24 108 27 187 6 45 -12 55
-12 90 3 96 42 204 61 308 55 81 -5 125 -16 213 -51 l63 -25 247 81 c253 82
372 122 547 186 164 60 186 67 189 64 123 -162 392 -607 656 -1084 191 -346
305 -548 362 -643 55 -91 70 -126 255 -567 69 -165 131 -313 138 -330 150
-344 203 -460 280 -615 99 -199 108 -215 192 -360 37 -65 69 -107 102 -132 50
-41 211 -196 276 -268 137 -151 271 -334 535 -730 215 -323 356 -521 411 -582
34 -36 35 -36 89 -28 73 10 189 5 237 -10 151 -48 195 -174 148 -430 -9 -47
-20 -98 -26 -115 -30 -92 -123 -439 -140 -523 -38 -181 -33 -315 14 -406 27
-51 133 -154 167 -163 14 -4 72 -7 130 -7 l105 -1 189 106 189 105 171 337
c239 470 362 746 455 1026 70 209 122 410 146 567 l6 41 -181 119 c-447 293
-570 409 -701 658 -17 33 -52 94 -78 135 -27 42 -91 164 -144 271 -145 295
-294 535 -510 826 -121 163 -326 419 -442 550 -308 351 -546 635 -573 687 -52
100 -65 183 -62 397 7 440 7 433 -35 600 -28 108 -69 234 -143 430 -57 151
-67 198 -58 265 14 91 81 135 231 150 173 18 204 24 270 55 47 23 76 47 133
113 139 160 166 216 166 357 1 88 -2 101 -31 161 -18 36 -53 86 -77 111 l-44
46 48 58 47 57 -48 186 c-63 245 -124 466 -259 926 -188 645 -294 1048 -350
1338 -25 130 -25 126 8 122 15 -2 91 -4 168 -4 l142 -1 21 -117 c39 -207 92
-382 119 -391 6 -2 50 3 97 12 174 30 213 98 250 439 9 84 8 83 78 84 56 1
612 10 1042 18 392 7 952 17 1113 20 l172 2 55 49 55 49 0 670 0 670 -263 104
c-144 57 -605 240 -1025 407 -419 167 -765 304 -767 304 -3 0 -24 9 -48 19
-23 11 -116 48 -207 84 -248 98 -752 297 -775 307 -68 28 -97 40 -160 65 -38
15 -79 31 -90 36 -28 11 -247 98 -390 154 -66 26 -133 53 -150 60 -16 7 -116
47 -221 89 -168 66 -197 75 -240 71 -102 -10 -170 -16 -204 -20 -125 -15 -150
-15 -150 0 0 10 -11 15 -32 16 -18 0 -62 2 -98 4 -36 2 -114 6 -175 10 -185 9
-259 17 -271 27 -7 5 -15 25 -19 44 l-6 35 -88 -7 c-165 -12 -299 27 -385 112
-100 101 -146 260 -171 589 -19 257 -41 400 -68 444 -11 19 -43 62 -71 95
-242 293 -569 472 -971 532 -89 13 -355 13 -440 -1 -451 -70 -813 -317 -1047
-715 -76 -128 -101 -202 -102 -300 -1 -138 47 -199 197 -249 46 -15 51 -20 98
-107 l49 -91 -41 -1 c-158 -6 -186 -158 -77 -407 66 -150 70 -163 70 -275 2
-240 -87 -360 -268 -360 -51 0 -83 6 -111 19 -21 11 -193 96 -383 190 -190 93
-412 205 -495 249 -82 43 -199 105 -260 136 -60 32 -157 83 -215 114 -58 30
-118 63 -135 72 -16 10 -88 48 -160 85 -71 37 -143 76 -160 85 -30 17 -239
126 -495 257 -80 41 -283 167 -497 309 -200 131 -388 255 -420 274 -85 53
-181 156 -330 352 -144 191 -254 302 -339 344 -67 32 -147 54 -205 54 -41 0
-47 -3 -65 -35z"/>
</g>
</svg>
